<svg xmlns="http://www.w3.org/2000/svg" xmlns:xlink="http://www.w3.org/1999/xlink" width="1080" zoomAndPan="magnify" viewBox="0 0 810 809.999993" height="1080" preserveAspectRatio="xMidYMid meet" version="1.0"><defs><g/><clipPath id="095de1c870"><path d="M 126.414062 110 L 606 110 L 606 589.992188 L 126.414062 589.992188 Z M 126.414062 110 " clip-rule="nonzero"/></clipPath></defs><rect x="-81" width="972" fill="#ffffff" y="-80.999999" height="971.999992" fill-opacity="1"/><rect x="-81" width="972" fill="#ffffff" y="-80.999999" height="971.999992" fill-opacity="1"/><g clip-path="url(#095de1c870)"><path fill="#2d80f6" d="M 605.730469 350.390625 C 605.730469 354.3125 605.632812 358.234375 605.441406 362.152344 C 605.246094 366.070312 604.960938 369.980469 604.574219 373.882812 C 604.191406 377.785156 603.710938 381.675781 603.136719 385.558594 C 602.558594 389.4375 601.890625 393.300781 601.125 397.148438 C 600.359375 400.992188 599.5 404.820312 598.546875 408.625 C 597.59375 412.429688 596.546875 416.207031 595.410156 419.960938 C 594.269531 423.714844 593.039062 427.4375 591.71875 431.128906 C 590.398438 434.824219 588.988281 438.480469 587.484375 442.105469 C 585.984375 445.730469 584.394531 449.3125 582.71875 452.859375 C 581.042969 456.40625 579.277344 459.90625 577.429688 463.367188 C 575.582031 466.824219 573.648438 470.238281 571.632812 473.601562 C 569.617188 476.964844 567.519531 480.277344 565.339844 483.539062 C 563.160156 486.800781 560.902344 490.003906 558.566406 493.15625 C 556.230469 496.304688 553.816406 499.398438 551.328125 502.429688 C 548.839844 505.460938 546.28125 508.429688 543.644531 511.335938 C 541.011719 514.242188 538.308594 517.082031 535.535156 519.855469 C 532.761719 522.628906 529.921875 525.332031 527.015625 527.964844 C 524.109375 530.601562 521.140625 533.160156 518.109375 535.648438 C 515.078125 538.136719 511.984375 540.550781 508.835938 542.886719 C 505.683594 545.222656 502.480469 547.480469 499.21875 549.660156 C 495.957031 551.839844 492.644531 553.9375 489.28125 555.953125 C 485.914062 557.96875 482.503906 559.902344 479.042969 561.75 C 475.585938 563.601562 472.082031 565.363281 468.539062 567.039062 C 464.992188 568.71875 461.40625 570.304688 457.785156 571.808594 C 454.160156 573.308594 450.503906 574.71875 446.808594 576.039062 C 443.117188 577.363281 439.394531 578.589844 435.640625 579.730469 C 431.886719 580.867188 428.109375 581.914062 424.304688 582.867188 C 420.5 583.820312 416.671875 584.679688 412.824219 585.445312 C 408.980469 586.210938 405.117188 586.878906 401.234375 587.457031 C 397.355469 588.03125 393.464844 588.511719 389.5625 588.894531 C 385.660156 589.28125 381.746094 589.570312 377.832031 589.761719 C 373.914062 589.953125 369.992188 590.050781 366.070312 590.050781 C 362.148438 590.050781 358.230469 589.953125 354.3125 589.761719 C 350.394531 589.570312 346.484375 589.28125 342.582031 588.894531 C 338.675781 588.511719 334.785156 588.03125 330.90625 587.457031 C 327.027344 586.878906 323.164062 586.210938 319.316406 585.445312 C 315.46875 584.679688 311.644531 583.820312 307.839844 582.867188 C 304.035156 581.914062 300.253906 580.867188 296.503906 579.730469 C 292.75 578.589844 289.027344 577.363281 285.332031 576.039062 C 281.640625 574.71875 277.980469 573.308594 274.359375 571.808594 C 270.734375 570.304688 267.148438 568.71875 263.605469 567.039062 C 260.058594 565.363281 256.554688 563.601562 253.097656 561.75 C 249.636719 559.902344 246.226562 557.96875 242.863281 555.953125 C 239.5 553.9375 236.183594 551.839844 232.925781 549.660156 C 229.664062 547.480469 226.457031 545.222656 223.308594 542.886719 C 220.15625 540.550781 217.066406 538.136719 214.035156 535.648438 C 211 533.160156 208.03125 530.601562 205.125 527.964844 C 202.21875 525.332031 199.378906 522.628906 196.605469 519.855469 C 193.835938 517.082031 191.128906 514.242188 188.496094 511.335938 C 185.863281 508.429688 183.300781 505.460938 180.8125 502.429688 C 178.324219 499.398438 175.914062 496.304688 173.574219 493.15625 C 171.238281 490.003906 168.980469 486.800781 166.804688 483.539062 C 164.625 480.277344 162.527344 476.964844 160.507812 473.601562 C 158.492188 470.238281 156.5625 466.824219 154.710938 463.367188 C 152.863281 459.90625 151.101562 456.40625 149.421875 452.859375 C 147.746094 449.3125 146.15625 445.730469 144.65625 442.105469 C 143.15625 438.480469 141.742188 434.824219 140.421875 431.128906 C 139.101562 427.4375 137.871094 423.714844 136.734375 419.960938 C 135.59375 416.207031 134.546875 412.429688 133.59375 408.625 C 132.640625 404.820312 131.785156 400.992188 131.019531 397.148438 C 130.253906 393.300781 129.582031 389.4375 129.007812 385.558594 C 128.433594 381.675781 127.953125 377.785156 127.566406 373.882812 C 127.183594 369.980469 126.894531 366.070312 126.703125 362.152344 C 126.507812 358.234375 126.414062 354.3125 126.414062 350.390625 C 126.414062 346.46875 126.507812 342.550781 126.703125 338.632812 C 126.894531 334.714844 127.183594 330.804688 127.566406 326.902344 C 127.953125 323 128.433594 319.105469 129.007812 315.226562 C 129.582031 311.347656 130.253906 307.484375 131.019531 303.636719 C 131.785156 299.789062 132.640625 295.964844 133.59375 292.160156 C 134.546875 288.355469 135.59375 284.578125 136.734375 280.824219 C 137.871094 277.070312 139.101562 273.347656 140.421875 269.652344 C 141.742188 265.960938 143.15625 262.300781 144.65625 258.679688 C 146.15625 255.054688 147.746094 251.472656 149.421875 247.925781 C 151.101562 244.378906 152.863281 240.878906 154.710938 237.417969 C 156.5625 233.960938 158.492188 230.546875 160.507812 227.183594 C 162.527344 223.820312 164.625 220.507812 166.804688 217.246094 C 168.980469 213.984375 171.238281 210.777344 173.574219 207.628906 C 175.914062 204.476562 178.324219 201.386719 180.8125 198.355469 C 183.300781 195.324219 185.863281 192.355469 188.496094 189.449219 C 191.128906 186.542969 193.835938 183.703125 196.605469 180.929688 C 199.378906 178.15625 202.21875 175.453125 205.125 172.816406 C 208.03125 170.183594 211 167.621094 214.035156 165.132812 C 217.066406 162.644531 220.15625 160.234375 223.308594 157.898438 C 226.457031 155.5625 229.664062 153.304688 232.925781 151.125 C 236.183594 148.945312 239.5 146.847656 242.863281 144.832031 C 246.226562 142.8125 249.636719 140.882812 253.097656 139.03125 C 256.554688 137.183594 260.058594 135.421875 263.605469 133.742188 C 267.148438 132.066406 270.734375 130.476562 274.359375 128.976562 C 277.980469 127.476562 281.640625 126.066406 285.332031 124.742188 C 289.027344 123.421875 292.75 122.191406 296.503906 121.054688 C 300.253906 119.914062 304.035156 118.871094 307.839844 117.917969 C 311.644531 116.964844 315.46875 116.105469 319.316406 115.339844 C 323.164062 114.574219 327.027344 113.902344 330.90625 113.328125 C 334.785156 112.753906 338.675781 112.273438 342.582031 111.886719 C 346.484375 111.503906 350.394531 111.214844 354.3125 111.023438 C 358.230469 110.832031 362.148438 110.734375 366.070312 110.734375 C 369.992188 110.734375 373.914062 110.832031 377.832031 111.023438 C 381.746094 111.214844 385.660156 111.503906 389.5625 111.886719 C 393.464844 112.273438 397.355469 112.753906 401.234375 113.328125 C 405.117188 113.902344 408.980469 114.574219 412.824219 115.339844 C 416.671875 116.105469 420.5 116.964844 424.304688 117.917969 C 428.109375 118.871094 431.886719 119.914062 435.640625 121.054688 C 439.394531 122.191406 443.117188 123.421875 446.808594 124.742188 C 450.503906 126.066406 454.160156 127.476562 457.785156 128.976562 C 461.40625 130.476562 464.992188 132.066406 468.539062 133.742188 C 472.082031 135.421875 475.585938 137.183594 479.042969 139.03125 C 482.503906 140.882812 485.914062 142.816406 489.28125 144.832031 C 492.644531 146.847656 495.957031 148.945312 499.21875 151.125 C 502.480469 153.304688 505.683594 155.5625 508.835938 157.898438 C 511.984375 160.234375 515.078125 162.644531 518.109375 165.132812 C 521.140625 167.621094 524.109375 170.183594 527.015625 172.816406 C 529.921875 175.453125 532.761719 178.15625 535.535156 180.929688 C 538.308594 183.703125 541.011719 186.542969 543.644531 189.449219 C 546.28125 192.355469 548.839844 195.324219 551.328125 198.355469 C 553.816406 201.386719 556.230469 204.476562 558.566406 207.628906 C 560.902344 210.777344 563.160156 213.984375 565.339844 217.246094 C 567.519531 220.507812 569.617188 223.820312 571.632812 227.183594 C 573.648438 230.546875 575.582031 233.960938 577.429688 237.417969 C 579.277344 240.878906 581.042969 244.378906 582.71875 247.925781 C 584.394531 251.472656 585.984375 255.054688 587.484375 258.679688 C 588.988281 262.300781 590.398438 265.960938 591.71875 269.652344 C 593.039062 273.347656 594.269531 277.070312 595.410156 280.824219 C 596.546875 284.578125 597.59375 288.355469 598.546875 292.160156 C 599.5 295.964844 600.359375 299.789062 601.125 303.636719 C 601.890625 307.484375 602.558594 311.347656 603.136719 315.226562 C 603.710938 319.105469 604.191406 323 604.574219 326.902344 C 604.960938 330.804688 605.246094 334.714844 605.441406 338.632812 C 605.632812 342.550781 605.730469 346.46875 605.730469 350.390625 Z M 605.730469 350.390625 " fill-opacity="1" fill-rule="nonzero"/></g><path fill="#ffffff" d="M 608.292969 146.453125 L 600.207031 136.996094 L 599.03125 136.210938 L 303.238281 376.839844 C 308.804688 375.632812 315.539062 374.679688 323.664062 374.214844 Z M 608.292969 146.453125 " fill-opacity="1" fill-rule="nonzero"/><path fill="#ffffff" d="M 266.542969 425.503906 L 232.839844 452.472656 C 232.996094 453.472656 232.921875 454.5 232.851562 455.453125 C 232.8125 455.945312 232.757812 456.675781 232.789062 457.167969 C 233.40625 457.136719 234.417969 456.914062 235.480469 456.582031 L 269.015625 429.933594 C 268.074219 428.550781 267.242188 427.078125 266.542969 425.503906 Z M 266.542969 425.503906 " fill-opacity="1" fill-rule="nonzero"/><path fill="#ffffff" d="M 613.199219 145.5 L 618.089844 152.515625 L 621.792969 149.574219 L 615.871094 141.675781 L 607.078125 131.691406 L 605.996094 130.542969 L 602.566406 133.332031 L 602.875 133.539062 C 603.039062 133.648438 603.191406 133.78125 603.320312 133.933594 L 613.070312 145.332031 C 613.113281 145.386719 613.160156 145.441406 613.199219 145.5 Z M 613.199219 145.5 " fill-opacity="1" fill-rule="nonzero"/><path fill="#ffffff" d="M 652.742188 286.875 C 629.839844 286.390625 614.207031 281.238281 585.832031 271.878906 C 578.199219 269.363281 569.550781 266.507812 559.546875 263.34375 C 546.699219 259.277344 530.710938 252.835938 512.039062 244.21875 L 412.960938 322.957031 C 418.519531 334.558594 418.074219 345.003906 411.617188 354.042969 C 410.730469 355.285156 409.898438 356.488281 409.09375 357.648438 C 397.882812 373.804688 390.40625 381.492188 343.167969 379.851562 C 314.777344 378.855469 299.164062 383.054688 291.050781 386.757812 L 284.484375 392.097656 C 287.511719 392.558594 290.550781 393.246094 292.222656 394.265625 C 297.039062 397.199219 298.648438 409.054688 296.816406 417.296875 C 295.582031 422.851562 297.527344 436.027344 298.78125 442.875 C 301.402344 444.339844 303.953125 445.832031 306.152344 447.253906 C 306.738281 431.03125 309.257812 416.578125 309.285156 416.421875 L 312.71875 417.027344 C 312.691406 417.1875 309.976562 432.773438 309.570312 449.621094 C 310.03125 449.972656 310.453125 450.3125 310.828125 450.636719 C 312.507812 452.09375 314.082031 454.019531 315.75 456.058594 C 315.769531 456.085938 315.792969 456.113281 315.816406 456.140625 C 316.503906 440.609375 318.855469 427.125 318.882812 426.976562 L 322.316406 427.582031 C 322.285156 427.738281 319.578125 443.269531 319.167969 460.085938 C 324.191406 465.601562 330.65625 470.257812 342.574219 467.976562 L 352.058594 466.152344 C 375.054688 461.710938 409.804688 455.003906 428.234375 452.652344 C 434.027344 451.914062 444.804688 451.292969 458.445312 450.507812 C 494.175781 448.457031 548.167969 445.351562 563.027344 436.816406 C 568.472656 433.6875 573.085938 430.34375 577.550781 427.105469 C 590.09375 418.007812 600.925781 410.148438 620.1875 415.855469 C 626.40625 417.699219 639.167969 422.625 649.859375 426.878906 C 656.722656 419.71875 674.488281 397.570312 679.105469 356.28125 C 683.632812 315.777344 675.5 296.457031 671.820312 290.054688 C 663.183594 288.035156 656.753906 286.957031 652.742188 286.875 Z M 652.742188 286.875 " fill-opacity="1" fill-rule="nonzero"/><path fill="#ffffff" d="M 269.019531 397.191406 C 271.742188 393.445312 274.574219 391.621094 274.636719 391.582031 C 274.707031 391.535156 274.789062 391.519531 274.859375 391.484375 C 277.804688 388.007812 279.765625 384.9375 280.113281 382.78125 C 280.71875 379.042969 280.945312 372.9375 281.1875 366.476562 C 281.660156 353.675781 282.199219 339.171875 285.71875 331.097656 C 290.503906 320.113281 289.980469 286.753906 289.976562 286.417969 C 289.972656 286.34375 289.988281 286.273438 289.992188 286.199219 C 278.4375 271.792969 255.882812 258.695312 255.648438 258.5625 L 257.824219 254.785156 C 258.808594 255.355469 281.308594 268.417969 293.375 283.453125 C 323.632812 283.246094 333.664062 264.277344 334.078125 263.464844 L 339.269531 266.074219 C 339.03125 266.546875 336 272.386719 328.710938 278.085938 C 351.472656 293.457031 372.613281 297.078125 383.816406 297.816406 C 375.261719 276.246094 377.578125 245.863281 377.691406 244.503906 L 382.03125 244.851562 C 382.007812 245.183594 379.554688 277.34375 388.605469 297.988281 C 389.621094 297.992188 390.425781 297.96875 391.015625 297.945312 L 477.691406 227.4375 C 449.46875 212.960938 424.910156 198.816406 416.082031 193.128906 C 401.929688 184.015625 386.136719 184.632812 367.796875 195.015625 C 357.5625 200.808594 315.863281 212.832031 282.355469 222.488281 C 262.449219 228.226562 245.261719 233.183594 239.652344 235.382812 C 226.800781 240.421875 225.523438 247.015625 227.621094 256.015625 C 229.71875 265 240.980469 333.089844 241.457031 335.984375 C 241.511719 336.304688 241.507812 336.632812 241.453125 336.953125 C 241.417969 337.148438 238.078125 356.589844 235.832031 376.796875 C 236.746094 377.304688 237.390625 378.265625 237.546875 379.507812 C 237.679688 380.566406 237.988281 385.03125 238.378906 390.683594 C 238.988281 399.511719 239.824219 411.605469 240.230469 413.828125 C 240.574219 415.730469 239.511719 417.859375 238.066406 419.773438 C 240.707031 418.746094 243.777344 417.109375 247.042969 415.066406 Z M 269.019531 397.191406 " fill-opacity="1" fill-rule="nonzero"/><path fill="#ffffff" d="M 329.617188 285.601562 C 332.246094 290.988281 334.949219 295.707031 336.140625 296.421875 C 337.359375 297.152344 338.167969 298.460938 338.539062 300.304688 C 339.480469 304.984375 337.492188 313.308594 335.203125 316.78125 C 334.0625 320.234375 332.664062 327.558594 335.265625 329.664062 C 337.925781 331.816406 344.164062 332.546875 348.253906 332.730469 L 383.957031 303.6875 C 372.796875 303.058594 352.289062 299.746094 329.617188 285.601562 Z M 329.617188 285.601562 " fill-opacity="1" fill-rule="nonzero"/><path fill="#ffffff" d="M 614.671875 155.234375 L 610.957031 149.902344 L 330.984375 373.9375 C 333.675781 373.886719 336.503906 373.886719 339.464844 373.945312 Z M 614.671875 155.234375 " fill-opacity="1" fill-rule="nonzero"/><path fill="#ffffff" d="M 228.503906 455.121094 C 228.542969 454.644531 228.59375 453.960938 228.570312 453.453125 C 228.234375 453.511719 227.84375 453.59375 227.535156 453.660156 C 225.363281 454.117188 221.734375 454.890625 219.542969 451.863281 C 218.5625 450.507812 218.234375 448.726562 218.238281 446.90625 L 197.15625 472.375 C 197.113281 472.96875 197.167969 473.636719 197.410156 473.910156 C 197.5625 474.078125 198.003906 474.234375 198.765625 474.246094 L 229.054688 459.699219 C 228.269531 458.253906 228.394531 456.589844 228.503906 455.121094 Z M 228.503906 455.121094 " fill-opacity="1" fill-rule="nonzero"/><path fill="#ffffff" d="M 651.222656 93.75 L 609.382812 127.789062 L 610.296875 128.753906 L 619.199219 138.859375 C 619.234375 138.902344 619.269531 138.945312 619.304688 138.992188 L 625.207031 146.859375 L 666.894531 113.730469 C 666.914062 113.714844 669.855469 111.273438 670.152344 107.492188 C 670.375 104.636719 669.058594 101.589844 666.238281 98.445312 C 658.054688 89.3125 651.898438 93.269531 651.222656 93.75 Z M 651.222656 93.75 " fill-opacity="1" fill-rule="nonzero"/><path fill="#ffffff" d="M 371.390625 373.597656 C 392.355469 371.558594 396.980469 364.910156 404.320312 354.335938 C 405.140625 353.15625 405.988281 351.929688 406.890625 350.667969 C 411.867188 343.699219 412.320312 335.824219 408.277344 326.679688 L 361.082031 364.183594 C 364.335938 367.539062 368.691406 371.722656 371.390625 373.597656 Z M 371.390625 373.597656 " fill-opacity="1" fill-rule="nonzero"/><path fill="#ffffff" d="M 349.898438 473.511719 C 352.761719 475.769531 367.9375 489.5 368.582031 490.082031 C 368.949219 490.414062 369.15625 490.882812 369.15625 491.375 C 369.15625 497.03125 368.980469 501.039062 368.714844 503.894531 C 371.835938 500.789062 377.113281 495.25 380.09375 490.445312 C 382.726562 486.195312 381.375 474.546875 379.679688 466.785156 C 370.21875 468.5625 361 470.339844 353.160156 471.855469 L 348.539062 472.746094 C 349.007812 472.925781 349.464844 473.171875 349.898438 473.511719 Z M 349.898438 473.511719 " fill-opacity="1" fill-rule="nonzero"/><path fill="#ffffff" d="M 299.402344 344.878906 C 299.148438 343.078125 298.59375 340.339844 297.636719 338.820312 C 296.996094 337.808594 293.753906 336.300781 290.390625 335.160156 C 287.886719 342.679688 287.394531 355.898438 286.992188 366.691406 C 286.753906 373.140625 286.539062 378.753906 285.976562 382.804688 C 286.566406 382.488281 287.207031 382.167969 287.882812 381.84375 L 291.671875 378.761719 C 291.457031 371.710938 291.527344 350.820312 299.402344 344.878906 Z M 299.402344 344.878906 " fill-opacity="1" fill-rule="nonzero"/><path fill="#ffffff" d="M 301.320312 336.496094 C 302.398438 338.203125 303.042969 340.550781 303.417969 342.472656 C 313.003906 336.027344 329.074219 317.808594 331.464844 314.546875 C 333.914062 311.207031 335.273438 301.382812 333.882812 300.144531 C 330.460938 298.097656 325.164062 286.625 323.082031 281.871094 C 316.484375 285.667969 307.574219 288.773438 295.808594 289.21875 C 295.828125 297.265625 295.535156 319.75 291.914062 331.066406 C 295.21875 332.183594 299.800781 334.089844 301.320312 336.496094 Z M 301.320312 336.496094 " fill-opacity="1" fill-rule="nonzero"/><path fill="#ffffff" d="M 297.621094 357.484375 C 296.433594 362.8125 295.96875 369.457031 295.96875 375.265625 L 306.820312 366.4375 Z M 297.621094 357.484375 " fill-opacity="1" fill-rule="nonzero"/><path fill="#ffffff" d="M 300.007812 478.921875 L 303.550781 452.480469 C 300.988281 450.785156 297.746094 448.914062 294.441406 447.113281 C 290.09375 445.726562 280.027344 441.902344 272.703125 434.421875 L 254.832031 448.625 C 256.65625 449.214844 259.0625 450.417969 261.023438 452.871094 C 264.171875 456.804688 276.089844 471.535156 276.089844 471.535156 C 276.34375 471.847656 276.480469 472.242188 276.476562 472.644531 C 276.445312 476.292969 276.53125 481.824219 276.824219 485.390625 C 277.664062 485.902344 280.171875 486.660156 284.171875 486.386719 C 287.238281 486.171875 294.777344 485.019531 300.007812 478.921875 Z M 300.007812 478.921875 " fill-opacity="1" fill-rule="nonzero"/><path fill="#ffffff" d="M 357.65625 366.910156 L 348.496094 374.1875 C 354.800781 374.324219 360.273438 374.28125 365.03125 374.050781 C 362.238281 371.582031 359.394531 368.714844 357.65625 366.910156 Z M 357.65625 366.910156 " fill-opacity="1" fill-rule="nonzero"/><path fill="#ffffff" d="M 306.921875 471.089844 L 311.222656 474.675781 C 312.339844 475.605469 312.890625 477.070312 312.664062 478.5 C 312.179688 481.546875 311.28125 489.160156 313.011719 495.613281 C 316.78125 496.917969 322.429688 497.761719 328.433594 494.644531 C 336.425781 490.5 337.765625 479.320312 337.957031 474.339844 C 337.554688 474.355469 337.148438 474.371094 336.757812 474.371094 C 323.210938 474.375 316.148438 465.730469 311.25 459.738281 C 310.414062 458.710938 309.605469 457.734375 308.828125 456.859375 Z M 306.921875 471.089844 " fill-opacity="1" fill-rule="nonzero"/><path fill="#ffffff" d="M 332.523438 333.054688 C 329.839844 330.878906 329.273438 327.113281 329.472656 323.582031 C 322.273438 331.644531 309.910156 344.496094 302.664062 347.949219 C 301.164062 348.664062 299.96875 350.398438 299.023438 352.765625 L 310.222656 363.671875 L 343.378906 336.699219 C 339.527344 336.207031 335.15625 335.183594 332.523438 333.054688 Z M 332.523438 333.054688 " fill-opacity="1" fill-rule="nonzero"/><path fill="#ffffff" d="M 226.632812 449.394531 C 227.664062 449.179688 228.910156 448.929688 230.03125 449.136719 L 265.03125 421.128906 C 265.015625 421.0625 264.992188 421 264.976562 420.929688 C 263.960938 416.695312 263.804688 412.949219 264.183594 409.664062 C 259.972656 413.089844 255.589844 416.292969 251.453125 418.96875 L 223.492188 441.714844 C 222.679688 444.476562 222.132812 448.007812 223.070312 449.304688 C 223.523438 449.929688 224.578125 449.832031 226.632812 449.394531 Z M 226.632812 449.394531 " fill-opacity="1" fill-rule="nonzero"/><path fill="#ffffff" d="M 347.738281 476.246094 C 346.453125 475.234375 343.84375 476.421875 342.566406 477.164062 L 341.410156 482.484375 C 350.707031 493.015625 361.046875 504.097656 364.777344 507.210938 C 365.3125 504.394531 365.640625 497.925781 365.667969 492.148438 C 362.8125 489.566406 350.203125 478.195312 347.738281 476.246094 Z M 347.738281 476.246094 " fill-opacity="1" fill-rule="nonzero"/><path fill="#ffffff" d="M 309.410156 495.609375 C 307.816406 488.726562 308.722656 481.082031 309.222656 477.953125 C 309.257812 477.726562 309.171875 477.503906 308.992188 477.351562 L 306.375 475.171875 L 305.65625 480.515625 C 305.585938 481.03125 305.378906 481.523438 305.054688 481.933594 C 304.039062 483.21875 302.941406 484.324219 301.804688 485.3125 L 306.171875 494.039062 Z M 309.410156 495.609375 " fill-opacity="1" fill-rule="nonzero"/><path fill="#000000" d="M 577.550781 427.105469 C 573.085938 430.34375 568.472656 433.6875 563.027344 436.816406 C 548.167969 445.351562 494.175781 448.457031 458.445312 450.507812 C 444.804688 451.292969 434.027344 451.914062 428.234375 452.652344 C 409.804688 455.003906 375.054688 461.710938 352.058594 466.152344 L 342.574219 467.976562 C 330.65625 470.257812 324.1875 465.601562 319.167969 460.085938 C 319.578125 443.269531 322.285156 427.738281 322.316406 427.582031 L 318.882812 426.976562 C 318.855469 427.125 316.503906 440.609375 315.816406 456.140625 C 315.792969 456.113281 315.769531 456.085938 315.75 456.058594 C 314.082031 454.019531 312.507812 452.09375 310.828125 450.636719 C 310.453125 450.3125 310.03125 449.972656 309.570312 449.621094 C 309.976562 432.773438 312.691406 417.1875 312.71875 417.027344 L 309.285156 416.421875 C 309.257812 416.578125 306.738281 431.03125 306.152344 447.253906 C 303.953125 445.832031 301.402344 444.339844 298.78125 442.875 C 297.527344 436.027344 295.582031 422.851562 296.816406 417.296875 C 298.648438 409.054688 297.039062 397.199219 292.222656 394.265625 C 290.550781 393.246094 287.511719 392.558594 284.484375 392.097656 L 291.050781 386.757812 C 299.164062 383.054688 314.777344 378.855469 343.167969 379.851562 C 390.40625 381.492188 397.882812 373.808594 409.09375 357.648438 C 409.898438 356.488281 410.730469 355.285156 411.617188 354.042969 C 418.074219 345.003906 418.519531 334.558594 412.960938 322.957031 L 512.039062 244.21875 C 530.710938 252.835938 546.699219 259.277344 559.546875 263.34375 C 569.546875 266.507812 578.199219 269.363281 585.832031 271.878906 C 614.207031 281.238281 629.835938 286.390625 652.742188 286.875 C 656.753906 286.957031 663.183594 288.035156 671.820312 290.054688 C 672.085938 290.117188 672.335938 290.171875 672.605469 290.234375 L 673.949219 284.582031 C 664.371094 282.3125 657.472656 281.160156 652.867188 281.066406 C 630.832031 280.601562 616.398438 275.84375 587.652344 266.359375 C 580.003906 263.839844 571.335938 260.980469 561.300781 257.804688 C 549.300781 254.007812 534.4375 248.058594 517.140625 240.164062 L 670.503906 118.28125 C 670.703125 118.125 675.394531 114.347656 675.933594 108.046875 C 676.324219 103.515625 674.515625 98.976562 670.5625 94.570312 C 660.96875 83.863281 651.449219 86.304688 647.671875 89.15625 L 482.617188 223.429688 C 453.625 208.648438 428.191406 194.019531 419.226562 188.246094 C 403.089844 177.851562 385.332031 178.414062 364.933594 189.960938 C 355.296875 195.414062 313.960938 207.332031 280.746094 216.90625 C 260.703125 222.6875 243.390625 227.675781 237.53125 229.976562 C 219.707031 236.964844 219.847656 248.269531 221.964844 257.335938 C 223.929688 265.753906 234.613281 330.207031 235.644531 336.449219 C 235.109375 339.613281 232.109375 357.632812 230.042969 376.273438 C 229.101562 384.773438 228.523438 391.757812 228.226562 397.527344 C 227.578125 407.488281 227.460938 419.257812 229.835938 424.632812 C 230.054688 425.125 230.484375 425.488281 231.007812 425.617188 C 231.148438 425.652344 231.289062 425.671875 231.429688 425.671875 C 231.769531 425.671875 232.097656 425.554688 232.382812 425.367188 C 232.753906 425.640625 233.136719 425.878906 233.546875 426.046875 L 216.660156 439.78125 C 216.515625 439.902344 216.378906 440.035156 216.257812 440.183594 L 185.988281 476.753906 C 184.550781 478.488281 184.519531 480.941406 185.90625 482.71875 C 186.835938 483.90625 188.21875 484.550781 189.640625 484.550781 C 190.339844 484.550781 191.046875 484.394531 191.714844 484.074219 L 200.265625 479.96875 C 200.332031 479.960938 200.386719 479.964844 200.453125 479.957031 L 200.441406 479.882812 L 238.199219 461.75 C 238.394531 461.65625 238.578125 461.542969 238.75 461.40625 L 249.660156 452.734375 C 255.429688 462.632812 269.445312 486.433594 272.574219 489.425781 C 274.472656 491.238281 278.089844 492.253906 282.484375 492.253906 C 283.164062 492.253906 283.863281 492.230469 284.574219 492.179688 C 287.421875 491.984375 293.375 491.105469 298.976562 487.449219 L 303.320312 496.128906 C 303.464844 496.425781 303.703125 496.65625 303.984375 496.824219 L 304.042969 496.953125 C 304.257812 497.40625 304.582031 497.800781 304.992188 498.089844 C 305.347656 498.34375 311.460938 502.605469 319.804688 502.605469 C 323.273438 502.605469 327.125 501.867188 331.109375 499.804688 C 336.375 497.074219 339.464844 492.378906 341.273438 487.59375 C 359.902344 508.570312 364.050781 511.445312 365.65625 511.445312 C 365.96875 511.445312 366.183594 511.335938 366.394531 511.230469 C 366.503906 511.175781 366.628906 511.113281 366.765625 511.011719 C 367.199219 511.25 367.679688 511.378906 368.164062 511.378906 C 368.871094 511.378906 369.578125 511.121094 370.132812 510.605469 C 370.542969 510.226562 380.226562 501.25 385.03125 493.507812 C 389.277344 486.652344 386.734375 471.921875 385.390625 465.714844 C 401.777344 462.671875 418.21875 459.789062 428.96875 458.414062 C 434.5625 457.699219 445.785156 457.054688 458.777344 456.308594 C 497.222656 454.097656 549.875 451.074219 565.917969 441.855469 C 571.632812 438.574219 576.589844 434.980469 580.960938 431.808594 C 593.1875 422.9375 602.027344 416.535156 618.535156 421.425781 C 623.796875 422.984375 634.996094 427.179688 650.921875 433.558594 L 653.082031 428.164062 C 652.039062 427.746094 650.957031 427.316406 649.859375 426.878906 C 639.167969 422.625 626.40625 417.699219 620.1875 415.855469 C 600.925781 410.148438 590.09375 418.007812 577.550781 427.105469 Z M 353.160156 471.855469 C 361 470.339844 370.21875 468.5625 379.679688 466.785156 C 381.375 474.546875 382.726562 486.195312 380.09375 490.445312 C 377.113281 495.25 371.835938 500.789062 368.714844 503.894531 C 368.980469 501.039062 369.15625 497.03125 369.15625 491.375 C 369.15625 490.882812 368.949219 490.414062 368.582031 490.082031 C 367.9375 489.5 352.761719 475.769531 349.898438 473.511719 C 349.464844 473.167969 349.007812 472.925781 348.539062 472.746094 Z M 364.777344 507.210938 C 361.046875 504.097656 350.707031 493.015625 341.410156 482.484375 L 342.566406 477.164062 C 343.84375 476.421875 346.453125 475.234375 347.738281 476.246094 C 350.203125 478.195312 362.8125 489.566406 365.667969 492.148438 C 365.640625 497.925781 365.3125 504.394531 364.777344 507.210938 Z M 311.25 459.738281 C 316.148438 465.730469 323.210938 474.375 336.757812 474.371094 C 337.148438 474.371094 337.554688 474.355469 337.957031 474.339844 C 337.765625 479.320312 336.425781 490.5 328.433594 494.644531 C 322.429688 497.761719 316.78125 496.917969 313.011719 495.613281 C 311.28125 489.160156 312.179688 481.542969 312.664062 478.5 C 312.890625 477.070312 312.339844 475.601562 311.222656 474.671875 L 306.921875 471.089844 L 308.828125 456.859375 C 309.605469 457.734375 310.414062 458.710938 311.25 459.738281 Z M 276.824219 485.390625 C 276.53125 481.824219 276.445312 476.292969 276.476562 472.644531 C 276.480469 472.242188 276.34375 471.847656 276.089844 471.535156 C 276.089844 471.535156 264.171875 456.804688 261.023438 452.871094 C 259.0625 450.417969 256.65625 449.214844 254.832031 448.625 L 272.703125 434.421875 C 280.027344 441.902344 290.09375 445.726562 294.441406 447.113281 C 297.746094 448.914062 300.988281 450.789062 303.550781 452.480469 L 300.007812 478.921875 C 294.777344 485.019531 287.238281 486.171875 284.171875 486.386719 C 280.171875 486.660156 277.664062 485.902344 276.824219 485.390625 Z M 233.269531 381.527344 C 233.394531 380.613281 233.816406 380.148438 234.089844 379.972656 C 234.214844 381 234.53125 385.601562 234.902344 390.925781 C 235.550781 400.332031 236.359375 412.039062 236.800781 414.453125 C 237.035156 415.738281 234.875 418.511719 232.277344 420.914062 C 229.585938 409.632812 233.226562 381.859375 233.269531 381.527344 Z M 240.230469 413.828125 C 239.824219 411.605469 238.988281 399.511719 238.378906 390.683594 C 237.988281 385.03125 237.679688 380.566406 237.546875 379.507812 C 237.390625 378.265625 236.746094 377.304688 235.832031 376.796875 C 238.078125 356.589844 241.417969 337.148438 241.453125 336.953125 C 241.507812 336.632812 241.511719 336.304688 241.457031 335.984375 C 240.980469 333.089844 229.71875 265 227.621094 256.015625 C 225.523438 247.015625 226.800781 240.421875 239.652344 235.382812 C 245.261719 233.183594 262.449219 228.226562 282.355469 222.492188 C 315.863281 212.832031 357.5625 200.808594 367.796875 195.015625 C 386.136719 184.632812 401.929688 184.015625 416.082031 193.132812 C 424.910156 198.816406 449.46875 212.960938 477.691406 227.4375 L 391.015625 297.945312 C 390.425781 297.96875 389.621094 297.992188 388.605469 297.988281 C 379.554688 277.34375 382.007812 245.183594 382.03125 244.851562 L 377.691406 244.503906 C 377.578125 245.863281 375.261719 276.246094 383.816406 297.816406 C 372.613281 297.078125 351.472656 293.457031 328.710938 278.085938 C 336 272.386719 339.03125 266.546875 339.269531 266.074219 L 334.078125 263.464844 C 333.664062 264.277344 323.632812 283.246094 293.375 283.453125 C 281.308594 268.417969 258.808594 255.355469 257.824219 254.789062 L 255.648438 258.5625 C 255.882812 258.699219 278.4375 271.792969 289.992188 286.199219 C 289.988281 286.273438 289.972656 286.34375 289.976562 286.417969 C 289.980469 286.753906 290.503906 320.113281 285.71875 331.097656 C 282.199219 339.171875 281.660156 353.675781 281.1875 366.476562 C 280.945312 372.941406 280.71875 379.042969 280.113281 382.785156 C 279.765625 384.9375 277.804688 388.011719 274.859375 391.484375 C 274.789062 391.519531 274.707031 391.539062 274.636719 391.582031 C 274.574219 391.621094 271.742188 393.445312 269.019531 397.191406 L 247.042969 415.066406 C 243.78125 417.109375 240.707031 418.746094 238.066406 419.773438 C 239.511719 417.859375 240.578125 415.730469 240.230469 413.828125 Z M 666.238281 98.445312 C 669.058594 101.589844 670.375 104.636719 670.148438 107.492188 C 669.855469 111.273438 666.914062 113.714844 666.894531 113.730469 L 625.207031 146.859375 L 619.304688 138.992188 C 619.269531 138.945312 619.234375 138.902344 619.199219 138.859375 L 610.296875 128.753906 L 609.382812 127.789062 L 651.222656 93.75 C 651.898438 93.269531 658.054688 89.3125 666.238281 98.445312 Z M 603.320312 133.933594 C 603.191406 133.78125 603.039062 133.648438 602.875 133.539062 L 602.566406 133.332031 L 605.996094 130.542969 L 607.078125 131.691406 L 615.871094 141.675781 L 621.792969 149.574219 L 618.089844 152.515625 L 613.199219 145.503906 C 613.160156 145.441406 613.117188 145.386719 613.070312 145.332031 Z M 292.5625 416.351562 C 291.136719 422.757812 293.144531 436.015625 294.277344 442.4375 C 287.472656 440.007812 272.40625 433.21875 269.214844 419.914062 C 265.609375 404.902344 274.128906 397.359375 276.421875 395.644531 C 280.875 395.917969 287.90625 396.738281 289.957031 397.988281 C 292.175781 399.339844 294.3125 408.480469 292.5625 416.351562 Z M 235.480469 456.582031 C 234.417969 456.914062 233.40625 457.136719 232.789062 457.167969 C 232.757812 456.675781 232.8125 455.945312 232.851562 455.453125 C 232.921875 454.5 232.996094 453.472656 232.839844 452.472656 L 266.542969 425.503906 C 267.242188 427.078125 268.074219 428.550781 269.015625 429.933594 Z M 223.492188 441.714844 L 251.453125 418.96875 C 255.589844 416.292969 259.972656 413.089844 264.183594 409.664062 C 263.804688 412.949219 263.960938 416.695312 264.976562 420.929688 C 264.992188 421 265.015625 421.0625 265.03125 421.128906 L 230.03125 449.136719 C 228.910156 448.929688 227.664062 449.179688 226.632812 449.394531 C 224.578125 449.832031 223.523438 449.929688 223.070312 449.304688 C 222.132812 448.007812 222.679688 444.476562 223.492188 441.714844 Z M 285.976562 382.804688 C 286.539062 378.753906 286.753906 373.140625 286.992188 366.691406 C 287.394531 355.898438 287.886719 342.679688 290.390625 335.160156 C 293.753906 336.300781 296.996094 337.808594 297.636719 338.820312 C 298.59375 340.339844 299.148438 343.078125 299.402344 344.878906 C 291.527344 350.820312 291.457031 371.710938 291.671875 378.761719 L 287.882812 381.84375 C 287.207031 382.167969 286.566406 382.488281 285.976562 382.804688 Z M 295.808594 289.21875 C 307.574219 288.773438 316.480469 285.667969 323.082031 281.871094 C 325.164062 286.625 330.460938 298.097656 333.882812 300.144531 C 335.273438 301.382812 333.914062 311.207031 331.464844 314.550781 C 329.074219 317.808594 313.003906 336.027344 303.417969 342.472656 C 303.042969 340.550781 302.398438 338.203125 301.320312 336.496094 C 299.800781 334.089844 295.21875 332.183594 291.914062 331.066406 C 295.535156 319.75 295.828125 297.265625 295.808594 289.21875 Z M 297.621094 357.484375 L 306.820312 366.4375 L 295.96875 375.265625 C 295.96875 369.457031 296.433594 362.8125 297.621094 357.484375 Z M 310.222656 363.671875 L 299.023438 352.765625 C 299.96875 350.398438 301.164062 348.664062 302.664062 347.949219 C 309.910156 344.496094 322.269531 331.644531 329.472656 323.582031 C 329.273438 327.113281 329.839844 330.878906 332.523438 333.054688 C 335.15625 335.183594 339.527344 336.207031 343.378906 336.699219 Z M 348.253906 332.730469 C 344.164062 332.546875 337.925781 331.816406 335.265625 329.664062 C 332.664062 327.558594 334.0625 320.234375 335.203125 316.78125 C 337.492188 313.308594 339.480469 304.984375 338.539062 300.304688 C 338.167969 298.460938 337.359375 297.152344 336.140625 296.421875 C 334.949219 295.707031 332.246094 290.988281 329.617188 285.601562 C 352.289062 299.746094 372.796875 303.058594 383.957031 303.6875 Z M 198.765625 474.242188 C 198.003906 474.234375 197.5625 474.078125 197.414062 473.910156 C 197.167969 473.636719 197.113281 472.96875 197.15625 472.375 L 218.238281 446.90625 C 218.234375 448.726562 218.5625 450.507812 219.542969 451.863281 C 221.734375 454.890625 225.363281 454.117188 227.535156 453.660156 C 227.84375 453.59375 228.234375 453.511719 228.570312 453.453125 C 228.59375 453.960938 228.542969 454.644531 228.503906 455.121094 C 228.394531 456.589844 228.269531 458.253906 229.054688 459.699219 Z M 273.160156 482.734375 C 267.367188 474.042969 256.527344 457.070312 253.488281 451.84375 C 254.816406 452.234375 256.746094 453.105469 258.300781 455.046875 C 261.109375 458.558594 270.902344 470.664062 272.988281 473.242188 C 272.976562 475.074219 272.984375 479.066406 273.160156 482.734375 Z M 305.054688 481.933594 C 305.378906 481.523438 305.585938 481.03125 305.65625 480.515625 L 306.375 475.171875 L 308.992188 477.351562 C 309.171875 477.503906 309.257812 477.726562 309.222656 477.949219 C 308.722656 481.082031 307.816406 488.726562 309.410156 495.609375 L 306.171875 494.039062 L 301.804688 485.3125 C 302.941406 484.324219 304.039062 483.21875 305.054688 481.933594 Z M 599.03125 136.210938 L 600.207031 136.996094 L 608.292969 146.453125 L 323.664062 374.214844 C 315.539062 374.679688 308.804688 375.632812 303.238281 376.839844 Z M 330.984375 373.9375 L 610.957031 149.902344 L 614.671875 155.234375 L 339.464844 373.945312 C 336.5 373.886719 333.675781 373.886719 330.984375 373.9375 Z M 348.496094 374.1875 L 357.65625 366.910156 C 359.394531 368.714844 362.238281 371.582031 365.03125 374.050781 C 360.273438 374.28125 354.800781 374.324219 348.496094 374.1875 Z M 406.890625 350.667969 C 405.988281 351.929688 405.140625 353.15625 404.320312 354.335938 C 396.980469 364.914062 392.355469 371.558594 371.390625 373.597656 C 368.691406 371.722656 364.335938 367.539062 361.082031 364.183594 L 408.277344 326.679688 C 412.320312 335.824219 411.867188 343.699219 406.890625 350.667969 Z M 406.890625 350.667969 " fill-opacity="1" fill-rule="nonzero"/><path fill="#ffffff" d="M 272.988281 473.242188 C 270.902344 470.664062 261.109375 458.558594 258.300781 455.046875 C 256.746094 453.105469 254.816406 452.234375 253.488281 451.84375 C 256.527344 457.070312 267.367188 474.042969 273.160156 482.734375 C 272.984375 479.066406 272.976562 475.074219 272.988281 473.242188 Z M 272.988281 473.242188 " fill-opacity="1" fill-rule="nonzero"/><path fill="#ffffff" d="M 276.421875 395.644531 C 274.128906 397.359375 265.609375 404.902344 269.210938 419.914062 C 272.40625 433.21875 287.472656 440.007812 294.277344 442.4375 C 293.144531 436.015625 291.136719 422.757812 292.5625 416.351562 C 294.3125 408.480469 292.175781 399.339844 289.957031 397.988281 C 287.90625 396.738281 280.875 395.917969 276.421875 395.644531 Z M 276.421875 395.644531 " fill-opacity="1" fill-rule="nonzero"/><path fill="#ffffff" d="M 232.277344 420.914062 C 234.878906 418.511719 237.035156 415.742188 236.800781 414.453125 C 236.363281 412.039062 235.550781 400.332031 234.902344 390.925781 C 234.53125 385.601562 234.214844 381 234.089844 379.972656 C 233.816406 380.148438 233.394531 380.613281 233.269531 381.53125 C 233.226562 381.859375 229.585938 409.632812 232.277344 420.914062 Z M 232.277344 420.914062 " fill-opacity="1" fill-rule="nonzero"/><g fill="#474545" fill-opacity="1"><g transform="translate(146.560544, 699.473193)"><g><path d="M 31 -53.390625 L 52.546875 0 L 39.484375 0 L 35.53125 -10.671875 L 15.203125 -10.671875 L 11.265625 0 L -1.8125 0 L 19.734375 -53.390625 Z M 31.390625 -21.359375 L 25.4375 -36.890625 L 25.3125 -36.890625 L 19.34375 -21.359375 Z M 31.390625 -21.359375 "/></g></g></g><g fill="#474545" fill-opacity="1"><g transform="translate(197.303061, 699.473193)"><g><path d="M 3.890625 0 L 3.890625 -33.203125 L 15.34375 -33.203125 L 15.34375 -29.703125 L 15.46875 -29.703125 C 18.445312 -32.679688 21.617188 -34.171875 24.984375 -34.171875 C 26.617188 -34.171875 28.242188 -33.953125 29.859375 -33.515625 C 31.484375 -33.085938 33.039062 -32.421875 34.53125 -31.515625 C 36.019531 -30.609375 37.226562 -29.320312 38.15625 -27.65625 C 39.082031 -26 39.546875 -24.070312 39.546875 -21.875 L 39.546875 0 L 28.09375 0 L 28.09375 -18.765625 C 28.09375 -20.492188 27.539062 -22.003906 26.4375 -23.296875 C 25.332031 -24.585938 23.898438 -25.234375 22.140625 -25.234375 C 20.410156 -25.234375 18.84375 -24.566406 17.4375 -23.234375 C 16.039062 -21.898438 15.34375 -20.410156 15.34375 -18.765625 L 15.34375 0 Z M 3.890625 0 "/></g></g></g><g fill="#474545" fill-opacity="1"><g transform="translate(240.08469, 699.473193)"><g><path d="M 18.3125 -34.171875 C 20.207031 -34.171875 22.082031 -33.953125 23.9375 -33.515625 C 25.800781 -33.085938 27.1875 -32.660156 28.09375 -32.234375 L 29.453125 -31.578125 L 25.6875 -24.078125 C 23.101562 -25.453125 20.644531 -26.140625 18.3125 -26.140625 C 17.019531 -26.140625 16.101562 -26 15.5625 -25.71875 C 15.019531 -25.445312 14.75 -24.921875 14.75 -24.140625 C 14.75 -23.960938 14.769531 -23.785156 14.8125 -23.609375 C 14.863281 -23.441406 14.953125 -23.28125 15.078125 -23.125 C 15.210938 -22.976562 15.332031 -22.851562 15.4375 -22.75 C 15.539062 -22.644531 15.722656 -22.523438 15.984375 -22.390625 C 16.242188 -22.265625 16.445312 -22.164062 16.59375 -22.09375 C 16.75 -22.03125 17 -21.929688 17.34375 -21.796875 C 17.6875 -21.671875 17.941406 -21.578125 18.109375 -21.515625 C 18.285156 -21.453125 18.578125 -21.351562 18.984375 -21.21875 C 19.398438 -21.09375 19.71875 -21.007812 19.9375 -20.96875 C 21.269531 -20.582031 22.429688 -20.148438 23.421875 -19.671875 C 24.421875 -19.203125 25.46875 -18.554688 26.5625 -17.734375 C 27.664062 -16.910156 28.519531 -15.875 29.125 -14.625 C 29.726562 -13.375 30.03125 -11.953125 30.03125 -10.359375 C 30.03125 -2.804688 24.785156 0.96875 14.296875 0.96875 C 11.929688 0.96875 9.679688 0.601562 7.546875 -0.125 C 5.410156 -0.863281 3.863281 -1.597656 2.90625 -2.328125 L 1.484375 -3.5 L 6.140625 -11.328125 C 6.492188 -11.023438 6.945312 -10.664062 7.5 -10.25 C 8.0625 -9.84375 9.078125 -9.28125 10.546875 -8.5625 C 12.015625 -7.851562 13.289062 -7.5 14.375 -7.5 C 16.738281 -7.5 17.921875 -8.300781 17.921875 -9.90625 C 17.921875 -10.632812 17.617188 -11.203125 17.015625 -11.609375 C 16.410156 -12.023438 15.382812 -12.488281 13.9375 -13 C 12.5 -13.519531 11.367188 -14 10.546875 -14.4375 C 8.472656 -15.507812 6.832031 -16.722656 5.625 -18.078125 C 4.414062 -19.441406 3.8125 -21.25 3.8125 -23.5 C 3.8125 -26.863281 5.117188 -29.484375 7.734375 -31.359375 C 10.347656 -33.234375 13.875 -34.171875 18.3125 -34.171875 Z M 18.3125 -34.171875 "/></g></g></g><g fill="#474545" fill-opacity="1"><g transform="translate(271.928206, 699.473193)"><g><path d="M 24.265625 0 L 16.5 0 L -1.296875 -33.203125 L 11.90625 -33.203125 L 20 -15.28125 L 27.953125 -33.203125 L 35.859375 -33.203125 L 43.8125 -15.28125 L 51.90625 -33.203125 L 65.109375 -33.203125 L 47.3125 0 L 39.546875 0 L 31.90625 -17.15625 Z M 24.265625 0 "/></g></g></g><g fill="#474545" fill-opacity="1"><g transform="translate(335.744681, 699.473193)"><g><path d="M 37.46875 -15.015625 L 13.390625 -15.015625 C 13.390625 -12.679688 14.144531 -10.953125 15.65625 -9.828125 C 17.164062 -8.710938 18.804688 -8.15625 20.578125 -8.15625 C 22.429688 -8.15625 23.894531 -8.398438 24.96875 -8.890625 C 26.050781 -9.390625 27.285156 -10.375 28.671875 -11.84375 L 36.953125 -7.703125 C 33.503906 -1.921875 27.765625 0.96875 19.734375 0.96875 C 14.734375 0.96875 10.441406 -0.742188 6.859375 -4.171875 C 3.273438 -7.597656 1.484375 -11.726562 1.484375 -16.5625 C 1.484375 -21.394531 3.273438 -25.535156 6.859375 -28.984375 C 10.441406 -32.441406 14.734375 -34.171875 19.734375 -34.171875 C 25.003906 -34.171875 29.285156 -32.648438 32.578125 -29.609375 C 35.878906 -26.566406 37.53125 -22.21875 37.53125 -16.5625 C 37.53125 -15.789062 37.507812 -15.273438 37.46875 -15.015625 Z M 13.71875 -21.359375 L 26.34375 -21.359375 C 26.082031 -23.085938 25.398438 -24.414062 24.296875 -25.34375 C 23.203125 -26.269531 21.789062 -26.734375 20.0625 -26.734375 C 18.164062 -26.734375 16.65625 -26.234375 15.53125 -25.234375 C 14.40625 -24.242188 13.800781 -22.953125 13.71875 -21.359375 Z M 13.71875 -21.359375 "/></g></g></g><g fill="#474545" fill-opacity="1"><g transform="translate(374.772408, 699.473193)"><g><path d="M 3.890625 0 L 3.890625 -33.203125 L 15.34375 -33.203125 L 15.34375 -28.40625 L 15.46875 -28.40625 C 15.550781 -28.582031 15.6875 -28.800781 15.875 -29.0625 C 16.070312 -29.320312 16.492188 -29.773438 17.140625 -30.421875 C 17.796875 -31.066406 18.488281 -31.644531 19.21875 -32.15625 C 19.957031 -32.675781 20.90625 -33.140625 22.0625 -33.546875 C 23.226562 -33.960938 24.414062 -34.171875 25.625 -34.171875 C 26.875 -34.171875 28.101562 -34 29.3125 -33.65625 C 30.519531 -33.3125 31.40625 -32.96875 31.96875 -32.625 L 32.875 -32.09375 L 28.09375 -22.390625 C 26.664062 -23.597656 24.679688 -24.203125 22.140625 -24.203125 C 20.753906 -24.203125 19.5625 -23.898438 18.5625 -23.296875 C 17.570312 -22.691406 16.875 -21.957031 16.46875 -21.09375 C 16.0625 -20.226562 15.769531 -19.492188 15.59375 -18.890625 C 15.425781 -18.285156 15.34375 -17.8125 15.34375 -17.46875 L 15.34375 0 Z M 3.890625 0 "/></g></g></g><g fill="#474545" fill-opacity="1"><g transform="translate(407.004256, 699.473193)"><g><path d="M 44.84375 0 L 36.3125 -29.96875 L 27.765625 0 L 14.234375 0 L -0.96875 -53.390625 L 12.5625 -53.390625 L 21.6875 -16.765625 L 22 -16.765625 L 31.71875 -53.390625 L 40.90625 -53.390625 L 50.609375 -16.765625 L 50.9375 -16.765625 L 60.0625 -53.390625 L 73.515625 -53.390625 L 58.3125 0 Z M 44.84375 0 "/></g></g></g><g fill="#474545" fill-opacity="1"><g transform="translate(479.558284, 699.473193)"><g><path d="M 3.890625 0 L 3.890625 -33.203125 L 15.34375 -33.203125 L 15.34375 -28.40625 L 15.46875 -28.40625 C 15.550781 -28.582031 15.6875 -28.800781 15.875 -29.0625 C 16.070312 -29.320312 16.492188 -29.773438 17.140625 -30.421875 C 17.796875 -31.066406 18.488281 -31.644531 19.21875 -32.15625 C 19.957031 -32.675781 20.90625 -33.140625 22.0625 -33.546875 C 23.226562 -33.960938 24.414062 -34.171875 25.625 -34.171875 C 26.875 -34.171875 28.101562 -34 29.3125 -33.65625 C 30.519531 -33.3125 31.40625 -32.96875 31.96875 -32.625 L 32.875 -32.09375 L 28.09375 -22.390625 C 26.664062 -23.597656 24.679688 -24.203125 22.140625 -24.203125 C 20.753906 -24.203125 19.5625 -23.898438 18.5625 -23.296875 C 17.570312 -22.691406 16.875 -21.957031 16.46875 -21.09375 C 16.0625 -20.226562 15.769531 -19.492188 15.59375 -18.890625 C 15.425781 -18.285156 15.34375 -17.8125 15.34375 -17.46875 L 15.34375 0 Z M 3.890625 0 "/></g></g></g><g fill="#474545" fill-opacity="1"><g transform="translate(511.790132, 699.473193)"><g><path d="M 4.984375 -51.703125 C 6.316406 -53.046875 7.910156 -53.71875 9.765625 -53.71875 C 11.628906 -53.71875 13.226562 -53.046875 14.5625 -51.703125 C 15.894531 -50.367188 16.5625 -48.773438 16.5625 -46.921875 C 16.5625 -45.066406 15.894531 -43.46875 14.5625 -42.125 C 13.226562 -40.789062 11.628906 -40.125 9.765625 -40.125 C 7.910156 -40.125 6.316406 -40.789062 4.984375 -42.125 C 3.648438 -43.46875 2.984375 -45.066406 2.984375 -46.921875 C 2.984375 -48.773438 3.648438 -50.367188 4.984375 -51.703125 Z M 3.890625 -33.203125 L 3.890625 0 L 15.34375 0 L 15.34375 -33.203125 Z M 3.890625 -33.203125 "/></g></g></g><g fill="#474545" fill-opacity="1"><g transform="translate(531.336342, 699.473193)"><g><path d="M 5.828125 -33.203125 L 5.828125 -45.5625 L 17.28125 -45.5625 L 17.28125 -33.203125 L 24.265625 -33.203125 L 24.265625 -24.46875 L 17.28125 -24.46875 L 17.28125 -13.921875 C 17.28125 -10.847656 18.144531 -9.3125 19.875 -9.3125 C 20.300781 -9.3125 20.75 -9.398438 21.21875 -9.578125 C 21.695312 -9.753906 22.066406 -9.925781 22.328125 -10.09375 L 22.71875 -10.359375 L 25.5625 -1.09375 C 23.101562 0.28125 20.300781 0.96875 17.15625 0.96875 C 15 0.96875 13.140625 0.59375 11.578125 -0.15625 C 10.023438 -0.914062 8.847656 -1.929688 8.046875 -3.203125 C 7.253906 -4.472656 6.6875 -5.804688 6.34375 -7.203125 C 6 -8.609375 5.828125 -10.113281 5.828125 -11.71875 L 5.828125 -24.46875 L 1.03125 -24.46875 L 1.03125 -33.203125 Z M 5.828125 -33.203125 "/></g></g></g><g fill="#474545" fill-opacity="1"><g transform="translate(556.901755, 699.473193)"><g><path d="M 4.984375 -51.703125 C 6.316406 -53.046875 7.910156 -53.71875 9.765625 -53.71875 C 11.628906 -53.71875 13.226562 -53.046875 14.5625 -51.703125 C 15.894531 -50.367188 16.5625 -48.773438 16.5625 -46.921875 C 16.5625 -45.066406 15.894531 -43.46875 14.5625 -42.125 C 13.226562 -40.789062 11.628906 -40.125 9.765625 -40.125 C 7.910156 -40.125 6.316406 -40.789062 4.984375 -42.125 C 3.648438 -43.46875 2.984375 -45.066406 2.984375 -46.921875 C 2.984375 -48.773438 3.648438 -50.367188 4.984375 -51.703125 Z M 3.890625 -33.203125 L 3.890625 0 L 15.34375 0 L 15.34375 -33.203125 Z M 3.890625 -33.203125 "/></g></g></g><g fill="#474545" fill-opacity="1"><g transform="translate(576.447989, 699.473193)"><g><path d="M 3.890625 0 L 3.890625 -33.203125 L 15.34375 -33.203125 L 15.34375 -29.703125 L 15.46875 -29.703125 C 18.445312 -32.679688 21.617188 -34.171875 24.984375 -34.171875 C 26.617188 -34.171875 28.242188 -33.953125 29.859375 -33.515625 C 31.484375 -33.085938 33.039062 -32.421875 34.53125 -31.515625 C 36.019531 -30.609375 37.226562 -29.320312 38.15625 -27.65625 C 39.082031 -26 39.546875 -24.070312 39.546875 -21.875 L 39.546875 0 L 28.09375 0 L 28.09375 -18.765625 C 28.09375 -20.492188 27.539062 -22.003906 26.4375 -23.296875 C 25.332031 -24.585938 23.898438 -25.234375 22.140625 -25.234375 C 20.410156 -25.234375 18.84375 -24.566406 17.4375 -23.234375 C 16.039062 -21.898438 15.34375 -20.410156 15.34375 -18.765625 L 15.34375 0 Z M 3.890625 0 "/></g></g></g><g fill="#474545" fill-opacity="1"><g transform="translate(619.229618, 699.473193)"><g><path d="M 2.390625 8.15625 L 11.78125 3.5625 C 13.507812 6.40625 16.507812 7.828125 20.78125 7.828125 C 22.757812 7.828125 24.597656 7.191406 26.296875 5.921875 C 28.003906 4.648438 28.859375 2.695312 28.859375 0.0625 L 28.859375 -2.390625 C 26.835938 -0.148438 23.210938 0.96875 17.984375 0.96875 C 13.203125 0.96875 9.253906 -0.722656 6.140625 -4.109375 C 3.035156 -7.492188 1.484375 -11.644531 1.484375 -16.5625 C 1.484375 -21.488281 3.035156 -25.65625 6.140625 -29.0625 C 9.253906 -32.46875 13.203125 -34.171875 17.984375 -34.171875 C 22.265625 -34.171875 25.828125 -32.851562 28.671875 -30.21875 L 28.859375 -30.21875 L 28.859375 -33.203125 L 40.3125 -33.203125 L 40.3125 0.90625 C 40.3125 6.300781 38.519531 10.460938 34.9375 13.390625 C 31.363281 16.328125 26.644531 17.796875 20.78125 17.796875 C 11.28125 17.796875 5.148438 14.582031 2.390625 8.15625 Z M 15.890625 -22.203125 C 14.398438 -20.734375 13.65625 -18.851562 13.65625 -16.5625 C 13.65625 -14.28125 14.363281 -12.414062 15.78125 -10.96875 C 17.207031 -9.519531 19.085938 -8.796875 21.421875 -8.796875 C 23.660156 -8.796875 25.503906 -9.53125 26.953125 -11 C 28.398438 -12.46875 29.125 -14.320312 29.125 -16.5625 C 29.125 -18.851562 28.378906 -20.734375 26.890625 -22.203125 C 25.398438 -23.671875 23.578125 -24.40625 21.421875 -24.40625 C 19.222656 -24.40625 17.378906 -23.671875 15.890625 -22.203125 Z M 15.890625 -22.203125 "/></g></g></g></svg>