<svg xmlns="http://www.w3.org/2000/svg" xmlns:xlink="http://www.w3.org/1999/xlink" width="1080" zoomAndPan="magnify" viewBox="0 0 810 809.999993" height="1080" preserveAspectRatio="xMidYMid meet" version="1.0"><defs><g/><clipPath id="4f51cee49b"><path d="M 55.234375 360 L 149 360 L 149 454.609375 L 55.234375 454.609375 Z M 55.234375 360 " clip-rule="nonzero"/></clipPath><clipPath id="e9d7d319b6"><path d="M 86 386 L 163.984375 386 L 163.984375 431 L 86 431 Z M 86 386 " clip-rule="nonzero"/></clipPath></defs><rect x="-81" width="972" fill="#ffffff" y="-80.999999" height="971.999992" fill-opacity="1"/><rect x="-81" width="972" fill="#ffffff" y="-80.999999" height="971.999992" fill-opacity="1"/><g clip-path="url(#4f51cee49b)"><path fill="#2d80f6" d="M 148.75 407.628906 C 148.75 409.160156 148.675781 410.6875 148.523438 412.210938 C 148.375 413.734375 148.152344 415.246094 147.851562 416.75 C 147.554688 418.25 147.179688 419.734375 146.738281 421.199219 C 146.292969 422.667969 145.777344 424.105469 145.191406 425.519531 C 144.605469 426.9375 143.953125 428.320312 143.230469 429.667969 C 142.507812 431.019531 141.722656 432.332031 140.871094 433.605469 C 140.019531 434.878906 139.109375 436.105469 138.136719 437.289062 C 137.164062 438.472656 136.136719 439.605469 135.054688 440.691406 C 133.972656 441.773438 132.839844 442.800781 131.65625 443.773438 C 130.472656 444.742188 129.242188 445.652344 127.96875 446.503906 C 126.695312 447.355469 125.386719 448.140625 124.035156 448.863281 C 122.683594 449.585938 121.300781 450.238281 119.886719 450.824219 C 118.472656 451.410156 117.03125 451.925781 115.566406 452.371094 C 114.101562 452.816406 112.617188 453.1875 111.113281 453.488281 C 109.613281 453.785156 108.101562 454.011719 106.578125 454.160156 C 105.050781 454.308594 103.523438 454.386719 101.992188 454.386719 C 100.460938 454.386719 98.933594 454.308594 97.410156 454.160156 C 95.886719 454.011719 94.375 453.785156 92.871094 453.488281 C 91.371094 453.1875 89.886719 452.816406 88.421875 452.371094 C 86.953125 451.925781 85.515625 451.410156 84.101562 450.824219 C 82.683594 450.238281 81.300781 449.585938 79.953125 448.863281 C 78.601562 448.140625 77.289062 447.355469 76.015625 446.503906 C 74.742188 445.652344 73.515625 444.742188 72.332031 443.773438 C 71.148438 442.800781 70.015625 441.773438 68.929688 440.691406 C 67.847656 439.605469 66.820312 438.472656 65.847656 437.289062 C 64.878906 436.105469 63.96875 434.878906 63.117188 433.605469 C 62.265625 432.332031 61.480469 431.019531 60.757812 429.667969 C 60.035156 428.320312 59.382812 426.9375 58.796875 425.519531 C 58.210938 424.105469 57.695312 422.667969 57.25 421.199219 C 56.804688 419.734375 56.433594 418.25 56.132812 416.75 C 55.835938 415.246094 55.613281 413.734375 55.460938 412.210938 C 55.3125 410.6875 55.234375 409.160156 55.234375 407.628906 C 55.234375 406.097656 55.3125 404.570312 55.460938 403.046875 C 55.613281 401.519531 55.835938 400.007812 56.132812 398.507812 C 56.433594 397.003906 56.804688 395.519531 57.25 394.054688 C 57.695312 392.589844 58.210938 391.148438 58.796875 389.734375 C 59.382812 388.320312 60.035156 386.9375 60.757812 385.585938 C 61.480469 384.234375 62.265625 382.925781 63.117188 381.652344 C 63.96875 380.378906 64.878906 379.148438 65.847656 377.964844 C 66.820312 376.78125 67.847656 375.648438 68.929688 374.566406 C 70.015625 373.484375 71.148438 372.457031 72.332031 371.484375 C 73.515625 370.511719 74.742188 369.601562 76.015625 368.75 C 77.289062 367.898438 78.601562 367.113281 79.953125 366.390625 C 81.300781 365.671875 82.683594 365.015625 84.101562 364.429688 C 85.515625 363.84375 86.953125 363.328125 88.421875 362.882812 C 89.886719 362.441406 91.371094 362.066406 92.871094 361.769531 C 94.375 361.46875 95.886719 361.246094 97.410156 361.097656 C 98.933594 360.945312 100.460938 360.871094 101.992188 360.871094 C 103.523438 360.871094 105.050781 360.945312 106.578125 361.097656 C 108.101562 361.246094 109.613281 361.46875 111.113281 361.769531 C 112.617188 362.066406 114.101562 362.441406 115.566406 362.882812 C 117.03125 363.328125 118.472656 363.84375 119.886719 364.429688 C 121.300781 365.015625 122.683594 365.671875 124.035156 366.390625 C 125.386719 367.113281 126.695312 367.898438 127.96875 368.75 C 129.242188 369.601562 130.472656 370.511719 131.65625 371.484375 C 132.839844 372.457031 133.972656 373.484375 135.054688 374.566406 C 136.136719 375.648438 137.164062 376.78125 138.136719 377.964844 C 139.109375 379.148438 140.019531 380.378906 140.871094 381.652344 C 141.722656 382.925781 142.507812 384.234375 143.230469 385.585938 C 143.953125 386.9375 144.605469 388.320312 145.191406 389.734375 C 145.777344 391.148438 146.292969 392.589844 146.738281 394.054688 C 147.179688 395.519531 147.554688 397.003906 147.851562 398.507812 C 148.152344 400.007812 148.375 401.519531 148.523438 403.046875 C 148.675781 404.570312 148.75 406.097656 148.75 407.628906 Z M 148.75 407.628906 " fill-opacity="1" fill-rule="nonzero"/></g><path fill="#ffffff" d="M 149.25 367.839844 L 147.671875 365.996094 L 147.441406 365.839844 L 89.734375 412.789062 C 90.820312 412.554688 92.132812 412.367188 93.71875 412.277344 Z M 149.25 367.839844 " fill-opacity="1" fill-rule="nonzero"/><path fill="#ffffff" d="M 82.574219 422.28125 L 76 427.542969 C 76.03125 427.738281 76.015625 427.941406 76 428.125 C 75.996094 428.222656 75.984375 428.363281 75.988281 428.460938 C 76.109375 428.453125 76.308594 428.410156 76.515625 428.347656 L 83.058594 423.144531 C 82.875 422.878906 82.710938 422.589844 82.574219 422.28125 Z M 82.574219 422.28125 " fill-opacity="1" fill-rule="nonzero"/><path fill="#ffffff" d="M 150.207031 367.652344 L 151.160156 369.023438 L 151.882812 368.449219 L 150.730469 366.90625 L 149.011719 364.960938 L 148.800781 364.734375 L 148.132812 365.28125 L 148.191406 365.320312 C 148.226562 365.339844 148.253906 365.367188 148.28125 365.398438 L 150.183594 367.621094 C 150.191406 367.632812 150.199219 367.640625 150.207031 367.652344 Z M 150.207031 367.652344 " fill-opacity="1" fill-rule="nonzero"/><g clip-path="url(#e9d7d319b6)"><path fill="#ffffff" d="M 157.921875 395.234375 C 153.453125 395.140625 150.40625 394.136719 144.867188 392.308594 C 143.378906 391.820312 141.691406 391.261719 139.742188 390.644531 C 137.234375 389.851562 134.113281 388.59375 130.472656 386.914062 L 111.140625 402.273438 C 112.226562 404.539062 112.140625 406.578125 110.878906 408.339844 C 110.707031 408.582031 110.542969 408.816406 110.386719 409.042969 C 108.199219 412.195312 106.742188 413.695312 97.523438 413.375 C 91.984375 413.179688 88.941406 414 87.355469 414.722656 L 86.074219 415.765625 C 86.667969 415.855469 87.257812 415.988281 87.585938 416.1875 C 88.523438 416.757812 88.839844 419.074219 88.480469 420.679688 C 88.242188 421.765625 88.621094 424.335938 88.863281 425.671875 C 89.375 425.957031 89.875 426.25 90.304688 426.527344 C 90.417969 423.359375 90.910156 420.539062 90.914062 420.511719 L 91.585938 420.628906 C 91.578125 420.660156 91.050781 423.699219 90.96875 426.988281 C 91.058594 427.054688 91.140625 427.121094 91.214844 427.1875 C 91.542969 427.46875 91.851562 427.847656 92.175781 428.242188 C 92.179688 428.25 92.183594 428.253906 92.1875 428.257812 C 92.324219 425.230469 92.78125 422.597656 92.785156 422.570312 L 93.457031 422.6875 C 93.449219 422.71875 92.921875 425.75 92.84375 429.03125 C 93.820312 430.105469 95.082031 431.015625 97.410156 430.570312 L 99.257812 430.210938 C 103.746094 429.347656 110.527344 428.039062 114.121094 427.578125 C 115.25 427.433594 117.355469 427.3125 120.015625 427.160156 C 126.984375 426.761719 137.519531 426.15625 140.417969 424.488281 C 141.480469 423.878906 142.382812 423.226562 143.253906 422.59375 C 145.699219 420.820312 147.8125 419.285156 151.570312 420.398438 C 152.785156 420.757812 155.273438 421.722656 157.359375 422.550781 C 158.699219 421.152344 162.164062 416.832031 163.066406 408.777344 C 163.949219 400.875 162.363281 397.105469 161.644531 395.855469 C 159.960938 395.460938 158.707031 395.253906 157.921875 395.234375 Z M 157.921875 395.234375 " fill-opacity="1" fill-rule="nonzero"/></g><path fill="#ffffff" d="M 83.058594 416.757812 C 83.589844 416.027344 84.140625 415.671875 84.15625 415.664062 C 84.167969 415.65625 84.183594 415.652344 84.199219 415.644531 C 84.773438 414.96875 85.15625 414.367188 85.222656 413.949219 C 85.339844 413.21875 85.386719 412.027344 85.433594 410.765625 C 85.523438 408.269531 85.628906 405.4375 86.316406 403.863281 C 87.25 401.722656 87.148438 395.210938 87.148438 395.148438 C 87.148438 395.132812 87.148438 395.117188 87.152344 395.105469 C 84.894531 392.292969 80.496094 389.738281 80.449219 389.710938 L 80.875 388.976562 C 81.066406 389.085938 85.457031 391.636719 87.808594 394.566406 C 93.714844 394.527344 95.671875 390.828125 95.75 390.667969 L 96.765625 391.175781 C 96.71875 391.269531 96.125 392.410156 94.703125 393.519531 C 99.144531 396.519531 103.269531 397.226562 105.457031 397.371094 C 103.785156 393.160156 104.238281 387.234375 104.261719 386.96875 L 105.109375 387.035156 C 105.101562 387.101562 104.625 393.375 106.390625 397.402344 C 106.589844 397.40625 106.746094 397.398438 106.859375 397.394531 L 123.769531 383.640625 C 118.265625 380.816406 113.472656 378.054688 111.75 376.945312 C 108.988281 375.167969 105.90625 375.289062 102.328125 377.3125 C 100.332031 378.445312 92.199219 380.789062 85.660156 382.675781 C 81.777344 383.792969 78.421875 384.761719 77.328125 385.191406 C 74.820312 386.171875 74.574219 387.457031 74.980469 389.214844 C 75.390625 390.96875 77.585938 404.253906 77.679688 404.816406 C 77.691406 404.878906 77.691406 404.945312 77.679688 405.003906 C 77.671875 405.042969 77.023438 408.835938 76.582031 412.78125 C 76.761719 412.878906 76.886719 413.066406 76.917969 413.308594 C 76.945312 413.515625 77.003906 414.386719 77.082031 415.488281 C 77.199219 417.210938 77.363281 419.570312 77.441406 420.003906 C 77.507812 420.375 77.300781 420.789062 77.019531 421.164062 C 77.535156 420.964844 78.132812 420.644531 78.769531 420.246094 Z M 83.058594 416.757812 " fill-opacity="1" fill-rule="nonzero"/><path fill="#ffffff" d="M 94.878906 394.988281 C 95.394531 396.039062 95.921875 396.957031 96.152344 397.097656 C 96.390625 397.242188 96.550781 397.496094 96.621094 397.855469 C 96.804688 398.769531 96.417969 400.394531 95.972656 401.070312 C 95.75 401.746094 95.476562 403.171875 95.984375 403.585938 C 96.5 404.003906 97.71875 404.148438 98.515625 404.183594 L 105.484375 398.515625 C 103.304688 398.394531 99.304688 397.746094 94.878906 394.988281 Z M 94.878906 394.988281 " fill-opacity="1" fill-rule="nonzero"/><path fill="#ffffff" d="M 150.496094 369.550781 L 149.769531 368.511719 L 95.148438 412.222656 C 95.671875 412.210938 96.222656 412.210938 96.800781 412.222656 Z M 150.496094 369.550781 " fill-opacity="1" fill-rule="nonzero"/><path fill="#ffffff" d="M 75.15625 428.058594 C 75.160156 427.96875 75.171875 427.832031 75.167969 427.734375 C 75.101562 427.746094 75.023438 427.761719 74.964844 427.773438 C 74.542969 427.863281 73.832031 428.015625 73.40625 427.425781 C 73.214844 427.160156 73.148438 426.8125 73.152344 426.457031 L 69.039062 431.425781 C 69.03125 431.542969 69.039062 431.671875 69.089844 431.726562 C 69.117188 431.757812 69.203125 431.789062 69.351562 431.792969 L 75.261719 428.953125 C 75.109375 428.671875 75.132812 428.347656 75.15625 428.058594 Z M 75.15625 428.058594 " fill-opacity="1" fill-rule="nonzero"/><path fill="#ffffff" d="M 157.625 357.558594 L 149.464844 364.199219 L 149.640625 364.386719 L 151.378906 366.359375 C 151.386719 366.367188 151.390625 366.375 151.398438 366.382812 L 152.550781 367.917969 L 160.683594 361.457031 C 160.6875 361.453125 161.261719 360.976562 161.320312 360.238281 C 161.363281 359.679688 161.105469 359.085938 160.554688 358.472656 C 158.960938 356.691406 157.757812 357.464844 157.625 357.558594 Z M 157.625 357.558594 " fill-opacity="1" fill-rule="nonzero"/><path fill="#ffffff" d="M 103.03125 412.15625 C 107.121094 411.757812 108.023438 410.460938 109.457031 408.398438 C 109.617188 408.167969 109.78125 407.929688 109.957031 407.679688 C 110.929688 406.324219 111.015625 404.785156 110.226562 403 L 101.019531 410.320312 C 101.65625 410.972656 102.503906 411.789062 103.03125 412.15625 Z M 103.03125 412.15625 " fill-opacity="1" fill-rule="nonzero"/><path fill="#ffffff" d="M 98.839844 431.648438 C 99.394531 432.089844 102.359375 434.769531 102.484375 434.882812 C 102.554688 434.945312 102.59375 435.039062 102.59375 435.132812 C 102.59375 436.238281 102.5625 437.019531 102.507812 437.578125 C 103.117188 436.96875 104.148438 435.890625 104.730469 434.953125 C 105.242188 434.125 104.980469 431.851562 104.648438 430.335938 C 102.800781 430.683594 101.003906 431.03125 99.472656 431.324219 L 98.574219 431.5 C 98.664062 431.535156 98.753906 431.582031 98.839844 431.648438 Z M 98.839844 431.648438 " fill-opacity="1" fill-rule="nonzero"/><path fill="#ffffff" d="M 88.988281 406.550781 C 88.9375 406.203125 88.828125 405.667969 88.640625 405.371094 C 88.515625 405.171875 87.882812 404.878906 87.226562 404.65625 C 86.738281 406.121094 86.644531 408.703125 86.566406 410.808594 C 86.519531 412.066406 86.476562 413.160156 86.367188 413.953125 C 86.480469 413.890625 86.605469 413.828125 86.738281 413.765625 L 87.476562 413.164062 C 87.4375 411.789062 87.449219 407.710938 88.988281 406.550781 Z M 88.988281 406.550781 " fill-opacity="1" fill-rule="nonzero"/><path fill="#ffffff" d="M 89.359375 404.917969 C 89.570312 405.25 89.695312 405.707031 89.769531 406.082031 C 91.640625 404.824219 94.773438 401.269531 95.242188 400.636719 C 95.71875 399.984375 95.984375 398.066406 95.714844 397.824219 C 95.046875 397.425781 94.011719 395.1875 93.605469 394.257812 C 92.320312 395 90.582031 395.605469 88.285156 395.691406 C 88.289062 397.261719 88.230469 401.648438 87.527344 403.855469 C 88.171875 404.074219 89.0625 404.449219 89.359375 404.917969 Z M 89.359375 404.917969 " fill-opacity="1" fill-rule="nonzero"/><path fill="#ffffff" d="M 88.636719 409.011719 C 88.40625 410.050781 88.316406 411.347656 88.316406 412.480469 L 90.433594 410.757812 Z M 88.636719 409.011719 " fill-opacity="1" fill-rule="nonzero"/><path fill="#ffffff" d="M 89.105469 432.703125 L 89.796875 427.546875 C 89.296875 427.214844 88.664062 426.847656 88.019531 426.496094 C 87.171875 426.226562 85.207031 425.480469 83.777344 424.023438 L 80.289062 426.792969 C 80.644531 426.910156 81.117188 427.144531 81.5 427.621094 C 82.113281 428.390625 84.4375 431.261719 84.4375 431.261719 C 84.488281 431.324219 84.515625 431.402344 84.511719 431.480469 C 84.507812 432.191406 84.523438 433.269531 84.582031 433.964844 C 84.746094 434.066406 85.234375 434.214844 86.015625 434.160156 C 86.613281 434.117188 88.082031 433.894531 89.105469 432.703125 Z M 89.105469 432.703125 " fill-opacity="1" fill-rule="nonzero"/><path fill="#ffffff" d="M 100.351562 410.851562 L 98.5625 412.269531 C 99.792969 412.296875 100.863281 412.289062 101.789062 412.242188 C 101.246094 411.761719 100.691406 411.203125 100.351562 410.851562 Z M 100.351562 410.851562 " fill-opacity="1" fill-rule="nonzero"/><path fill="#ffffff" d="M 90.453125 431.175781 L 91.292969 431.875 C 91.511719 432.058594 91.617188 432.34375 91.574219 432.621094 C 91.480469 433.214844 91.304688 434.703125 91.640625 435.960938 C 92.375 436.214844 93.480469 436.378906 94.652344 435.773438 C 96.210938 434.964844 96.472656 432.78125 96.507812 431.808594 C 96.429688 431.8125 96.351562 431.816406 96.273438 431.816406 C 93.632812 431.816406 92.253906 430.128906 91.296875 428.960938 C 91.132812 428.761719 90.976562 428.570312 90.824219 428.398438 Z M 90.453125 431.175781 " fill-opacity="1" fill-rule="nonzero"/><path fill="#ffffff" d="M 95.449219 404.246094 C 94.925781 403.820312 94.8125 403.085938 94.851562 402.398438 C 93.449219 403.96875 91.035156 406.476562 89.621094 407.152344 C 89.332031 407.289062 89.097656 407.628906 88.914062 408.089844 L 91.097656 410.21875 L 97.566406 404.957031 C 96.816406 404.859375 95.960938 404.660156 95.449219 404.246094 Z M 95.449219 404.246094 " fill-opacity="1" fill-rule="nonzero"/><path fill="#ffffff" d="M 74.789062 426.945312 C 74.988281 426.902344 75.234375 426.851562 75.453125 426.894531 L 82.28125 421.429688 C 82.277344 421.414062 82.273438 421.402344 82.269531 421.390625 C 82.070312 420.5625 82.042969 419.832031 82.113281 419.191406 C 81.292969 419.859375 80.4375 420.484375 79.632812 421.007812 L 74.175781 425.445312 C 74.019531 425.984375 73.910156 426.671875 74.09375 426.925781 C 74.183594 427.046875 74.386719 427.027344 74.789062 426.945312 Z M 74.789062 426.945312 " fill-opacity="1" fill-rule="nonzero"/><path fill="#ffffff" d="M 98.417969 432.183594 C 98.164062 431.984375 97.65625 432.214844 97.40625 432.359375 L 97.183594 433.398438 C 98.996094 435.453125 101.011719 437.617188 101.742188 438.222656 C 101.84375 437.671875 101.910156 436.410156 101.914062 435.285156 C 101.355469 434.78125 98.898438 432.5625 98.417969 432.183594 Z M 98.417969 432.183594 " fill-opacity="1" fill-rule="nonzero"/><path fill="#ffffff" d="M 90.9375 435.960938 C 90.628906 434.617188 90.804688 433.125 90.902344 432.515625 C 90.910156 432.46875 90.890625 432.425781 90.855469 432.398438 L 90.347656 431.972656 L 90.207031 433.015625 C 90.191406 433.117188 90.152344 433.210938 90.089844 433.292969 C 89.890625 433.542969 89.675781 433.757812 89.457031 433.949219 L 90.308594 435.652344 Z M 90.9375 435.960938 " fill-opacity="1" fill-rule="nonzero"/><path fill="#000000" d="M 143.253906 422.59375 C 142.382812 423.226562 141.480469 423.878906 140.417969 424.488281 C 137.519531 426.15625 126.984375 426.761719 120.015625 427.160156 C 117.355469 427.3125 115.25 427.433594 114.121094 427.578125 C 110.527344 428.039062 103.746094 429.347656 99.257812 430.210938 L 97.410156 430.570312 C 95.082031 431.015625 93.820312 430.105469 92.84375 429.03125 C 92.921875 425.75 93.449219 422.71875 93.457031 422.6875 L 92.785156 422.570312 C 92.78125 422.597656 92.324219 425.230469 92.1875 428.257812 C 92.183594 428.253906 92.179688 428.25 92.175781 428.242188 C 91.851562 427.847656 91.542969 427.46875 91.214844 427.1875 C 91.140625 427.121094 91.058594 427.054688 90.96875 426.988281 C 91.050781 423.699219 91.578125 420.660156 91.585938 420.628906 L 90.914062 420.511719 C 90.910156 420.539062 90.417969 423.359375 90.304688 426.527344 C 89.875 426.25 89.375 425.957031 88.863281 425.671875 C 88.621094 424.335938 88.242188 421.765625 88.480469 420.679688 C 88.839844 419.074219 88.523438 416.757812 87.585938 416.1875 C 87.257812 415.988281 86.667969 415.855469 86.074219 415.765625 L 87.355469 414.722656 C 88.941406 414 91.984375 413.179688 97.523438 413.375 C 106.742188 413.695312 108.199219 412.195312 110.386719 409.042969 C 110.542969 408.816406 110.707031 408.582031 110.878906 408.339844 C 112.140625 406.578125 112.226562 404.539062 111.140625 402.273438 L 130.472656 386.914062 C 134.113281 388.59375 137.234375 389.851562 139.742188 390.644531 C 141.691406 391.261719 143.378906 391.820312 144.867188 392.308594 C 150.40625 394.136719 153.453125 395.140625 157.921875 395.234375 C 158.707031 395.253906 159.960938 395.460938 161.644531 395.855469 C 161.695312 395.867188 161.746094 395.878906 161.796875 395.890625 L 162.058594 394.789062 C 160.191406 394.34375 158.847656 394.121094 157.945312 394.101562 C 153.648438 394.011719 150.832031 393.082031 145.222656 391.234375 C 143.730469 390.742188 142.039062 390.183594 140.082031 389.5625 C 137.742188 388.824219 134.839844 387.664062 131.46875 386.121094 L 161.386719 362.34375 C 161.425781 362.3125 162.34375 361.574219 162.449219 360.347656 C 162.523438 359.460938 162.171875 358.578125 161.398438 357.71875 C 159.527344 355.628906 157.671875 356.105469 156.933594 356.660156 L 124.730469 382.859375 C 119.074219 379.972656 114.113281 377.121094 112.363281 375.992188 C 109.214844 373.964844 105.75 374.074219 101.769531 376.328125 C 99.890625 377.390625 91.828125 379.71875 85.347656 381.585938 C 81.4375 382.710938 78.058594 383.6875 76.914062 384.136719 C 73.4375 385.5 73.464844 387.703125 73.878906 389.472656 C 74.261719 391.113281 76.347656 403.691406 76.546875 404.90625 C 76.441406 405.523438 75.859375 409.039062 75.453125 412.675781 C 75.269531 414.335938 75.15625 415.699219 75.101562 416.824219 C 74.972656 418.765625 74.949219 421.0625 75.414062 422.113281 C 75.457031 422.207031 75.539062 422.277344 75.640625 422.304688 C 75.667969 422.3125 75.699219 422.316406 75.726562 422.316406 C 75.792969 422.316406 75.855469 422.292969 75.910156 422.253906 C 75.984375 422.308594 76.058594 422.355469 76.136719 422.386719 L 72.84375 425.066406 C 72.816406 425.089844 72.789062 425.117188 72.765625 425.144531 L 66.859375 432.28125 C 66.578125 432.621094 66.574219 433.097656 66.84375 433.445312 C 67.023438 433.675781 67.292969 433.800781 67.570312 433.800781 C 67.707031 433.800781 67.847656 433.773438 67.976562 433.710938 L 69.644531 432.90625 C 69.65625 432.90625 69.667969 432.90625 69.679688 432.90625 L 69.679688 432.890625 L 77.046875 429.355469 C 77.082031 429.335938 77.121094 429.3125 77.152344 429.285156 L 79.28125 427.59375 C 80.40625 429.527344 83.140625 434.167969 83.753906 434.753906 C 84.121094 435.105469 84.828125 435.304688 85.6875 435.304688 C 85.816406 435.304688 85.953125 435.300781 86.09375 435.289062 C 86.648438 435.253906 87.808594 435.082031 88.902344 434.367188 L 89.75 436.0625 C 89.777344 436.117188 89.824219 436.164062 89.878906 436.195312 L 89.890625 436.222656 C 89.933594 436.3125 89.996094 436.386719 90.078125 436.445312 C 90.144531 436.492188 91.339844 437.324219 92.96875 437.324219 C 93.644531 437.324219 94.394531 437.179688 95.171875 436.777344 C 96.199219 436.246094 96.800781 435.328125 97.15625 434.394531 C 100.789062 438.488281 101.597656 439.050781 101.914062 439.050781 C 101.972656 439.050781 102.015625 439.027344 102.054688 439.007812 C 102.078125 438.996094 102.101562 438.984375 102.128906 438.964844 C 102.214844 439.011719 102.308594 439.035156 102.402344 439.035156 C 102.539062 439.035156 102.675781 438.984375 102.785156 438.886719 C 102.867188 438.8125 104.753906 437.058594 105.691406 435.550781 C 106.519531 434.210938 106.023438 431.339844 105.761719 430.128906 C 108.960938 429.535156 112.167969 428.972656 114.265625 428.703125 C 115.355469 428.5625 117.546875 428.4375 120.082031 428.292969 C 127.582031 427.859375 137.851562 427.269531 140.984375 425.472656 C 142.097656 424.832031 143.066406 424.132812 143.917969 423.511719 C 146.304688 421.78125 148.027344 420.53125 151.25 421.488281 C 152.273438 421.789062 154.460938 422.609375 157.566406 423.851562 L 157.988281 422.800781 C 157.785156 422.71875 157.574219 422.636719 157.359375 422.550781 C 155.273438 421.71875 152.785156 420.757812 151.570312 420.398438 C 147.8125 419.285156 145.699219 420.820312 143.253906 422.59375 Z M 99.472656 431.324219 C 101.003906 431.03125 102.800781 430.683594 104.648438 430.335938 C 104.980469 431.851562 105.242188 434.125 104.730469 434.953125 C 104.148438 435.890625 103.117188 436.96875 102.507812 437.578125 C 102.5625 437.019531 102.59375 436.238281 102.59375 435.132812 C 102.59375 435.039062 102.554688 434.945312 102.484375 434.882812 C 102.359375 434.769531 99.394531 432.089844 98.839844 431.648438 C 98.753906 431.582031 98.664062 431.535156 98.574219 431.5 Z M 101.742188 438.222656 C 101.011719 437.617188 98.996094 435.453125 97.183594 433.398438 L 97.40625 432.359375 C 97.65625 432.214844 98.164062 431.984375 98.417969 432.183594 C 98.898438 432.5625 101.355469 434.78125 101.914062 435.285156 C 101.910156 436.410156 101.84375 437.671875 101.742188 438.222656 Z M 91.296875 428.960938 C 92.253906 430.128906 93.632812 431.816406 96.273438 431.816406 C 96.351562 431.816406 96.429688 431.8125 96.507812 431.808594 C 96.472656 432.78125 96.210938 434.964844 94.652344 435.773438 C 93.480469 436.378906 92.375 436.214844 91.640625 435.960938 C 91.304688 434.703125 91.480469 433.214844 91.574219 432.621094 C 91.617188 432.34375 91.511719 432.054688 91.292969 431.875 L 90.453125 431.175781 L 90.824219 428.398438 C 90.976562 428.570312 91.132812 428.761719 91.296875 428.960938 Z M 84.582031 433.964844 C 84.523438 433.269531 84.507812 432.191406 84.511719 431.480469 C 84.515625 431.402344 84.488281 431.324219 84.4375 431.261719 C 84.4375 431.261719 82.113281 428.390625 81.5 427.621094 C 81.117188 427.144531 80.644531 426.910156 80.289062 426.792969 L 83.777344 424.023438 C 85.207031 425.480469 87.171875 426.226562 88.019531 426.496094 C 88.664062 426.847656 89.296875 427.214844 89.796875 427.546875 L 89.105469 432.703125 C 88.082031 433.894531 86.613281 434.117188 86.015625 434.160156 C 85.234375 434.214844 84.746094 434.066406 84.582031 433.964844 Z M 76.082031 413.703125 C 76.109375 413.523438 76.191406 413.433594 76.242188 413.398438 C 76.269531 413.597656 76.332031 414.496094 76.402344 415.535156 C 76.527344 417.371094 76.6875 419.65625 76.773438 420.125 C 76.820312 420.378906 76.398438 420.917969 75.890625 421.386719 C 75.363281 419.1875 76.074219 413.765625 76.082031 413.703125 Z M 77.441406 420.003906 C 77.363281 419.570312 77.199219 417.210938 77.082031 415.488281 C 77.003906 414.386719 76.945312 413.515625 76.917969 413.308594 C 76.886719 413.066406 76.761719 412.878906 76.582031 412.78125 C 77.023438 408.835938 77.675781 405.042969 77.679688 405.007812 C 77.691406 404.945312 77.691406 404.878906 77.679688 404.816406 C 77.585938 404.253906 75.390625 390.96875 74.980469 389.214844 C 74.574219 387.457031 74.820312 386.171875 77.328125 385.191406 C 78.421875 384.761719 81.777344 383.792969 85.660156 382.675781 C 92.199219 380.789062 100.332031 378.445312 102.328125 377.3125 C 105.90625 375.289062 108.988281 375.167969 111.75 376.945312 C 113.472656 378.054688 118.265625 380.816406 123.769531 383.640625 L 106.859375 397.394531 C 106.746094 397.402344 106.589844 397.40625 106.390625 397.402344 C 104.625 393.375 105.101562 387.101562 105.109375 387.039062 L 104.261719 386.96875 C 104.238281 387.234375 103.785156 393.160156 105.457031 397.371094 C 103.269531 397.226562 99.144531 396.519531 94.703125 393.519531 C 96.125 392.410156 96.71875 391.269531 96.765625 391.175781 L 95.75 390.667969 C 95.671875 390.828125 93.714844 394.527344 87.808594 394.570312 C 85.457031 391.636719 81.066406 389.085938 80.875 388.976562 L 80.449219 389.710938 C 80.496094 389.738281 84.894531 392.292969 87.152344 395.105469 C 87.148438 395.117188 87.148438 395.132812 87.148438 395.148438 C 87.148438 395.210938 87.25 401.722656 86.316406 403.863281 C 85.628906 405.4375 85.523438 408.269531 85.433594 410.765625 C 85.386719 412.027344 85.339844 413.21875 85.222656 413.949219 C 85.15625 414.367188 84.773438 414.96875 84.199219 415.644531 C 84.183594 415.652344 84.167969 415.65625 84.15625 415.664062 C 84.140625 415.671875 83.589844 416.027344 83.058594 416.757812 L 78.769531 420.246094 C 78.132812 420.644531 77.535156 420.964844 77.019531 421.164062 C 77.300781 420.789062 77.507812 420.375 77.441406 420.003906 Z M 160.554688 358.472656 C 161.105469 359.085938 161.363281 359.679688 161.320312 360.238281 C 161.261719 360.976562 160.6875 361.453125 160.683594 361.457031 L 152.550781 367.917969 L 151.398438 366.382812 C 151.390625 366.375 151.386719 366.367188 151.378906 366.359375 L 149.640625 364.386719 L 149.464844 364.199219 L 157.625 357.558594 C 157.757812 357.464844 158.960938 356.691406 160.554688 358.472656 Z M 148.28125 365.398438 C 148.253906 365.367188 148.226562 365.339844 148.191406 365.320312 L 148.132812 365.28125 L 148.800781 364.734375 L 149.011719 364.960938 L 150.730469 366.90625 L 151.882812 368.449219 L 151.160156 369.023438 L 150.207031 367.652344 C 150.199219 367.640625 150.191406 367.632812 150.183594 367.621094 Z M 87.652344 420.496094 C 87.375 421.746094 87.765625 424.332031 87.988281 425.585938 C 86.660156 425.113281 83.71875 423.789062 83.097656 421.191406 C 82.394531 418.261719 84.054688 416.792969 84.503906 416.457031 C 85.371094 416.511719 86.742188 416.671875 87.144531 416.914062 C 87.578125 417.175781 87.992188 418.960938 87.652344 420.496094 Z M 76.515625 428.347656 C 76.308594 428.410156 76.109375 428.453125 75.988281 428.460938 C 75.984375 428.363281 75.996094 428.222656 76 428.125 C 76.015625 427.941406 76.03125 427.738281 76 427.542969 L 82.574219 422.28125 C 82.710938 422.589844 82.875 422.878906 83.058594 423.144531 Z M 74.175781 425.445312 L 79.632812 421.007812 C 80.4375 420.484375 81.292969 419.859375 82.113281 419.191406 C 82.042969 419.832031 82.070312 420.5625 82.269531 421.390625 C 82.273438 421.402344 82.277344 421.414062 82.28125 421.429688 L 75.453125 426.894531 C 75.234375 426.851562 74.988281 426.902344 74.789062 426.945312 C 74.386719 427.027344 74.183594 427.046875 74.09375 426.925781 C 73.910156 426.671875 74.019531 425.984375 74.175781 425.445312 Z M 86.367188 413.953125 C 86.476562 413.160156 86.519531 412.066406 86.566406 410.808594 C 86.644531 408.703125 86.738281 406.121094 87.226562 404.65625 C 87.882812 404.878906 88.515625 405.171875 88.640625 405.371094 C 88.828125 405.667969 88.9375 406.203125 88.988281 406.550781 C 87.449219 407.710938 87.4375 411.785156 87.476562 413.164062 L 86.738281 413.765625 C 86.605469 413.828125 86.480469 413.890625 86.367188 413.953125 Z M 88.285156 395.691406 C 90.582031 395.605469 92.320312 395 93.605469 394.257812 C 94.011719 395.1875 95.046875 397.425781 95.714844 397.824219 C 95.984375 398.066406 95.71875 399.984375 95.242188 400.636719 C 94.773438 401.269531 91.640625 404.824219 89.769531 406.082031 C 89.695312 405.707031 89.570312 405.25 89.359375 404.917969 C 89.0625 404.449219 88.171875 404.074219 87.523438 403.855469 C 88.230469 401.648438 88.289062 397.261719 88.285156 395.691406 Z M 88.636719 409.011719 L 90.433594 410.757812 L 88.316406 412.480469 C 88.316406 411.347656 88.40625 410.050781 88.636719 409.011719 Z M 91.097656 410.21875 L 88.914062 408.089844 C 89.097656 407.628906 89.332031 407.289062 89.621094 407.152344 C 91.035156 406.476562 93.449219 403.96875 94.851562 402.398438 C 94.8125 403.085938 94.925781 403.820312 95.449219 404.246094 C 95.960938 404.660156 96.816406 404.859375 97.566406 404.957031 Z M 98.515625 404.183594 C 97.71875 404.148438 96.5 404.003906 95.984375 403.585938 C 95.476562 403.171875 95.75 401.746094 95.972656 401.070312 C 96.417969 400.394531 96.804688 398.769531 96.621094 397.855469 C 96.550781 397.496094 96.390625 397.242188 96.152344 397.097656 C 95.921875 396.957031 95.394531 396.039062 94.878906 394.988281 C 99.304688 397.746094 103.304688 398.394531 105.484375 398.515625 Z M 69.351562 431.792969 C 69.203125 431.789062 69.117188 431.757812 69.089844 431.726562 C 69.039062 431.671875 69.03125 431.542969 69.039062 431.425781 L 73.152344 426.457031 C 73.148438 426.8125 73.214844 427.160156 73.40625 427.425781 C 73.832031 428.015625 74.542969 427.863281 74.964844 427.773438 C 75.023438 427.761719 75.101562 427.746094 75.167969 427.734375 C 75.171875 427.832031 75.160156 427.96875 75.15625 428.058594 C 75.132812 428.347656 75.109375 428.671875 75.261719 428.953125 Z M 83.867188 433.449219 C 82.734375 431.753906 80.621094 428.441406 80.027344 427.421875 C 80.289062 427.496094 80.664062 427.667969 80.96875 428.046875 C 81.515625 428.730469 83.425781 431.09375 83.832031 431.597656 C 83.832031 431.953125 83.832031 432.734375 83.867188 433.449219 Z M 90.089844 433.292969 C 90.152344 433.210938 90.191406 433.117188 90.207031 433.015625 L 90.347656 431.972656 L 90.855469 432.398438 C 90.890625 432.425781 90.910156 432.46875 90.902344 432.515625 C 90.804688 433.125 90.628906 434.617188 90.9375 435.960938 L 90.308594 435.652344 L 89.457031 433.949219 C 89.675781 433.757812 89.890625 433.542969 90.089844 433.292969 Z M 147.441406 365.839844 L 147.671875 365.996094 L 149.25 367.839844 L 93.71875 412.277344 C 92.132812 412.367188 90.820312 412.550781 89.734375 412.789062 Z M 95.148438 412.222656 L 149.769531 368.511719 L 150.496094 369.550781 L 96.800781 412.222656 C 96.222656 412.210938 95.671875 412.210938 95.148438 412.222656 Z M 98.5625 412.269531 L 100.351562 410.851562 C 100.691406 411.203125 101.246094 411.761719 101.789062 412.242188 C 100.863281 412.289062 99.792969 412.296875 98.5625 412.269531 Z M 109.957031 407.679688 C 109.78125 407.929688 109.617188 408.167969 109.457031 408.398438 C 108.023438 410.460938 107.121094 411.757812 103.03125 412.15625 C 102.503906 411.789062 101.65625 410.972656 101.019531 410.320312 L 110.226562 403 C 111.015625 404.785156 110.929688 406.324219 109.957031 407.679688 Z M 109.957031 407.679688 " fill-opacity="1" fill-rule="nonzero"/><path fill="#ffffff" d="M 83.832031 431.597656 C 83.425781 431.09375 81.515625 428.730469 80.96875 428.046875 C 80.664062 427.667969 80.289062 427.496094 80.027344 427.421875 C 80.621094 428.441406 82.734375 431.753906 83.867188 433.449219 C 83.832031 432.734375 83.832031 431.953125 83.832031 431.597656 Z M 83.832031 431.597656 " fill-opacity="1" fill-rule="nonzero"/><path fill="#ffffff" d="M 84.503906 416.457031 C 84.054688 416.792969 82.394531 418.261719 83.097656 421.191406 C 83.71875 423.789062 86.660156 425.113281 87.984375 425.585938 C 87.765625 424.332031 87.375 421.746094 87.652344 420.496094 C 87.992188 418.960938 87.578125 417.175781 87.144531 416.914062 C 86.742188 416.671875 85.371094 416.511719 84.503906 416.457031 Z M 84.503906 416.457031 " fill-opacity="1" fill-rule="nonzero"/><path fill="#ffffff" d="M 75.890625 421.386719 C 76.398438 420.917969 76.820312 420.378906 76.773438 420.125 C 76.6875 419.65625 76.527344 417.371094 76.402344 415.535156 C 76.332031 414.496094 76.269531 413.597656 76.242188 413.398438 C 76.191406 413.433594 76.109375 413.523438 76.082031 413.703125 C 76.074219 413.765625 75.363281 419.1875 75.890625 421.386719 Z M 75.890625 421.386719 " fill-opacity="1" fill-rule="nonzero"/><g fill="#474545" fill-opacity="1"><g transform="translate(177.006633, 430.027253)"><g><path d="M 34.65625 -59.6875 L 58.75 0 L 44.125 0 L 39.71875 -11.9375 L 17 -11.9375 L 12.59375 0 L -2.03125 0 L 22.0625 -59.6875 Z M 35.09375 -23.875 L 28.4375 -41.234375 L 28.28125 -41.234375 L 21.625 -23.875 Z M 35.09375 -23.875 "/></g></g></g><g fill="#474545" fill-opacity="1"><g transform="translate(233.724523, 430.027253)"><g><path d="M 4.34375 0 L 4.34375 -37.109375 L 17.140625 -37.109375 L 17.140625 -33.203125 L 17.296875 -33.203125 C 20.617188 -36.535156 24.160156 -38.203125 27.921875 -38.203125 C 29.753906 -38.203125 31.570312 -37.957031 33.375 -37.46875 C 35.1875 -36.988281 36.925781 -36.242188 38.59375 -35.234375 C 40.257812 -34.222656 41.609375 -32.785156 42.640625 -30.921875 C 43.679688 -29.066406 44.203125 -26.910156 44.203125 -24.453125 L 44.203125 0 L 31.390625 0 L 31.390625 -20.984375 C 31.390625 -22.910156 30.773438 -24.597656 29.546875 -26.046875 C 28.316406 -27.492188 26.710938 -28.21875 24.734375 -28.21875 C 22.804688 -28.21875 21.054688 -27.46875 19.484375 -25.96875 C 17.921875 -24.476562 17.140625 -22.816406 17.140625 -20.984375 L 17.140625 0 Z M 4.34375 0 "/></g></g></g><g fill="#474545" fill-opacity="1"><g transform="translate(281.544075, 430.027253)"><g><path d="M 20.46875 -38.203125 C 22.59375 -38.203125 24.691406 -37.957031 26.765625 -37.46875 C 28.835938 -36.988281 30.378906 -36.507812 31.390625 -36.03125 L 32.921875 -35.296875 L 28.71875 -26.90625 C 25.820312 -28.457031 23.070312 -29.234375 20.46875 -29.234375 C 19.019531 -29.234375 17.992188 -29.070312 17.390625 -28.75 C 16.796875 -28.4375 16.5 -27.847656 16.5 -26.984375 C 16.5 -26.785156 16.519531 -26.585938 16.5625 -26.390625 C 16.613281 -26.203125 16.710938 -26.023438 16.859375 -25.859375 C 17.003906 -25.691406 17.132812 -25.546875 17.25 -25.421875 C 17.375 -25.304688 17.578125 -25.175781 17.859375 -25.03125 C 18.148438 -24.882812 18.378906 -24.773438 18.546875 -24.703125 C 18.722656 -24.628906 19.003906 -24.519531 19.390625 -24.375 C 19.773438 -24.226562 20.0625 -24.117188 20.25 -24.046875 C 20.445312 -23.984375 20.773438 -23.878906 21.234375 -23.734375 C 21.691406 -23.585938 22.039062 -23.488281 22.28125 -23.4375 C 23.78125 -23 25.082031 -22.515625 26.1875 -21.984375 C 27.300781 -21.460938 28.472656 -20.742188 29.703125 -19.828125 C 30.929688 -18.910156 31.878906 -17.75 32.546875 -16.34375 C 33.222656 -14.945312 33.5625 -13.359375 33.5625 -11.578125 C 33.5625 -3.140625 27.703125 1.078125 15.984375 1.078125 C 13.335938 1.078125 10.816406 0.671875 8.421875 -0.140625 C 6.035156 -0.960938 4.3125 -1.785156 3.25 -2.609375 L 1.65625 -3.90625 L 6.875 -12.65625 C 7.257812 -12.320312 7.765625 -11.925781 8.390625 -11.46875 C 9.015625 -11.007812 10.144531 -10.378906 11.78125 -9.578125 C 13.425781 -8.785156 14.851562 -8.390625 16.0625 -8.390625 C 18.71875 -8.390625 20.046875 -9.28125 20.046875 -11.0625 C 20.046875 -11.882812 19.707031 -12.523438 19.03125 -12.984375 C 18.351562 -13.441406 17.207031 -13.957031 15.59375 -14.53125 C 13.976562 -15.113281 12.710938 -15.644531 11.796875 -16.125 C 9.472656 -17.332031 7.632812 -18.695312 6.28125 -20.21875 C 4.9375 -21.738281 4.265625 -23.753906 4.265625 -26.265625 C 4.265625 -30.023438 5.722656 -32.953125 8.640625 -35.046875 C 11.554688 -37.148438 15.5 -38.203125 20.46875 -38.203125 Z M 20.46875 -38.203125 "/></g></g></g><g fill="#474545" fill-opacity="1"><g transform="translate(317.137444, 430.027253)"><g><path d="M 27.125 0 L 18.453125 0 L -1.453125 -37.109375 L 13.3125 -37.109375 L 22.359375 -17.078125 L 31.25 -37.109375 L 40.078125 -37.109375 L 48.984375 -17.078125 L 58.015625 -37.109375 L 72.78125 -37.109375 L 52.890625 0 L 44.203125 0 L 35.671875 -19.171875 Z M 27.125 0 "/></g></g></g><g fill="#474545" fill-opacity="1"><g transform="translate(388.468874, 430.027253)"><g><path d="M 41.890625 -16.78125 L 14.96875 -16.78125 C 14.96875 -14.175781 15.8125 -12.242188 17.5 -10.984375 C 19.195312 -9.734375 21.03125 -9.109375 23 -9.109375 C 25.070312 -9.109375 26.710938 -9.382812 27.921875 -9.9375 C 29.128906 -10.5 30.503906 -11.597656 32.046875 -13.234375 L 41.3125 -8.609375 C 37.445312 -2.148438 31.03125 1.078125 22.0625 1.078125 C 16.46875 1.078125 11.664062 -0.835938 7.65625 -4.671875 C 3.65625 -8.503906 1.65625 -13.117188 1.65625 -18.515625 C 1.65625 -23.921875 3.65625 -28.550781 7.65625 -32.40625 C 11.664062 -36.269531 16.46875 -38.203125 22.0625 -38.203125 C 27.945312 -38.203125 32.734375 -36.5 36.421875 -33.09375 C 40.109375 -29.695312 41.953125 -24.835938 41.953125 -18.515625 C 41.953125 -17.648438 41.929688 -17.070312 41.890625 -16.78125 Z M 15.34375 -23.875 L 29.4375 -23.875 C 29.15625 -25.800781 28.398438 -27.28125 27.171875 -28.3125 C 25.941406 -29.351562 24.359375 -29.875 22.421875 -29.875 C 20.304688 -29.875 18.617188 -29.316406 17.359375 -28.203125 C 16.109375 -27.097656 15.4375 -25.65625 15.34375 -23.875 Z M 15.34375 -23.875 "/></g></g></g><g fill="#474545" fill-opacity="1"><g transform="translate(432.092456, 430.027253)"><g><path d="M 4.34375 0 L 4.34375 -37.109375 L 17.140625 -37.109375 L 17.140625 -31.765625 L 17.296875 -31.765625 C 17.390625 -31.953125 17.546875 -32.191406 17.765625 -32.484375 C 17.984375 -32.773438 18.453125 -33.28125 19.171875 -34 C 19.890625 -34.726562 20.660156 -35.378906 21.484375 -35.953125 C 22.304688 -36.535156 23.367188 -37.054688 24.671875 -37.515625 C 25.972656 -37.972656 27.296875 -38.203125 28.640625 -38.203125 C 30.046875 -38.203125 31.421875 -38.007812 32.765625 -37.625 C 34.117188 -37.238281 35.109375 -36.851562 35.734375 -36.46875 L 36.75 -35.875 L 31.390625 -25.03125 C 29.804688 -26.382812 27.585938 -27.0625 24.734375 -27.0625 C 23.191406 -27.0625 21.863281 -26.722656 20.75 -26.046875 C 19.644531 -25.367188 18.863281 -24.546875 18.40625 -23.578125 C 17.945312 -22.617188 17.617188 -21.800781 17.421875 -21.125 C 17.234375 -20.445312 17.140625 -19.914062 17.140625 -19.53125 L 17.140625 0 Z M 4.34375 0 "/></g></g></g><g fill="#474545" fill-opacity="1"><g transform="translate(468.119897, 430.027253)"><g><path d="M 50.140625 0 L 40.578125 -33.5 L 31.03125 0 L 15.921875 0 L -1.078125 -59.6875 L 14.03125 -59.6875 L 24.234375 -18.734375 L 24.59375 -18.734375 L 35.453125 -59.6875 L 45.71875 -59.6875 L 56.578125 -18.734375 L 56.9375 -18.734375 L 67.140625 -59.6875 L 82.1875 -59.6875 L 65.1875 0 Z M 50.140625 0 "/></g></g></g><g fill="#474545" fill-opacity="1"><g transform="translate(549.217807, 430.027253)"><g><path d="M 4.34375 0 L 4.34375 -37.109375 L 17.140625 -37.109375 L 17.140625 -31.765625 L 17.296875 -31.765625 C 17.390625 -31.953125 17.546875 -32.191406 17.765625 -32.484375 C 17.984375 -32.773438 18.453125 -33.28125 19.171875 -34 C 19.890625 -34.726562 20.660156 -35.378906 21.484375 -35.953125 C 22.304688 -36.535156 23.367188 -37.054688 24.671875 -37.515625 C 25.972656 -37.972656 27.296875 -38.203125 28.640625 -38.203125 C 30.046875 -38.203125 31.421875 -38.007812 32.765625 -37.625 C 34.117188 -37.238281 35.109375 -36.851562 35.734375 -36.46875 L 36.75 -35.875 L 31.390625 -25.03125 C 29.804688 -26.382812 27.585938 -27.0625 24.734375 -27.0625 C 23.191406 -27.0625 21.863281 -26.722656 20.75 -26.046875 C 19.644531 -25.367188 18.863281 -24.546875 18.40625 -23.578125 C 17.945312 -22.617188 17.617188 -21.800781 17.421875 -21.125 C 17.234375 -20.445312 17.140625 -19.914062 17.140625 -19.53125 L 17.140625 0 Z M 4.34375 0 "/></g></g></g><g fill="#474545" fill-opacity="1"><g transform="translate(585.24523, 430.027253)"><g><path d="M 5.5625 -57.796875 C 7.0625 -59.296875 8.847656 -60.046875 10.921875 -60.046875 C 12.992188 -60.046875 14.773438 -59.296875 16.265625 -57.796875 C 17.765625 -56.304688 18.515625 -54.523438 18.515625 -52.453125 C 18.515625 -50.378906 17.765625 -48.59375 16.265625 -47.09375 C 14.773438 -45.601562 12.992188 -44.859375 10.921875 -44.859375 C 8.847656 -44.859375 7.0625 -45.601562 5.5625 -47.09375 C 4.070312 -48.59375 3.328125 -50.378906 3.328125 -52.453125 C 3.328125 -54.523438 4.070312 -56.304688 5.5625 -57.796875 Z M 4.34375 -37.109375 L 4.34375 0 L 17.140625 0 L 17.140625 -37.109375 Z M 4.34375 -37.109375 "/></g></g></g><g fill="#474545" fill-opacity="1"><g transform="translate(607.093203, 430.027253)"><g><path d="M 6.515625 -37.109375 L 6.515625 -50.9375 L 19.3125 -50.9375 L 19.3125 -37.109375 L 27.125 -37.109375 L 27.125 -27.34375 L 19.3125 -27.34375 L 19.3125 -15.546875 C 19.3125 -12.128906 20.273438 -10.421875 22.203125 -10.421875 C 22.691406 -10.421875 23.203125 -10.515625 23.734375 -10.703125 C 24.265625 -10.898438 24.671875 -11.09375 24.953125 -11.28125 L 25.390625 -11.578125 L 28.578125 -1.234375 C 25.828125 0.304688 22.691406 1.078125 19.171875 1.078125 C 16.753906 1.078125 14.675781 0.65625 12.9375 -0.1875 C 11.207031 -1.03125 9.894531 -2.160156 9 -3.578125 C 8.113281 -5.003906 7.476562 -6.5 7.09375 -8.0625 C 6.707031 -9.632812 6.515625 -11.3125 6.515625 -13.09375 L 6.515625 -27.34375 L 1.15625 -27.34375 L 1.15625 -37.109375 Z M 6.515625 -37.109375 "/></g></g></g><g fill="#474545" fill-opacity="1"><g transform="translate(635.669192, 430.027253)"><g><path d="M 5.5625 -57.796875 C 7.0625 -59.296875 8.847656 -60.046875 10.921875 -60.046875 C 12.992188 -60.046875 14.773438 -59.296875 16.265625 -57.796875 C 17.765625 -56.304688 18.515625 -54.523438 18.515625 -52.453125 C 18.515625 -50.378906 17.765625 -48.59375 16.265625 -47.09375 C 14.773438 -45.601562 12.992188 -44.859375 10.921875 -44.859375 C 8.847656 -44.859375 7.0625 -45.601562 5.5625 -47.09375 C 4.070312 -48.59375 3.328125 -50.378906 3.328125 -52.453125 C 3.328125 -54.523438 4.070312 -56.304688 5.5625 -57.796875 Z M 4.34375 -37.109375 L 4.34375 0 L 17.140625 0 L 17.140625 -37.109375 Z M 4.34375 -37.109375 "/></g></g></g><g fill="#474545" fill-opacity="1"><g transform="translate(657.517165, 430.027253)"><g><path d="M 4.34375 0 L 4.34375 -37.109375 L 17.140625 -37.109375 L 17.140625 -33.203125 L 17.296875 -33.203125 C 20.617188 -36.535156 24.160156 -38.203125 27.921875 -38.203125 C 29.753906 -38.203125 31.570312 -37.957031 33.375 -37.46875 C 35.1875 -36.988281 36.925781 -36.242188 38.59375 -35.234375 C 40.257812 -34.222656 41.609375 -32.785156 42.640625 -30.921875 C 43.679688 -29.066406 44.203125 -26.910156 44.203125 -24.453125 L 44.203125 0 L 31.390625 0 L 31.390625 -20.984375 C 31.390625 -22.910156 30.773438 -24.597656 29.546875 -26.046875 C 28.316406 -27.492188 26.710938 -28.21875 24.734375 -28.21875 C 22.804688 -28.21875 21.054688 -27.46875 19.484375 -25.96875 C 17.921875 -24.476562 17.140625 -22.816406 17.140625 -20.984375 L 17.140625 0 Z M 4.34375 0 "/></g></g></g><g fill="#474545" fill-opacity="1"><g transform="translate(705.336735, 430.027253)"><g><path d="M 2.671875 9.109375 L 13.171875 3.984375 C 15.097656 7.160156 18.445312 8.75 23.21875 8.75 C 25.4375 8.75 27.5 8.035156 29.40625 6.609375 C 31.3125 5.191406 32.265625 3.015625 32.265625 0.078125 L 32.265625 -2.671875 C 29.992188 -0.171875 25.941406 1.078125 20.109375 1.078125 C 14.753906 1.078125 10.335938 -0.8125 6.859375 -4.59375 C 3.390625 -8.375 1.65625 -13.015625 1.65625 -18.515625 C 1.65625 -24.015625 3.390625 -28.671875 6.859375 -32.484375 C 10.335938 -36.296875 14.753906 -38.203125 20.109375 -38.203125 C 24.890625 -38.203125 28.867188 -36.726562 32.046875 -33.78125 L 32.265625 -33.78125 L 32.265625 -37.109375 L 45.0625 -37.109375 L 45.0625 1.015625 C 45.0625 7.046875 43.0625 11.695312 39.0625 14.96875 C 35.0625 18.25 29.78125 19.890625 23.21875 19.890625 C 12.613281 19.890625 5.765625 16.296875 2.671875 9.109375 Z M 17.75 -24.8125 C 16.09375 -23.175781 15.265625 -21.078125 15.265625 -18.515625 C 15.265625 -15.960938 16.0625 -13.878906 17.65625 -12.265625 C 19.25 -10.648438 21.347656 -9.84375 23.953125 -9.84375 C 26.453125 -9.84375 28.507812 -10.660156 30.125 -12.296875 C 31.75 -13.941406 32.5625 -16.015625 32.5625 -18.515625 C 32.5625 -21.078125 31.726562 -23.175781 30.0625 -24.8125 C 28.394531 -26.457031 26.359375 -27.28125 23.953125 -27.28125 C 21.484375 -27.28125 19.414062 -26.457031 17.75 -24.8125 Z M 17.75 -24.8125 "/></g></g></g></svg>