<svg xmlns="http://www.w3.org/2000/svg" xmlns:xlink="http://www.w3.org/1999/xlink" width="1080" zoomAndPan="magnify" viewBox="0 0 810 809.999993" height="1080" preserveAspectRatio="xMidYMid meet" version="1.0"><defs><clipPath id="32f6cfab1b"><path d="M 90.699219 149 L 632 149 L 632 690.878906 L 90.699219 690.878906 Z M 90.699219 149 " clip-rule="nonzero"/></clipPath></defs><rect x="-81" width="972" fill="#ffffff" y="-80.999999" height="971.999992" fill-opacity="1"/><rect x="-81" width="972" fill="#ffffff" y="-80.999999" height="971.999992" fill-opacity="1"/><g clip-path="url(#32f6cfab1b)"><path fill="#2d80f6" d="M 631.460938 420.214844 C 631.460938 424.636719 631.351562 429.0625 631.136719 433.480469 C 630.917969 437.898438 630.59375 442.3125 630.160156 446.714844 C 629.726562 451.121094 629.183594 455.507812 628.535156 459.886719 C 627.886719 464.265625 627.128906 468.621094 626.265625 472.960938 C 625.402344 477.300781 624.433594 481.617188 623.359375 485.910156 C 622.28125 490.203125 621.101562 494.464844 619.820312 498.699219 C 618.535156 502.933594 617.148438 507.136719 615.65625 511.300781 C 614.164062 515.46875 612.574219 519.59375 610.878906 523.683594 C 609.1875 527.773438 607.394531 531.816406 605.5 535.816406 C 603.609375 539.816406 601.621094 543.769531 599.535156 547.671875 C 597.449219 551.574219 595.269531 555.421875 592.992188 559.21875 C 590.71875 563.011719 588.351562 566.75 585.894531 570.429688 C 583.433594 574.109375 580.886719 577.726562 578.253906 581.277344 C 575.617188 584.832031 572.894531 588.320312 570.085938 591.742188 C 567.28125 595.160156 564.390625 598.511719 561.417969 601.789062 C 558.449219 605.070312 555.398438 608.273438 552.269531 611.402344 C 549.140625 614.53125 545.9375 617.582031 542.65625 620.550781 C 539.378906 623.523438 536.027344 626.414062 532.609375 629.21875 C 529.1875 632.027344 525.699219 634.75 522.144531 637.386719 C 518.59375 640.019531 514.976562 642.566406 511.296875 645.027344 C 507.617188 647.484375 503.878906 649.851562 500.085938 652.125 C 496.289062 654.402344 492.441406 656.582031 488.539062 658.667969 C 484.632812 660.753906 480.683594 662.742188 476.683594 664.632812 C 472.683594 666.527344 468.640625 668.320312 464.550781 670.011719 C 460.460938 671.707031 456.335938 673.296875 452.167969 674.789062 C 448.003906 676.28125 443.800781 677.667969 439.566406 678.953125 C 435.332031 680.234375 431.070312 681.414062 426.777344 682.492188 C 422.484375 683.566406 418.167969 684.535156 413.828125 685.398438 C 409.488281 686.261719 405.132812 687.019531 400.753906 687.667969 C 396.375 688.316406 391.988281 688.859375 387.582031 689.292969 C 383.179688 689.726562 378.765625 690.050781 374.347656 690.269531 C 369.929688 690.484375 365.503906 690.59375 361.082031 690.59375 C 356.65625 690.59375 352.234375 690.484375 347.8125 690.269531 C 343.394531 690.050781 338.984375 689.726562 334.578125 689.292969 C 330.175781 688.859375 325.785156 688.316406 321.40625 687.667969 C 317.03125 687.019531 312.671875 686.261719 308.332031 685.398438 C 303.992188 684.535156 299.675781 683.566406 295.382812 682.492188 C 291.089844 681.414062 286.828125 680.234375 282.59375 678.953125 C 278.359375 677.667969 274.160156 676.28125 269.992188 674.789062 C 265.824219 673.296875 261.699219 671.707031 257.609375 670.011719 C 253.523438 668.320312 249.476562 666.527344 245.476562 664.632812 C 241.476562 662.742188 237.527344 660.753906 233.625 658.667969 C 229.722656 656.582031 225.871094 654.402344 222.078125 652.125 C 218.28125 649.851562 214.542969 647.484375 210.867188 645.027344 C 207.1875 642.566406 203.570312 640.019531 200.015625 637.386719 C 196.460938 634.75 192.972656 632.027344 189.554688 629.21875 C 186.132812 626.414062 182.78125 623.523438 179.503906 620.550781 C 176.226562 617.582031 173.023438 614.53125 169.894531 611.402344 C 166.765625 608.273438 163.714844 605.070312 160.742188 601.789062 C 157.769531 598.511719 154.882812 595.160156 152.074219 591.742188 C 149.265625 588.320312 146.546875 584.832031 143.910156 581.277344 C 141.273438 577.726562 138.726562 574.109375 136.269531 570.429688 C 133.808594 566.75 131.441406 563.011719 129.167969 559.21875 C 126.894531 555.421875 124.710938 551.574219 122.625 547.671875 C 120.539062 543.769531 118.550781 539.816406 116.660156 535.816406 C 114.769531 531.816406 112.976562 527.773438 111.28125 523.683594 C 109.589844 519.59375 107.996094 515.46875 106.503906 511.300781 C 105.015625 507.136719 103.628906 502.933594 102.34375 498.699219 C 101.058594 494.464844 99.878906 490.203125 98.804688 485.910156 C 97.726562 481.617188 96.757812 477.300781 95.894531 472.960938 C 95.03125 468.621094 94.277344 464.265625 93.625 459.886719 C 92.976562 455.507812 92.4375 451.121094 92.003906 446.714844 C 91.570312 442.3125 91.242188 437.898438 91.027344 433.480469 C 90.808594 429.0625 90.699219 424.636719 90.699219 420.214844 C 90.699219 415.789062 90.808594 411.367188 91.027344 406.945312 C 91.242188 402.527344 91.570312 398.117188 92.003906 393.710938 C 92.4375 389.308594 92.976562 384.917969 93.625 380.539062 C 94.277344 376.164062 95.03125 371.804688 95.894531 367.464844 C 96.757812 363.125 97.726562 358.808594 98.804688 354.515625 C 99.878906 350.222656 101.058594 345.960938 102.34375 341.726562 C 103.628906 337.492188 105.015625 333.292969 106.503906 329.125 C 107.996094 324.957031 109.589844 320.832031 111.28125 316.742188 C 112.976562 312.65625 114.769531 308.609375 116.660156 304.609375 C 118.550781 300.609375 120.539062 296.660156 122.625 292.757812 C 124.710938 288.855469 126.894531 285.003906 129.167969 281.210938 C 131.441406 277.414062 133.808594 273.675781 136.269531 270 C 138.726562 266.320312 141.273438 262.703125 143.910156 259.148438 C 146.546875 255.59375 149.265625 252.105469 152.074219 248.6875 C 154.882812 245.265625 157.769531 241.914062 160.742188 238.636719 C 163.714844 235.359375 166.765625 232.15625 169.894531 229.027344 C 173.023438 225.898438 176.226562 222.847656 179.503906 219.875 C 182.78125 216.902344 186.132812 214.015625 189.554688 211.207031 C 192.972656 208.398438 196.460938 205.679688 200.015625 203.042969 C 203.570312 200.40625 207.1875 197.859375 210.867188 195.402344 C 214.542969 192.941406 218.28125 190.574219 222.078125 188.300781 C 225.871094 186.027344 229.722656 183.84375 233.625 181.757812 C 237.527344 179.671875 241.476562 177.683594 245.476562 175.792969 C 249.476562 173.902344 253.523438 172.109375 257.609375 170.414062 C 261.699219 168.722656 265.824219 167.128906 269.992188 165.636719 C 274.160156 164.148438 278.359375 162.761719 282.59375 161.476562 C 286.828125 160.191406 291.089844 159.011719 295.382812 157.9375 C 299.675781 156.859375 303.992188 155.890625 308.332031 155.027344 C 312.671875 154.164062 317.03125 153.410156 321.40625 152.757812 C 325.785156 152.109375 330.175781 151.570312 334.578125 151.136719 C 338.984375 150.703125 343.394531 150.375 347.8125 150.160156 C 352.234375 149.941406 356.65625 149.832031 361.082031 149.832031 C 365.503906 149.832031 369.929688 149.941406 374.347656 150.160156 C 378.765625 150.375 383.179688 150.703125 387.582031 151.136719 C 391.988281 151.570312 396.375 152.109375 400.753906 152.757812 C 405.132812 153.410156 409.488281 154.164062 413.828125 155.027344 C 418.167969 155.890625 422.484375 156.859375 426.777344 157.9375 C 431.070312 159.011719 435.332031 160.191406 439.566406 161.476562 C 443.800781 162.761719 448.003906 164.148438 452.167969 165.636719 C 456.335938 167.128906 460.460938 168.722656 464.550781 170.414062 C 468.640625 172.109375 472.683594 173.902344 476.683594 175.792969 C 480.683594 177.683594 484.636719 179.671875 488.539062 181.757812 C 492.441406 183.84375 496.289062 186.027344 500.085938 188.300781 C 503.878906 190.574219 507.617188 192.941406 511.296875 195.402344 C 514.976562 197.859375 518.59375 200.40625 522.144531 203.042969 C 525.699219 205.679688 529.1875 208.398438 532.609375 211.207031 C 536.027344 214.015625 539.378906 216.902344 542.65625 219.875 C 545.9375 222.847656 549.140625 225.898438 552.269531 229.027344 C 555.398438 232.15625 558.449219 235.359375 561.417969 238.636719 C 564.390625 241.914062 567.28125 245.265625 570.085938 248.6875 C 572.894531 252.105469 575.617188 255.59375 578.253906 259.148438 C 580.886719 262.703125 583.433594 266.320312 585.894531 270 C 588.351562 273.675781 590.71875 277.414062 592.992188 281.210938 C 595.269531 285.003906 597.449219 288.855469 599.535156 292.757812 C 601.621094 296.660156 603.609375 300.609375 605.5 304.609375 C 607.394531 308.609375 609.1875 312.65625 610.878906 316.742188 C 612.574219 320.832031 614.164062 324.957031 615.65625 329.125 C 617.148438 333.292969 618.535156 337.492188 619.820312 341.726562 C 621.101562 345.960938 622.28125 350.222656 623.359375 354.515625 C 624.433594 358.808594 625.402344 363.125 626.265625 367.464844 C 627.128906 371.804688 627.886719 376.164062 628.535156 380.539062 C 629.183594 384.917969 629.726562 389.308594 630.160156 393.710938 C 630.59375 398.117188 630.917969 402.527344 631.136719 406.945312 C 631.351562 411.367188 631.460938 415.789062 631.460938 420.214844 Z M 631.460938 420.214844 " fill-opacity="1" fill-rule="nonzero"/></g><path fill="#ffffff" d="M 634.355469 190.128906 L 625.230469 179.460938 L 623.902344 178.574219 L 290.195312 450.054688 C 296.472656 448.691406 304.070312 447.617188 313.234375 447.089844 Z M 634.355469 190.128906 " fill-opacity="1" fill-rule="nonzero"/><path fill="#ffffff" d="M 248.792969 504.953125 L 210.769531 535.378906 C 210.949219 536.507812 210.863281 537.667969 210.78125 538.742188 C 210.738281 539.300781 210.675781 540.121094 210.710938 540.675781 C 211.410156 540.644531 212.550781 540.390625 213.75 540.015625 L 251.582031 509.953125 C 250.523438 508.394531 249.582031 506.730469 248.792969 504.953125 Z M 248.792969 504.953125 " fill-opacity="1" fill-rule="nonzero"/><path fill="#ffffff" d="M 639.890625 189.058594 L 645.40625 196.972656 L 649.585938 193.648438 L 642.902344 184.738281 L 632.984375 173.476562 L 631.761719 172.183594 L 627.894531 175.328125 L 628.238281 175.558594 C 628.429688 175.683594 628.597656 175.835938 628.746094 176.007812 L 639.742188 188.863281 C 639.792969 188.925781 639.84375 188.992188 639.890625 189.058594 Z M 639.890625 189.058594 " fill-opacity="1" fill-rule="nonzero"/><path fill="#ffffff" d="M 684.503906 348.550781 C 658.660156 348.007812 641.027344 342.191406 609.011719 331.636719 C 600.402344 328.796875 590.644531 325.578125 579.359375 322.007812 C 564.863281 317.417969 546.824219 310.152344 525.757812 300.429688 L 413.984375 389.261719 C 420.253906 402.347656 419.75 414.136719 412.46875 424.332031 C 411.46875 425.734375 410.527344 427.089844 409.617188 428.398438 C 396.96875 446.628906 388.535156 455.300781 335.242188 453.453125 C 303.210938 452.324219 285.597656 457.0625 276.441406 461.238281 L 269.035156 467.265625 C 272.449219 467.785156 275.878906 468.5625 277.765625 469.710938 C 283.199219 473.019531 285.015625 486.394531 282.945312 495.695312 C 281.554688 501.960938 283.75 516.828125 285.164062 524.554688 C 288.125 526.203125 291 527.890625 293.484375 529.492188 C 294.140625 511.191406 296.988281 494.882812 297.015625 494.707031 L 300.890625 495.390625 C 300.859375 495.570312 297.792969 513.15625 297.339844 532.164062 C 297.855469 532.558594 298.332031 532.941406 298.757812 533.3125 C 300.652344 534.953125 302.429688 537.125 304.308594 539.425781 C 304.332031 539.457031 304.359375 539.488281 304.382812 539.519531 C 305.15625 521.996094 307.8125 506.785156 307.84375 506.617188 L 311.714844 507.296875 C 311.683594 507.476562 308.628906 525 308.164062 543.96875 C 313.832031 550.191406 321.125 555.445312 334.570312 552.871094 L 345.269531 550.8125 C 371.214844 545.804688 410.421875 538.238281 431.210938 535.582031 C 437.75 534.75 449.90625 534.050781 465.296875 533.164062 C 505.605469 530.847656 566.523438 527.347656 583.285156 517.71875 C 589.429688 514.1875 594.636719 510.414062 599.671875 506.761719 C 613.824219 496.496094 626.042969 487.628906 647.773438 494.070312 C 654.792969 496.148438 669.1875 501.707031 681.25 506.507812 C 688.992188 498.425781 709.035156 473.4375 714.246094 426.859375 C 719.351562 381.164062 710.175781 359.367188 706.027344 352.140625 C 696.28125 349.859375 689.027344 348.648438 684.503906 348.550781 Z M 684.503906 348.550781 " fill-opacity="1" fill-rule="nonzero"/><path fill="#ffffff" d="M 251.585938 473.011719 C 254.660156 468.785156 257.855469 466.726562 257.925781 466.683594 C 258.003906 466.632812 258.09375 466.613281 258.175781 466.574219 C 261.5 462.652344 263.710938 459.183594 264.105469 456.757812 C 264.789062 452.539062 265.042969 445.652344 265.316406 438.359375 C 265.851562 423.917969 266.457031 407.554688 270.425781 398.445312 C 275.828125 386.054688 275.234375 348.417969 275.230469 348.039062 C 275.226562 347.957031 275.246094 347.875 275.25 347.792969 C 262.210938 331.539062 236.765625 316.765625 236.503906 316.613281 L 238.957031 312.351562 C 240.070312 312.992188 265.453125 327.730469 279.066406 344.695312 C 313.203125 344.457031 324.519531 323.058594 324.984375 322.140625 L 330.84375 325.085938 C 330.574219 325.621094 327.15625 332.207031 318.929688 338.636719 C 344.613281 355.980469 368.460938 360.0625 381.101562 360.898438 C 371.449219 336.5625 374.066406 302.285156 374.1875 300.75 L 379.089844 301.144531 C 379.058594 301.519531 376.292969 337.800781 386.503906 361.089844 C 387.648438 361.09375 388.558594 361.070312 389.226562 361.042969 L 487.007812 281.496094 C 455.171875 265.167969 427.460938 249.207031 417.5 242.792969 C 401.535156 232.511719 383.71875 233.203125 363.027344 244.917969 C 351.480469 251.453125 304.433594 265.015625 266.632812 275.914062 C 244.175781 282.390625 224.785156 287.980469 218.457031 290.460938 C 203.957031 296.148438 202.515625 303.582031 204.882812 313.738281 C 207.25 323.875 219.953125 400.691406 220.492188 403.957031 C 220.550781 404.320312 220.550781 404.691406 220.488281 405.050781 C 220.449219 405.273438 216.679688 427.203125 214.144531 450.003906 C 215.179688 450.574219 215.90625 451.660156 216.078125 453.0625 C 216.230469 454.257812 216.578125 459.292969 217.019531 465.671875 C 217.707031 475.632812 218.652344 489.273438 219.109375 491.78125 C 219.5 493.925781 218.300781 496.328125 216.664062 498.488281 C 219.644531 497.332031 223.113281 495.480469 226.796875 493.179688 Z M 251.585938 473.011719 " fill-opacity="1" fill-rule="nonzero"/><path fill="#ffffff" d="M 319.953125 347.121094 C 322.917969 353.195312 325.96875 358.519531 327.3125 359.324219 C 328.6875 360.152344 329.597656 361.625 330.019531 363.707031 C 331.082031 368.988281 328.839844 378.378906 326.257812 382.296875 C 324.96875 386.191406 323.390625 394.453125 326.328125 396.832031 C 329.324219 399.257812 336.363281 400.082031 340.980469 400.289062 L 381.257812 367.523438 C 368.667969 366.808594 345.53125 363.078125 319.953125 347.121094 Z M 319.953125 347.121094 " fill-opacity="1" fill-rule="nonzero"/><path fill="#ffffff" d="M 641.550781 200.035156 L 637.359375 194.023438 L 321.496094 446.777344 C 324.53125 446.71875 327.722656 446.722656 331.0625 446.785156 Z M 641.550781 200.035156 " fill-opacity="1" fill-rule="nonzero"/><path fill="#ffffff" d="M 205.878906 538.367188 C 205.921875 537.832031 205.980469 537.058594 205.953125 536.488281 C 205.574219 536.550781 205.132812 536.644531 204.785156 536.71875 C 202.335938 537.238281 198.242188 538.105469 195.769531 534.691406 C 194.664062 533.164062 194.289062 531.15625 194.292969 529.097656 L 170.511719 557.832031 C 170.460938 558.503906 170.527344 559.257812 170.800781 559.5625 C 170.972656 559.757812 171.46875 559.933594 172.328125 559.941406 L 206.5 543.53125 C 205.613281 541.90625 205.753906 540.027344 205.878906 538.367188 Z M 205.878906 538.367188 " fill-opacity="1" fill-rule="nonzero"/><path fill="#ffffff" d="M 682.789062 130.671875 L 635.585938 169.074219 L 636.617188 170.164062 L 646.65625 181.5625 C 646.699219 181.613281 646.738281 181.660156 646.777344 181.714844 L 653.4375 190.589844 L 700.46875 153.210938 C 700.488281 153.195312 703.808594 150.4375 704.140625 146.175781 C 704.394531 142.953125 702.90625 139.519531 699.726562 135.96875 C 690.496094 125.667969 683.550781 130.132812 682.789062 130.671875 Z M 682.789062 130.671875 " fill-opacity="1" fill-rule="nonzero"/><path fill="#ffffff" d="M 367.082031 446.394531 C 390.734375 444.09375 395.953125 436.59375 404.234375 424.664062 C 405.15625 423.328125 406.117188 421.949219 407.132812 420.523438 C 412.746094 412.664062 413.261719 403.777344 408.699219 393.460938 L 355.453125 435.773438 C 359.121094 439.558594 364.035156 444.277344 367.082031 446.394531 Z M 367.082031 446.394531 " fill-opacity="1" fill-rule="nonzero"/><path fill="#ffffff" d="M 342.835938 559.117188 C 346.0625 561.664062 363.1875 577.15625 363.914062 577.8125 C 364.328125 578.1875 364.5625 578.714844 364.5625 579.269531 C 364.5625 585.652344 364.363281 590.171875 364.0625 593.394531 C 367.585938 589.890625 373.539062 583.640625 376.898438 578.222656 C 379.871094 573.425781 378.347656 560.285156 376.433594 551.527344 C 365.757812 553.53125 355.363281 555.539062 346.511719 557.246094 L 341.300781 558.25 C 341.832031 558.453125 342.347656 558.730469 342.835938 559.117188 Z M 342.835938 559.117188 " fill-opacity="1" fill-rule="nonzero"/><path fill="#ffffff" d="M 285.867188 413.996094 C 285.578125 411.964844 284.953125 408.871094 283.871094 407.160156 C 283.152344 406.019531 279.492188 404.316406 275.699219 403.027344 C 272.875 411.511719 272.316406 426.425781 271.863281 438.601562 C 271.59375 445.878906 271.355469 452.210938 270.71875 456.78125 C 271.386719 456.421875 272.105469 456.0625 272.867188 455.699219 L 277.144531 452.222656 C 276.902344 444.265625 276.980469 420.699219 285.867188 413.996094 Z M 285.867188 413.996094 " fill-opacity="1" fill-rule="nonzero"/><path fill="#ffffff" d="M 288.03125 404.535156 C 289.246094 406.460938 289.972656 409.113281 290.398438 411.277344 C 301.210938 404.007812 319.339844 383.453125 322.039062 379.777344 C 324.800781 376.007812 326.335938 364.921875 324.765625 363.527344 C 320.90625 361.214844 314.929688 348.273438 312.578125 342.910156 C 305.136719 347.191406 295.085938 350.695312 281.8125 351.199219 C 281.832031 360.273438 281.503906 385.644531 277.417969 398.410156 C 281.148438 399.667969 286.316406 401.824219 288.03125 404.535156 Z M 288.03125 404.535156 " fill-opacity="1" fill-rule="nonzero"/><path fill="#ffffff" d="M 283.855469 428.214844 C 282.515625 434.222656 281.992188 441.722656 281.992188 448.277344 L 294.234375 438.316406 Z M 283.855469 428.214844 " fill-opacity="1" fill-rule="nonzero"/><path fill="#ffffff" d="M 286.550781 565.21875 L 290.546875 535.386719 C 287.65625 533.476562 283.996094 531.367188 280.269531 529.332031 C 275.363281 527.769531 264.007812 523.457031 255.746094 515.015625 L 235.582031 531.039062 C 237.636719 531.707031 240.355469 533.0625 242.566406 535.828125 C 246.117188 540.265625 259.5625 556.882812 259.5625 556.882812 C 259.847656 557.238281 260.003906 557.683594 260 558.136719 C 259.964844 562.253906 260.0625 568.496094 260.394531 572.519531 C 261.339844 573.097656 264.167969 573.949219 268.683594 573.640625 C 272.144531 573.402344 280.648438 572.097656 286.550781 565.21875 Z M 286.550781 565.21875 " fill-opacity="1" fill-rule="nonzero"/><path fill="#ffffff" d="M 351.585938 438.847656 L 341.253906 447.0625 C 348.367188 447.214844 354.539062 447.164062 359.910156 446.90625 C 356.753906 444.121094 353.550781 440.886719 351.585938 438.847656 Z M 351.585938 438.847656 " fill-opacity="1" fill-rule="nonzero"/><path fill="#ffffff" d="M 294.347656 556.382812 L 299.199219 560.425781 C 300.460938 561.476562 301.085938 563.128906 300.828125 564.742188 C 300.28125 568.179688 299.269531 576.769531 301.21875 584.050781 C 305.472656 585.523438 311.84375 586.472656 318.621094 582.960938 C 327.636719 578.285156 329.148438 565.671875 329.363281 560.054688 C 328.90625 560.070312 328.453125 560.085938 328.007812 560.085938 C 312.726562 560.089844 304.761719 550.339844 299.234375 543.574219 C 298.289062 542.421875 297.378906 541.316406 296.5 540.328125 Z M 294.347656 556.382812 " fill-opacity="1" fill-rule="nonzero"/><path fill="#ffffff" d="M 323.234375 400.652344 C 320.203125 398.199219 319.566406 393.953125 319.789062 389.96875 C 311.667969 399.0625 297.722656 413.5625 289.546875 417.457031 C 287.855469 418.261719 286.503906 420.21875 285.4375 422.894531 L 298.074219 435.195312 L 335.476562 404.765625 C 331.136719 404.210938 326.203125 403.054688 323.234375 400.652344 Z M 323.234375 400.652344 " fill-opacity="1" fill-rule="nonzero"/><path fill="#ffffff" d="M 203.765625 531.910156 C 204.929688 531.664062 206.335938 531.382812 207.601562 531.617188 L 247.089844 500.019531 C 247.070312 499.945312 247.042969 499.871094 247.027344 499.792969 C 245.878906 495.015625 245.703125 490.789062 246.132812 487.082031 C 241.382812 490.949219 236.4375 494.5625 231.769531 497.582031 L 200.226562 523.242188 C 199.308594 526.359375 198.691406 530.34375 199.75 531.808594 C 200.257812 532.511719 201.449219 532.402344 203.765625 531.910156 Z M 203.765625 531.910156 " fill-opacity="1" fill-rule="nonzero"/><path fill="#ffffff" d="M 340.398438 562.203125 C 338.949219 561.058594 336.003906 562.402344 334.5625 563.234375 L 333.257812 569.242188 C 343.746094 581.121094 355.414062 593.621094 359.621094 597.136719 C 360.226562 593.957031 360.597656 586.660156 360.628906 580.140625 C 357.402344 577.230469 343.179688 564.398438 340.398438 562.203125 Z M 340.398438 562.203125 " fill-opacity="1" fill-rule="nonzero"/><path fill="#ffffff" d="M 297.15625 584.046875 C 295.359375 576.28125 296.382812 567.660156 296.941406 564.125 C 296.984375 563.871094 296.886719 563.617188 296.683594 563.449219 L 293.730469 560.988281 L 292.921875 567.015625 C 292.84375 567.601562 292.609375 568.152344 292.242188 568.617188 C 291.09375 570.066406 289.855469 571.316406 288.578125 572.429688 L 293.5 582.277344 Z M 297.15625 584.046875 " fill-opacity="1" fill-rule="nonzero"/><path fill="#000000" d="M 599.671875 506.761719 C 594.636719 510.414062 589.429688 514.1875 583.285156 517.71875 C 566.523438 527.347656 505.605469 530.847656 465.296875 533.164062 C 449.90625 534.050781 437.75 534.75 431.210938 535.582031 C 410.421875 538.238281 371.214844 545.804688 345.269531 550.8125 L 334.570312 552.871094 C 321.125 555.445312 313.832031 550.191406 308.164062 543.96875 C 308.628906 525 311.683594 507.476562 311.714844 507.296875 L 307.84375 506.617188 C 307.8125 506.785156 305.15625 521.996094 304.382812 539.519531 C 304.359375 539.488281 304.332031 539.457031 304.308594 539.425781 C 302.425781 537.128906 300.652344 534.953125 298.757812 533.3125 C 298.332031 532.941406 297.855469 532.558594 297.339844 532.164062 C 297.792969 513.15625 300.859375 495.570312 300.890625 495.390625 L 297.015625 494.707031 C 296.988281 494.882812 294.140625 511.191406 293.480469 529.492188 C 291 527.890625 288.125 526.203125 285.164062 524.554688 C 283.75 516.828125 281.554688 501.960938 282.945312 495.695312 C 285.011719 486.394531 283.199219 473.019531 277.765625 469.710938 C 275.878906 468.5625 272.449219 467.785156 269.035156 467.265625 L 276.441406 461.238281 C 285.597656 457.0625 303.210938 452.324219 335.242188 453.453125 C 388.535156 455.300781 396.96875 446.628906 409.617188 428.398438 C 410.527344 427.089844 411.464844 425.734375 412.46875 424.332031 C 419.75 414.136719 420.253906 402.347656 413.984375 389.261719 L 525.757812 300.429688 C 546.824219 310.152344 564.863281 317.417969 579.359375 322.007812 C 590.644531 325.578125 600.402344 328.796875 609.011719 331.636719 C 641.027344 342.191406 658.660156 348.007812 684.503906 348.550781 C 689.027344 348.648438 696.28125 349.859375 706.027344 352.140625 C 706.328125 352.210938 706.605469 352.273438 706.914062 352.34375 L 708.425781 345.96875 C 697.621094 343.40625 689.839844 342.109375 684.640625 342 C 659.78125 341.476562 643.5 336.105469 611.066406 325.410156 C 602.4375 322.566406 592.660156 319.339844 581.339844 315.757812 C 567.800781 311.472656 551.03125 304.761719 531.519531 295.851562 L 704.539062 158.347656 C 704.765625 158.171875 710.058594 153.90625 710.667969 146.804688 C 711.105469 141.6875 709.066406 136.570312 704.609375 131.597656 C 693.785156 119.515625 683.042969 122.273438 678.78125 125.488281 L 492.566406 276.976562 C 459.859375 260.296875 431.164062 243.796875 421.050781 237.28125 C 402.84375 225.554688 382.808594 226.1875 359.796875 239.214844 C 348.925781 245.371094 302.289062 258.8125 264.816406 269.617188 C 242.203125 276.136719 222.675781 281.765625 216.0625 284.359375 C 195.953125 292.246094 196.113281 305 198.5 315.226562 C 200.71875 324.722656 212.769531 397.441406 213.9375 404.484375 C 213.332031 408.054688 209.945312 428.382812 207.613281 449.414062 C 206.550781 459 205.902344 466.882812 205.5625 473.394531 C 204.835938 484.628906 204.703125 497.90625 207.382812 503.96875 C 207.625 504.527344 208.113281 504.9375 208.703125 505.082031 C 208.859375 505.121094 209.019531 505.140625 209.179688 505.140625 C 209.5625 505.140625 209.929688 505.011719 210.253906 504.796875 C 210.671875 505.109375 211.105469 505.378906 211.566406 505.566406 L 192.519531 521.0625 C 192.351562 521.199219 192.199219 521.351562 192.0625 521.515625 L 157.914062 562.773438 C 156.292969 564.730469 156.253906 567.5 157.820312 569.5 C 158.871094 570.84375 160.429688 571.570312 162.03125 571.570312 C 162.820312 571.570312 163.617188 571.394531 164.371094 571.035156 L 174.019531 566.402344 C 174.09375 566.394531 174.15625 566.398438 174.230469 566.386719 L 174.21875 566.304688 L 216.816406 545.847656 C 217.039062 545.742188 217.246094 545.613281 217.4375 545.460938 L 229.746094 535.675781 C 236.253906 546.839844 252.070312 573.695312 255.601562 577.070312 C 257.738281 579.117188 261.820312 580.261719 266.78125 580.261719 C 267.546875 580.261719 268.332031 580.234375 269.136719 580.179688 C 272.347656 579.957031 279.0625 578.96875 285.386719 574.839844 L 290.285156 584.632812 C 290.449219 584.964844 290.71875 585.226562 291.035156 585.417969 L 291.101562 585.5625 C 291.339844 586.074219 291.710938 586.519531 292.171875 586.847656 C 292.574219 587.132812 299.472656 591.941406 308.882812 591.941406 C 312.796875 591.9375 317.144531 591.109375 321.636719 588.777344 C 327.578125 585.699219 331.0625 580.402344 333.105469 575.003906 C 354.121094 598.667969 358.804688 601.910156 360.613281 601.910156 C 360.964844 601.910156 361.210938 601.789062 361.445312 601.671875 C 361.570312 601.609375 361.710938 601.539062 361.863281 601.421875 C 362.355469 601.695312 362.898438 601.835938 363.441406 601.835938 C 364.242188 601.835938 365.039062 601.546875 365.664062 600.96875 C 366.128906 600.539062 377.050781 590.414062 382.46875 581.675781 C 387.265625 573.941406 384.390625 557.324219 382.878906 550.320312 C 401.363281 546.886719 419.914062 543.632812 432.042969 542.085938 C 438.351562 541.277344 451.015625 540.550781 465.671875 539.707031 C 509.046875 537.214844 568.445312 533.800781 586.550781 523.402344 C 592.996094 519.699219 598.585938 515.644531 603.519531 512.066406 C 617.3125 502.0625 627.285156 494.835938 645.910156 500.351562 C 651.84375 502.113281 664.476562 506.84375 682.449219 514.039062 L 684.886719 507.957031 C 683.707031 507.484375 682.488281 506.996094 681.25 506.507812 C 669.1875 501.707031 654.792969 496.148438 647.773438 494.070312 C 626.042969 487.628906 613.824219 496.496094 599.671875 506.761719 Z M 346.511719 557.246094 C 355.363281 555.539062 365.757812 553.53125 376.433594 551.527344 C 378.347656 560.285156 379.871094 573.425781 376.898438 578.222656 C 373.539062 583.640625 367.585938 589.890625 364.0625 593.394531 C 364.363281 590.171875 364.5625 585.652344 364.5625 579.269531 C 364.5625 578.714844 364.328125 578.1875 363.914062 577.8125 C 363.1875 577.15625 346.0625 561.664062 342.835938 559.117188 C 342.347656 558.730469 341.832031 558.453125 341.300781 558.25 Z M 359.621094 597.136719 C 355.414062 593.621094 343.746094 581.121094 333.257812 569.242188 L 334.566406 563.234375 C 336.003906 562.402344 338.949219 561.058594 340.398438 562.203125 C 343.179688 564.398438 357.402344 577.230469 360.628906 580.140625 C 360.597656 586.660156 360.226562 593.957031 359.621094 597.136719 Z M 299.234375 543.574219 C 304.761719 550.339844 312.726562 560.089844 328.007812 560.085938 C 328.453125 560.085938 328.90625 560.070312 329.363281 560.050781 C 329.148438 565.671875 327.636719 578.285156 318.621094 582.960938 C 311.84375 586.472656 305.472656 585.523438 301.21875 584.050781 C 299.269531 576.769531 300.28125 568.179688 300.828125 564.742188 C 301.085938 563.128906 300.460938 561.476562 299.199219 560.425781 L 294.347656 556.382812 L 296.5 540.328125 C 297.378906 541.316406 298.289062 542.421875 299.234375 543.574219 Z M 260.394531 572.519531 C 260.0625 568.496094 259.964844 562.253906 260 558.136719 C 260.003906 557.683594 259.851562 557.238281 259.5625 556.886719 C 259.5625 556.886719 246.117188 540.269531 242.566406 535.828125 C 240.355469 533.0625 237.636719 531.707031 235.582031 531.039062 L 255.746094 515.015625 C 264.007812 523.457031 275.363281 527.769531 280.269531 529.332031 C 283.996094 531.367188 287.65625 533.480469 290.546875 535.386719 L 286.550781 565.21875 C 280.648438 572.097656 272.144531 573.402344 268.683594 573.640625 C 264.167969 573.949219 261.339844 573.097656 260.394531 572.519531 Z M 211.253906 455.34375 C 211.394531 454.308594 211.871094 453.785156 212.183594 453.585938 C 212.320312 454.742188 212.679688 459.9375 213.09375 465.941406 C 213.828125 476.554688 214.742188 489.761719 215.238281 492.488281 C 215.503906 493.9375 213.066406 497.066406 210.136719 499.777344 C 207.097656 487.050781 211.207031 455.714844 211.253906 455.34375 Z M 219.109375 491.785156 C 218.652344 489.273438 217.707031 475.632812 217.019531 465.671875 C 216.578125 459.292969 216.230469 454.257812 216.078125 453.0625 C 215.90625 451.660156 215.179688 450.574219 214.144531 450.003906 C 216.679688 427.207031 220.449219 405.273438 220.488281 405.050781 C 220.550781 404.691406 220.550781 404.320312 220.492188 403.957031 C 219.953125 400.695312 207.25 323.875 204.882812 313.738281 C 202.515625 303.582031 203.957031 296.148438 218.457031 290.460938 C 224.785156 287.980469 244.175781 282.390625 266.632812 275.914062 C 304.433594 265.019531 351.480469 251.453125 363.027344 244.921875 C 383.71875 233.207031 401.535156 232.511719 417.5 242.792969 C 427.460938 249.207031 455.171875 265.167969 487.007812 281.496094 L 389.226562 361.042969 C 388.558594 361.070312 387.648438 361.09375 386.503906 361.089844 C 376.292969 337.800781 379.058594 301.519531 379.089844 301.144531 L 374.1875 300.75 C 374.066406 302.285156 371.449219 336.5625 381.101562 360.898438 C 368.460938 360.0625 344.613281 355.980469 318.929688 338.636719 C 327.15625 332.207031 330.574219 325.621094 330.84375 325.085938 L 324.984375 322.144531 C 324.519531 323.058594 313.203125 344.457031 279.066406 344.695312 C 265.453125 327.730469 240.070312 312.992188 238.957031 312.351562 L 236.503906 316.613281 C 236.765625 316.765625 262.210938 331.539062 275.25 347.792969 C 275.246094 347.875 275.226562 347.957031 275.230469 348.039062 C 275.234375 348.417969 275.828125 386.054688 270.425781 398.445312 C 266.457031 407.554688 265.851562 423.921875 265.316406 438.359375 C 265.042969 445.652344 264.789062 452.539062 264.105469 456.757812 C 263.710938 459.1875 261.5 462.652344 258.175781 466.574219 C 258.09375 466.613281 258.003906 466.632812 257.925781 466.683594 C 257.855469 466.726562 254.660156 468.785156 251.585938 473.011719 L 226.796875 493.179688 C 223.113281 495.480469 219.644531 497.332031 216.664062 498.488281 C 218.300781 496.328125 219.5 493.925781 219.109375 491.785156 Z M 699.726562 135.96875 C 702.90625 139.519531 704.394531 142.953125 704.140625 146.175781 C 703.808594 150.4375 700.488281 153.195312 700.46875 153.210938 L 653.4375 190.589844 L 646.777344 181.714844 C 646.738281 181.660156 646.699219 181.613281 646.65625 181.5625 L 636.617188 170.164062 L 635.585938 169.074219 L 682.789062 130.671875 C 683.550781 130.132812 690.496094 125.667969 699.726562 135.96875 Z M 628.746094 176.007812 C 628.597656 175.835938 628.429688 175.683594 628.238281 175.558594 L 627.894531 175.328125 L 631.761719 172.183594 L 632.984375 173.476562 L 642.902344 184.742188 L 649.585938 193.648438 L 645.40625 196.972656 L 639.890625 189.058594 C 639.84375 188.992188 639.792969 188.925781 639.742188 188.863281 Z M 278.148438 494.628906 C 276.542969 501.855469 278.804688 516.816406 280.082031 524.058594 C 272.40625 521.316406 255.410156 513.660156 251.804688 498.648438 C 247.742188 481.710938 257.351562 473.203125 259.9375 471.265625 C 264.960938 471.574219 272.894531 472.5 275.210938 473.910156 C 277.710938 475.433594 280.121094 485.746094 278.148438 494.628906 Z M 213.75 540.019531 C 212.550781 540.390625 211.410156 540.644531 210.710938 540.675781 C 210.675781 540.121094 210.738281 539.300781 210.78125 538.742188 C 210.863281 537.667969 210.949219 536.507812 210.769531 535.378906 L 248.792969 504.953125 C 249.582031 506.730469 250.519531 508.394531 251.582031 509.953125 Z M 200.226562 523.242188 L 231.769531 497.582031 C 236.4375 494.5625 241.382812 490.949219 246.132812 487.082031 C 245.703125 490.789062 245.878906 495.015625 247.027344 499.792969 C 247.042969 499.871094 247.070312 499.945312 247.089844 500.019531 L 207.601562 531.617188 C 206.335938 531.382812 204.929688 531.664062 203.765625 531.910156 C 201.449219 532.402344 200.257812 532.511719 199.75 531.808594 C 198.691406 530.34375 199.308594 526.359375 200.226562 523.242188 Z M 270.71875 456.78125 C 271.355469 452.210938 271.59375 445.878906 271.863281 438.601562 C 272.316406 426.425781 272.875 411.511719 275.699219 403.027344 C 279.492188 404.316406 283.152344 406.015625 283.871094 407.160156 C 284.953125 408.871094 285.578125 411.964844 285.867188 413.996094 C 276.980469 420.699219 276.902344 444.265625 277.144531 452.222656 L 272.867188 455.699219 C 272.105469 456.0625 271.386719 456.421875 270.71875 456.78125 Z M 281.8125 351.199219 C 295.085938 350.695312 305.136719 347.191406 312.578125 342.910156 C 314.929688 348.273438 320.90625 361.214844 324.765625 363.527344 C 326.335938 364.921875 324.800781 376.007812 322.039062 379.777344 C 319.339844 383.453125 301.210938 404.007812 290.398438 411.277344 C 289.972656 409.113281 289.246094 406.460938 288.03125 404.535156 C 286.316406 401.824219 281.148438 399.667969 277.417969 398.410156 C 281.503906 385.644531 281.832031 360.277344 281.8125 351.199219 Z M 283.855469 428.214844 L 294.234375 438.316406 L 281.992188 448.277344 C 281.992188 441.722656 282.515625 434.222656 283.855469 428.214844 Z M 298.074219 435.195312 L 285.4375 422.894531 C 286.503906 420.21875 287.855469 418.261719 289.546875 417.457031 C 297.722656 413.5625 311.667969 399.0625 319.789062 389.96875 C 319.566406 393.953125 320.203125 398.199219 323.234375 400.652344 C 326.203125 403.054688 331.136719 404.210938 335.476562 404.765625 Z M 340.980469 400.289062 C 336.363281 400.082031 329.324219 399.257812 326.328125 396.832031 C 323.390625 394.453125 324.96875 386.191406 326.257812 382.296875 C 328.839844 378.378906 331.082031 368.988281 330.019531 363.707031 C 329.597656 361.625 328.6875 360.152344 327.3125 359.324219 C 325.96875 358.519531 322.917969 353.195312 319.953125 347.121094 C 345.53125 363.078125 368.667969 366.808594 381.257812 367.523438 Z M 172.328125 559.941406 C 171.46875 559.933594 170.972656 559.757812 170.800781 559.5625 C 170.527344 559.257812 170.460938 558.503906 170.511719 557.832031 L 194.292969 529.097656 C 194.289062 531.15625 194.664062 533.164062 195.769531 534.691406 C 198.242188 538.105469 202.335938 537.238281 204.785156 536.71875 C 205.132812 536.644531 205.574219 536.550781 205.953125 536.488281 C 205.980469 537.058594 205.921875 537.832031 205.878906 538.367188 C 205.753906 540.027344 205.613281 541.902344 206.5 543.53125 Z M 256.261719 569.523438 C 249.722656 559.714844 237.492188 540.566406 234.066406 534.671875 C 235.566406 535.113281 237.742188 536.09375 239.496094 538.285156 C 242.664062 542.246094 253.710938 555.90625 256.0625 558.8125 C 256.054688 560.878906 256.0625 565.382812 256.261719 569.523438 Z M 292.242188 568.617188 C 292.609375 568.152344 292.84375 567.601562 292.921875 567.015625 L 293.730469 560.988281 L 296.683594 563.449219 C 296.886719 563.617188 296.984375 563.871094 296.941406 564.125 C 296.382812 567.660156 295.359375 576.28125 297.15625 584.046875 L 293.5 582.277344 L 288.578125 572.429688 C 289.855469 571.316406 291.09375 570.066406 292.242188 568.617188 Z M 623.902344 178.578125 L 625.230469 179.460938 L 634.355469 190.128906 L 313.234375 447.089844 C 304.070312 447.617188 296.472656 448.691406 290.195312 450.050781 Z M 321.496094 446.777344 L 637.359375 194.023438 L 641.550781 200.035156 L 331.0625 446.785156 C 327.722656 446.722656 324.53125 446.71875 321.496094 446.777344 Z M 341.253906 447.0625 L 351.585938 438.847656 C 353.550781 440.886719 356.753906 444.121094 359.910156 446.90625 C 354.539062 447.164062 348.367188 447.214844 341.253906 447.0625 Z M 407.132812 420.523438 C 406.117188 421.949219 405.15625 423.328125 404.234375 424.664062 C 395.953125 436.59375 390.734375 444.09375 367.082031 446.394531 C 364.035156 444.277344 359.121094 439.558594 355.453125 435.773438 L 408.699219 393.460938 C 413.261719 403.777344 412.746094 412.664062 407.132812 420.523438 Z M 407.132812 420.523438 " fill-opacity="1" fill-rule="nonzero"/><path fill="#ffffff" d="M 256.0625 558.8125 C 253.710938 555.90625 242.664062 542.246094 239.496094 538.285156 C 237.742188 536.09375 235.566406 535.113281 234.066406 534.671875 C 237.492188 540.566406 249.722656 559.714844 256.261719 569.523438 C 256.0625 565.382812 256.054688 560.878906 256.0625 558.8125 Z M 256.0625 558.8125 " fill-opacity="1" fill-rule="nonzero"/><path fill="#ffffff" d="M 259.9375 471.265625 C 257.351562 473.203125 247.742188 481.710938 251.804688 498.648438 C 255.410156 513.660156 272.40625 521.316406 280.082031 524.058594 C 278.804688 516.816406 276.542969 501.855469 278.148438 494.628906 C 280.121094 485.746094 277.710938 475.433594 275.207031 473.910156 C 272.894531 472.503906 264.960938 471.574219 259.9375 471.265625 Z M 259.9375 471.265625 " fill-opacity="1" fill-rule="nonzero"/><path fill="#ffffff" d="M 210.136719 499.777344 C 213.070312 497.066406 215.503906 493.9375 215.238281 492.488281 C 214.742188 489.761719 213.828125 476.554688 213.09375 465.941406 C 212.679688 459.9375 212.320312 454.742188 212.183594 453.585938 C 211.871094 453.785156 211.394531 454.308594 211.253906 455.34375 C 211.207031 455.714844 207.097656 487.050781 210.136719 499.777344 Z M 210.136719 499.777344 " fill-opacity="1" fill-rule="nonzero"/></svg>