<?xml version="1.0" encoding="UTF-8"?>
<svg version="1.1" xmlns="http://www.w3.org/2000/svg" width="1008" height="201">
<path d="M0 0 C1.875 1.125 1.875 1.125 3 3 C2.93566569 7.18173044 2.36107606 8.64738253 -0.66796875 11.60546875 C-1.8288835 12.48261552 -3.00299269 13.34248405 -4.1875 14.1875 C-5.45480218 15.13491512 -6.7217173 16.08284819 -7.98828125 17.03125 C-8.64521973 17.51464844 -9.3021582 17.99804688 -9.97900391 18.49609375 C-13.33175226 20.99101158 -16.59879352 23.59342999 -19.875 26.1875 C-21.05950108 27.11899178 -22.2443602 28.05002856 -23.4296875 28.98046875 C-24.70199219 29.98013672 -24.70199219 29.98013672 -26 31 C-22.89912296 40.37244061 -22.89912296 40.37244061 -16.6953125 47.59375 C-14.1036495 48.35551676 -11.68687843 48.72898921 -9 49 C-6.95681988 49.38794559 -4.91510109 49.78367536 -2.875 50.1875 C-1.25098316 50.46416769 0.37368278 50.73719208 2 51 C5.82948596 60.88007377 5.19015778 71.98862296 1.08984375 81.6484375 C0.73019531 82.42445312 0.37054688 83.20046875 0 84 C-0.58498123 85.39514352 -1.16854074 86.79088495 -1.75 88.1875 C-2.36875 89.5796875 -2.36875 89.5796875 -3 91 C-3.66386719 90.77183594 -4.32773438 90.54367188 -5.01171875 90.30859375 C-5.89472656 90.02113281 -6.77773437 89.73367187 -7.6875 89.4375 C-8.55761719 89.14746094 -9.42773438 88.85742188 -10.32421875 88.55859375 C-13.48346473 87.89907233 -15.02243352 87.69218717 -18 89 C-19.53002053 91.52003381 -20.70944385 93.82048124 -21.875 96.5 C-28.93808585 111.50161041 -39.39703685 121.65895578 -55 128 C-71.13090025 133.7731643 -87.90245813 133.52264483 -103.75 126.75 C-111.33619332 123.03522687 -118.33161349 118.29820724 -124 112 C-124.46792969 111.51273437 -124.93585938 111.02546875 -125.41796875 110.5234375 C-136.78972912 98.18697766 -141.42880519 81.99027851 -141.203125 65.515625 C-140.15375126 47.35338723 -132.2207598 32.17652489 -119 20 C-105.58880991 8.18485237 -88.4962158 5.2867021 -71.19433594 5.859375 C-66.23924592 6.17692416 -61.68149845 7.41655199 -57 9 C-56.1646875 9.25523438 -55.329375 9.51046875 -54.46875 9.7734375 C-47.91528828 12.03396702 -42.89982568 15.86063635 -37.56640625 20.171875 C-35.1179149 22.29009114 -35.1179149 22.29009114 -32 22 C-29.78718774 20.26434402 -27.71068578 18.50305453 -25.625 16.625 C-24.37050016 15.52634581 -23.11394198 14.43003806 -21.85546875 13.3359375 C-21.21657715 12.7800293 -20.57768555 12.22412109 -19.91943359 11.65136719 C-16.97574982 9.1187957 -13.9817474 6.66043492 -10.9375 4.25 C-9.91527344 3.43015625 -8.89304688 2.6103125 -7.83984375 1.765625 C-4.82602298 -0.10816728 -3.46559816 -0.51833294 0 0 Z " fill="#152234" transform="translate(180,44)"/>
<path d="M0 0 C0.8353125 0.25523438 1.670625 0.51046875 2.53125 0.7734375 C9.79725237 3.27974844 16.50298543 7.63521603 22 13 C22 17 22 17 19.8046875 19.39453125 C18.83789062 20.19246094 17.87109375 20.99039063 16.875 21.8125 C15.92367187 22.62332031 14.97234375 23.43414062 13.9921875 24.26953125 C11 26 11 26 8.0546875 26.015625 C4.4284082 24.80995669 1.43753027 22.98852923 -1.75 20.9375 C-7.69883132 17.3569238 -12.09807491 15.64213372 -19 17 C-20.50212742 17.55221065 -21.98784956 18.1504685 -23.45703125 18.78515625 C-29.65939473 21.33974539 -36.01830702 23.25775953 -42.4375 25.1875 C-44.74874977 25.88915213 -47.05995009 26.59096719 -49.37109375 27.29296875 C-50.38099365 27.5974292 -51.39089355 27.90188965 -52.43139648 28.21557617 C-54.29557873 28.78487734 -56.15085118 29.38361706 -58 30 C-58.16457246 35.10832913 -57.56499897 39.52484758 -56.4375 44.5 C-55.01516353 51.33935403 -54.96996785 57.46999515 -55.69921875 64.453125 C-55.99026452 67.88519721 -55.85113464 71.06958022 -55.625 74.5 C-55.58148166 77.74211628 -55.60618371 79.40927557 -57.4140625 82.12109375 C-59.19414178 83.88223602 -61.04645909 85.43632884 -63 87 C-65.40564074 89.78547875 -66.83860216 91.51580647 -68 95 C-62.39 92.36 -56.78 89.72 -51 87 C-49.7315625 89.2275 -49.7315625 89.2275 -48.4375 91.5 C-46.88707608 94.00157177 -46.88707608 94.00157177 -45 96 C-41.24356576 96.75413353 -41.24356576 96.75413353 -38 96 C-38 95.34 -38 94.68 -38 94 C-40.97 94.495 -40.97 94.495 -44 95 C-44.45375 93.9275 -44.9075 92.855 -45.375 91.75 C-46.50088537 89.11937683 -47.67920206 86.53999604 -49 84 C-47.4375 82.75 -47.4375 82.75 -45 82 C-42.42998985 83.06762734 -40.3469597 84.46544943 -38 86 C-38 88.31 -38 90.62 -38 93 C-37.34 93 -36.68 93 -36 93 C-36 94.98 -36 96.96 -36 99 C-34.3603125 98.505 -34.3603125 98.505 -32.6875 98 C-29 97 -29 97 -26 97 C-23.8125 99 -23.8125 99 -22 101 C-19.3094472 99.77992056 -19.3094472 99.77992056 -17 98 C-16.76807135 96.48530552 -16.58784762 94.96245438 -16.4375 93.4375 C-16.35371094 92.61121094 -16.26992187 91.78492188 -16.18359375 90.93359375 C-16.12300781 90.29550781 -16.06242187 89.65742188 -16 89 C-17.485 88.505 -17.485 88.505 -19 88 C-9.57933499 86.2421124 -0.26960959 85.41618938 9.2890625 84.87695312 C18.19519743 84.28710767 27.76447423 83.6298045 35.1875 78.25 C38.90471853 75.68426912 41.48684616 75.61831916 45.87890625 76.40234375 C48.81414348 77.22939954 51.37922127 78.45441254 54 80 C54 80.66 54 81.32 54 82 C53.33613281 81.77183594 52.67226562 81.54367188 51.98828125 81.30859375 C51.10527344 81.02113281 50.22226563 80.73367187 49.3125 80.4375 C48.44238281 80.14746094 47.57226562 79.85742188 46.67578125 79.55859375 C43.51653527 78.89907233 41.97756648 78.69218717 39 80 C37.46997947 82.52003381 36.29055615 84.82048124 35.125 87.5 C28.06191415 102.50161041 17.60296315 112.65895578 2 119 C-14.13090025 124.7731643 -30.90245813 124.52264483 -46.75 117.75 C-54.33619332 114.03522687 -61.33161349 109.29820724 -67 103 C-67.46792969 102.51273437 -67.93585938 102.02546875 -68.41796875 101.5234375 C-79.78972912 89.18697766 -84.42880519 72.99027851 -84.203125 56.515625 C-83.15375126 38.35338723 -75.2207598 23.17652489 -62 11 C-45.52701875 -3.51256034 -20.46382979 -6.92158949 0 0 Z " fill="#2C7FF4" transform="translate(123,53)"/>
<path d="M0 0 C7.26 0 14.52 0 22 0 C26.29 16.83 30.58 33.66 35 51 C39.23566962 34.96474282 39.23566962 34.96474282 43.46655273 18.92822266 C43.99705902 16.92345654 44.52772811 14.91873349 45.05859375 12.9140625 C45.33417114 11.86629639 45.60974854 10.81853027 45.89367676 9.73901367 C46.15749146 8.74442139 46.42130615 7.7498291 46.69311523 6.72509766 C46.92183823 5.85905914 47.15056122 4.99302063 47.38621521 4.10073853 C48 2 48 2 49 0 C53.95 0 58.9 0 64 0 C64.38857178 1.43835205 64.77714355 2.8767041 65.17749023 4.35864258 C66.61719912 9.68700667 68.05805806 15.0150592 69.49926758 20.34301758 C70.12328036 22.65054964 70.74697979 24.95816647 71.37036133 27.26586914 C72.26561748 30.57981255 73.16199422 33.89345108 74.05859375 37.20703125 C74.47739052 38.75871758 74.47739052 38.75871758 74.90464783 40.3417511 C75.16484207 41.3025206 75.42503632 42.2632901 75.69311523 43.25317383 C75.92183823 44.09922684 76.15056122 44.94527985 76.38621521 45.81697083 C76.87598291 47.55891231 77.4277909 49.2833727 78 51 C84.435 25.755 84.435 25.755 91 0 C97.93 0 104.86 0 112 0 C111.28008154 5.03942919 110.453264 9.34366604 109.06640625 14.17285156 C108.8727951 14.85180481 108.67918396 15.53075806 108.47970581 16.23028564 C107.84505029 18.45168991 107.20386191 20.67114865 106.5625 22.890625 C106.11753397 24.44274015 105.67296002 25.99496776 105.22875977 27.54730225 C104.062772 31.61777422 102.89112926 35.68659765 101.71838379 39.75512695 C100.76065937 43.08120542 99.80689569 46.40841325 98.85334778 49.73569107 C96.88420797 56.60654912 94.91252375 63.47668143 92.93359375 70.34472656 C92.58353271 71.56049377 92.23347168 72.77626099 91.87280273 74.02886963 C91.2848663 76.03027926 90.65964458 78.02106625 90 80 C82.74 80 75.48 80 68 80 C67.21753906 77.19628906 66.43507813 74.39257812 65.62890625 71.50390625 C64.87180986 68.79982445 64.11357369 66.09606471 63.35522461 63.39233398 C62.82733675 61.50790275 62.30064113 59.62313712 61.77514648 57.73803711 C61.02117426 55.03411221 60.26297278 52.3314048 59.50390625 49.62890625 C59.26845596 48.78099014 59.03300568 47.93307404 58.79042053 47.0594635 C57.97981002 43.22456693 57.97981002 43.22456693 56 40 C55.67201416 41.17618896 55.34402832 42.35237793 55.00610352 43.56420898 C53.7924904 47.91296821 52.57452869 52.26049932 51.35522461 56.60766602 C50.82733675 58.49209725 50.30064113 60.37686288 49.77514648 62.26196289 C49.02117426 64.96588779 48.26297278 67.6685952 47.50390625 70.37109375 C47.26845596 71.21900986 47.03300568 72.06692596 46.79042053 72.9405365 C45.11387171 78.88612829 45.11387171 78.88612829 44 80 C42.43827255 80.08685603 40.87270656 80.10702219 39.30859375 80.09765625 C38.36435547 80.09443359 37.42011719 80.09121094 36.44726562 80.08789062 C35.45404297 80.07951172 34.46082031 80.07113281 33.4375 80.0625 C32.44041016 80.05798828 31.44332031 80.05347656 30.41601562 80.04882812 C27.94395151 80.03700007 25.47200482 80.02051849 23 80 C19.80103175 72.10309253 17.62313555 63.91559646 15.33203125 55.72265625 C14.8881792 54.14457362 14.44405764 52.56656678 13.99967957 50.9886322 C13.07391922 47.69866047 12.15042956 44.40806333 11.22875977 41.11694336 C10.04500987 36.89015697 8.85704449 32.66457019 7.66759205 28.43938541 C6.75287139 25.18933829 5.83958677 21.93888919 4.92682457 18.68829155 C4.4888974 17.12882371 4.05069709 15.56943254 3.61222267 14.01011848 C3.00290415 11.84183933 2.39533848 9.67307722 1.78833008 7.50415039 C1.44208084 6.26919327 1.0958316 5.03423615 0.73908997 3.76185608 C0 1 0 1 0 0 Z " fill="#474545" transform="translate(588,62)"/>
<path d="M0 0 C4.68552849 1.54690718 9.35976966 3.119654 14.015625 4.75390625 C22.91044447 7.84151006 31.25807099 10.69549441 40.69921875 11.41796875 C43 12 43 12 44.30859375 13.578125 C45.25904073 16.90737431 45.38306817 20.1266705 45.375 23.5625 C45.37338867 24.27124268 45.37177734 24.97998535 45.37011719 25.71020508 C45.17574109 34.12840535 42.97556236 41.8110247 37 48 C35.80375 47.505 34.6075 47.01 33.375 46.5 C29.65101161 45.15233287 26.98744572 44.28225977 23 45 C20.56045076 46.38977805 18.24889854 47.87577552 15.953125 49.4921875 C8.16927403 53.46648178 -0.99930484 53.41172311 -9.5625 53.9375 C-18.67261702 54.55533181 -27.47653891 55.55284625 -36.4140625 57.4140625 C-40.40779765 58.0666336 -43.96033119 58.16649394 -48 58 C-49 57 -49 57 -49.125 53.5625 C-49 50 -49 50 -48 48 C-48.66 48 -49.32 48 -50 48 C-50 50.31 -50 52.62 -50 55 C-50.33 55 -50.66 55 -51 55 C-51.33 52.36 -51.66 49.72 -52 47 C-52.495 49.475 -52.495 49.475 -53 52 C-53.66 52 -54.32 52 -55 52 C-55.07347656 50.73542969 -55.07347656 50.73542969 -55.1484375 49.4453125 C-55.22320312 48.34960938 -55.29796875 47.25390625 -55.375 46.125 C-55.44460937 45.03445312 -55.51421875 43.94390625 -55.5859375 42.8203125 C-55.73253491 39.86953526 -55.73253491 39.86953526 -58 38 C-52.59063214 35.24553661 -46.96406498 35.61774583 -41.03710938 35.52148438 C-35.14932802 35.3306551 -30.66846732 34.48443509 -26.1875 30.3125 C-24.73333981 27.86833337 -24.73333981 27.86833337 -24.796875 24.19921875 C-24.33705465 20.22296621 -22.97205698 18.35470374 -19.79589844 15.79052734 C-18.93786621 15.15171631 -18.93786621 15.15171631 -18.0625 14.5 C-17.48145508 14.03932129 -16.90041016 13.57864258 -16.30175781 13.10400391 C-15.11812278 12.1684458 -13.92718642 11.24204836 -12.72900391 10.32519531 C-10.19982685 8.38670717 -7.72908278 6.37692213 -5.25 4.375 C-4.05117187 3.42753906 -4.05117187 3.42753906 -2.828125 2.4609375 C-1.09166198 1.12864522 -1.09166198 1.12864522 0 0 Z " fill="#FDFEFE" transform="translate(139,85)"/>
<path d="M0 0 C0.495 0.495 0.495 0.495 1 1 C1.33 0.01 1.66 -0.98 2 -2 C7.94 -2 13.88 -2 20 -2 C20.09073943 5.40678072 20.16396661 12.8132525 20.20724869 20.22047329 C20.22803277 23.66078449 20.25617889 27.10069235 20.30175781 30.54077148 C20.35394646 34.50499472 20.37302121 38.46906048 20.390625 42.43359375 C20.42159271 44.2669352 20.42159271 44.2669352 20.45318604 46.13731384 C20.45522799 53.98090357 19.70684959 60.67520844 14.4487915 66.80979919 C7.91045052 73.31097401 -0.61366217 75.2298075 -9.5625 75.4375 C-18.81129868 75.1558107 -27.09551006 73.52090716 -34 67 C-36.22864613 63.98054395 -37 62.75856468 -37 59 C-35.09118566 57.96455826 -33.17260796 56.94709915 -31.25 55.9375 C-30.18265625 55.36902344 -29.1153125 54.80054688 -28.015625 54.21484375 C-25 53 -25 53 -22.77734375 53.1875 C-21 54 -21 54 -18.3125 56.0625 C-14.03175858 58.56632988 -10.84721825 58.83960745 -6 58 C-2.42600891 56.64623538 -2.42600891 56.64623538 0 54 C0.97350778 50.3634269 0.97350778 50.3634269 1 47 C-0.0725 47.495 -1.145 47.99 -2.25 48.5 C-9.01116055 51.0174534 -16.6030538 51.10135956 -23.4375 48.75 C-31.28173889 44.89668967 -35.23614285 39.61962587 -38.3125 31.5625 C-39.98280686 22.90727357 -39.44607876 14.29675069 -34.5234375 6.73046875 C-25.94945242 -3.82062248 -12.19233274 -7.19457473 0 0 Z M-16 15 C-16.5775 15.4125 -17.155 15.825 -17.75 16.25 C-19.78264469 19.09570256 -19.883051 21.55000441 -20 25 C-18.50929132 29.07983427 -16.99381605 32.1081924 -13 34 C-8.32150756 34.71099041 -5.0646552 34.6654095 -1 32.125 C2.28670592 28.63287496 2.41101167 25.98272348 2.3359375 21.328125 C1.73453933 17.1602958 0.24257175 15.70214312 -3 13 C-8.06322767 11.19316271 -11.73683195 11.58946556 -16 15 Z " fill="#474545" transform="translate(947,94)"/>
<path d="M0 0 C5.94 0 11.88 0 18 0 C41.31034483 56.34482759 41.31034483 56.34482759 50 80 C43.07 80 36.14 80 29 80 C24 67.25 24 67.25 24 65 C14.1 65.33 4.2 65.66 -6 66 C-7.65 70.62 -9.3 75.24 -11 80 C-17.93 80 -24.86 80 -32 80 C-28.62819473 68.76064909 -28.62819473 68.76064909 -26.50390625 63.734375 C-26.033479 62.61144043 -25.56305176 61.48850586 -25.07836914 60.33154297 C-24.57813232 59.14963379 -24.07789551 57.96772461 -23.5625 56.75 C-22.48642275 54.18621341 -21.41463191 51.62064794 -20.34375 49.0546875 C-20.06938614 48.39812164 -19.79502228 47.74155579 -19.51234436 47.06509399 C-15.93256217 38.47479205 -12.51351796 29.81970363 -9.09790039 21.16308594 C-6.25957788 14.00741919 -3.24364102 6.98177541 0 0 Z M8 27 C6.82807565 30.12305373 5.66336124 33.24874739 4.5 36.375 C4.16613281 37.26445313 3.83226562 38.15390625 3.48828125 39.0703125 C3.17246094 39.92109375 2.85664063 40.771875 2.53125 41.6484375 C2.23798828 42.43395996 1.94472656 43.21948242 1.64257812 44.02880859 C0.89668911 45.97137234 0.89668911 45.97137234 1 48 C6.28 48 11.56 48 17 48 C14.72564796 40.81783567 11.96415819 33.9241798 9 27 C8.67 27 8.34 27 8 27 Z " fill="#474545" transform="translate(231,62)"/>
<path d="M0 0 C6.93 0 13.86 0 21 0 C25 8 29 16 33 24 C33.44653931 22.9627478 33.44653931 22.9627478 33.90209961 21.90454102 C35.24477486 18.78946102 36.59108667 15.67596602 37.9375 12.5625 C38.40607422 11.47388672 38.87464844 10.38527344 39.35742188 9.26367188 C39.80537109 8.22919922 40.25332031 7.19472656 40.71484375 6.12890625 C41.12855225 5.17056885 41.54226074 4.21223145 41.96850586 3.22485352 C43 1 43 1 44 0 C46.18639453 -0.07258946 48.37500389 -0.08373783 50.5625 -0.0625 C52.35880859 -0.04896484 52.35880859 -0.04896484 54.19140625 -0.03515625 C55.11824219 -0.02355469 56.04507813 -0.01195313 57 0 C58.67585347 3.59996502 60.33908513 7.20562136 62 10.8125 C62.47695313 11.83666016 62.95390625 12.86082031 63.4453125 13.91601562 C63.89648438 14.89892578 64.34765625 15.88183594 64.8125 16.89453125 C65.23144531 17.80050049 65.65039062 18.70646973 66.08203125 19.63989258 C67 22 67 22 67 25 C67.66 25 68.32 25 69 25 C69.350625 23.845 69.70125 22.69 70.0625 21.5 C72.50304063 14.1191417 75.84084455 7.09319808 79 0 C85.93 0 92.86 0 100 0 C97.74966549 6.75100353 97.74966549 6.75100353 96.21582031 9.64355469 C95.87496399 10.29153015 95.53410767 10.93950562 95.18292236 11.6071167 C94.81833923 12.28848694 94.4537561 12.96985718 94.078125 13.671875 C93.69565613 14.39433411 93.31318726 15.11679321 92.91912842 15.86114502 C92.11104099 17.38515839 91.3007148 18.90798656 90.48828125 20.4296875 C89.26266871 22.72626116 88.04483609 25.02682542 86.828125 27.328125 C84.9174602 30.93469356 82.97673526 34.52382334 81.02081299 38.10601807 C80.09753152 39.81904331 79.20943873 41.55092029 78.32568359 43.28466797 C77.01787211 45.72831308 75.81514299 47.9073047 74 50 C70.5703125 50.9765625 70.5703125 50.9765625 67.125 50.625 C65.97257812 50.53476563 64.82015625 50.44453125 63.6328125 50.3515625 C62.76398438 50.23554688 61.89515625 50.11953125 61 50 C57.33333333 42.66666667 53.66666667 35.33333333 50 28 C46.7 35.26 43.4 42.52 40 50 C35.38 50 30.76 50 26 50 C25.20078125 48.45054687 24.4015625 46.90109375 23.578125 45.3046875 C17.42053697 33.3991364 11.19089313 21.54562572 4.69628906 9.81982422 C4.22416992 8.96404785 3.75205078 8.10827148 3.265625 7.2265625 C2.85086914 6.47971191 2.43611328 5.73286133 2.00878906 4.96337891 C1 3 1 3 0 0 Z " fill="#474545" transform="translate(386,92)"/>
<path d="M0 0 C4.98778988 2.57641352 8.19917916 5.97253748 10 11.375 C10.0853013 14.25194671 10.11585645 17.10400182 10.09765625 19.98046875 C10.0962413 20.81967361 10.09482635 21.65887848 10.09336853 22.52351379 C10.08777215 25.20321216 10.07522035 27.8828269 10.0625 30.5625 C10.05748453 32.37955608 10.05292171 34.19661348 10.04882812 36.01367188 C10.03865491 40.46750604 10.0190788 44.92115943 10 49.375 C4.06 49.375 -1.88 49.375 -8 49.375 C-8.02578125 47.19519531 -8.0515625 45.01539063 -8.078125 42.76953125 C-8.11658777 40.64790178 -8.16173384 38.52651189 -8.20751953 36.4050293 C-8.23566611 34.9357455 -8.25691209 33.46631205 -8.27099609 31.99682617 C-8.2925153 29.87861886 -8.33920334 27.76219847 -8.390625 25.64453125 C-8.41157227 24.37198486 -8.43251953 23.09943848 -8.45410156 21.78833008 C-9.08614066 17.83638974 -10.14839574 16.14061483 -13 13.375 C-16.94289454 12.61997764 -18.46383861 13.01755907 -21.8125 15.25 C-25.43137737 18.76548088 -25.17079337 21.18197459 -25.31640625 26.1328125 C-25.33718735 26.79586395 -25.35796844 27.45891541 -25.37937927 28.14205933 C-25.44479231 30.26126694 -25.50372105 32.380599 -25.5625 34.5 C-25.60569309 35.93621081 -25.64930764 37.37240902 -25.69335938 38.80859375 C-25.80125909 42.33060344 -25.90039243 45.85270688 -26 49.375 C-31.94 49.375 -37.88 49.375 -44 49.375 C-44 32.875 -44 16.375 -44 -0.625 C-38.06 -0.625 -32.12 -0.625 -26 -0.625 C-25.67 0.365 -25.34 1.355 -25 2.375 C-24.113125 1.715 -23.22625 1.055 -22.3125 0.375 C-15.63328062 -3.41847145 -6.97341756 -2.77537354 0 0 Z " fill="#474545" transform="translate(892,92.625)"/>
<path d="M0 0 C5.32701141 2.43498007 8.45597136 4.83772397 11.078125 10.08203125 C12.35197627 13.90358505 12.20165688 17.48887595 12.17578125 21.46875 C12.1743663 22.28575882 12.17295135 23.10276764 12.17149353 23.9445343 C12.16589794 26.55290393 12.15334629 29.16118759 12.140625 31.76953125 C12.13560943 33.53841022 12.13104662 35.30729053 12.12695312 37.07617188 C12.11678103 41.41151807 12.09720479 45.74667847 12.078125 50.08203125 C6.138125 50.08203125 0.198125 50.08203125 -5.921875 50.08203125 C-5.97794922 46.92060547 -5.97794922 46.92060547 -6.03515625 43.6953125 C-6.08143205 41.6432079 -6.13264331 39.59128135 -6.18432617 37.53930664 C-6.21748057 36.11851923 -6.24554192 34.69760312 -6.26831055 33.27661133 C-6.30203347 31.22812305 -6.35435245 29.18080405 -6.41015625 27.1328125 C-6.43634033 25.90216064 -6.46252441 24.67150879 -6.48950195 23.40356445 C-6.95465006 19.83024992 -7.69473925 17.89663599 -9.921875 15.08203125 C-13.90735926 13.90114702 -15.98869723 13.65601531 -19.796875 15.39453125 C-22.0114681 16.90928288 -22.0114681 16.90928288 -22.921875 19.08203125 C-23.07708057 21.40476284 -23.17206667 23.73162438 -23.23828125 26.05859375 C-23.25906235 26.74384125 -23.27984344 27.42908875 -23.30125427 28.13510132 C-23.36667685 30.32564194 -23.42560054 32.51630314 -23.484375 34.70703125 C-23.52756718 36.19141875 -23.5711817 37.67579403 -23.61523438 39.16015625 C-23.72314638 42.80065943 -23.82227281 46.4412532 -23.921875 50.08203125 C-29.861875 50.08203125 -35.801875 50.08203125 -41.921875 50.08203125 C-41.921875 33.58203125 -41.921875 17.08203125 -41.921875 0.08203125 C-35.981875 0.08203125 -30.041875 0.08203125 -23.921875 0.08203125 C-23.591875 1.07203125 -23.261875 2.06203125 -22.921875 3.08203125 C-22.035 2.42203125 -21.148125 1.76203125 -20.234375 1.08203125 C-14.05314235 -2.40898881 -6.63215867 -2.08363274 0 0 Z " fill="#474545" transform="translate(324.921875,91.91796875)"/>
<path d="M0 0 C5.10175157 3.8602607 8.82287107 8.14924207 10.0546875 14.5546875 C10.0546875 18.1846875 10.0546875 21.8146875 10.0546875 25.5546875 C-1.4953125 25.5546875 -13.0453125 25.5546875 -24.9453125 25.5546875 C-23.67588743 31.2956629 -23.67588743 31.2956629 -21.09375 32.90625 C-17.34821847 34.03671952 -13.80893201 34.14805315 -9.9453125 33.5546875 C-8.3675 32.5028125 -8.3675 32.5028125 -6.7578125 31.4296875 C-3.9453125 29.5546875 -3.9453125 29.5546875 -1.0703125 30.0546875 C2.66145805 31.84593736 6.3861384 33.63661361 10.0546875 35.5546875 C5.6737168 42.80013904 1.08978034 46.87544616 -7.1640625 49.05078125 C-16.95558194 50.82480654 -24.60056273 49.59385894 -33.1328125 44.7421875 C-38.2284847 40.7788869 -42.45147934 35.95518803 -43.9453125 29.5546875 C-44.91774454 20.38773668 -44.11613117 12.98971805 -38.4375 5.58984375 C-28.80932598 -5.00114767 -12.39696197 -7.38808845 0 0 Z M-24.9453125 13.5546875 C-24.9453125 14.2146875 -24.9453125 14.8746875 -24.9453125 15.5546875 C-19.0053125 15.5546875 -13.0653125 15.5546875 -6.9453125 15.5546875 C-8.42170253 10.49460111 -8.42170253 10.49460111 -11.9453125 8.5546875 C-18.27534155 7.8400068 -20.88001853 8.21898917 -24.9453125 13.5546875 Z " fill="#474545" transform="translate(529.9453125,94.4453125)"/>
<path d="M0 0 C5.94 0 11.88 0 18 0 C18 5.94 18 11.88 18 18 C21.3 18 24.6 18 28 18 C28 22.62 28 27.24 28 32 C24.7 32 21.4 32 18 32 C18.33 38.6 18.66 45.2 19 52 C22.13349732 53.04449911 22.98968256 52.93423645 26 52 C26.70045456 53.91197039 27.384919 55.82980435 28.0625 57.75 C28.44535156 58.81734375 28.82820312 59.8846875 29.22265625 60.984375 C29.98010011 63.92280042 30.07151741 65.22348948 29 68 C22.21986023 70.35830948 15.59595885 71.22126904 8.6875 68.875 C4.56156808 65.99644284 1.62212349 62.86637047 0 58 C-0.08291953 56.0079697 -0.10738177 54.01326287 -0.09765625 52.01953125 C-0.09443359 50.85615234 -0.09121094 49.69277344 -0.08789062 48.49414062 C-0.07951172 47.27919922 -0.07113281 46.06425781 -0.0625 44.8125 C-0.05798828 43.58595703 -0.05347656 42.35941406 -0.04882812 41.09570312 C-0.03703065 38.06375332 -0.02056921 35.03190094 0 32 C-2.31 32 -4.62 32 -7 32 C-7 27.38 -7 22.76 -7 18 C-4.69 18 -2.38 18 0 18 C0 12.06 0 6.12 0 0 Z " fill="#474545" transform="translate(784,74)"/>
<path d="M0 0 C0.7437085 0.00580078 1.48741699 0.01160156 2.25366211 0.01757812 C7.86591205 0.1500206 12.44645805 1.1152726 17.625 3.375 C16.21207905 8.2024799 14.19525846 12.0912359 11.625 16.375 C10.820625 16.045 10.01625 15.715 9.1875 15.375 C4.88695205 14.16782865 1.05533819 14.19778647 -3.375 14.375 C-3.045 15.365 -2.715 16.355 -2.375 17.375 C0.43943 18.67354594 0.43943 18.67354594 3.8125 19.75 C10.00701128 22.01860391 14.583083 23.84805245 18 29.75 C19.49460571 36.027344 18.75448043 40.74193522 15.625 46.375 C9.6675292 52.60956246 3.53368098 53.44803719 -4.6875 53.75 C-11.02702287 53.64667832 -16.8101426 52.51613902 -22.375 49.375 C-23.365 48.055 -24.355 46.735 -25.375 45.375 C-23.065 41.745 -20.755 38.115 -18.375 34.375 C-13.375 36.375 -13.375 36.375 -11.5 37.5 C-8.44563826 38.75767836 -5.63753841 38.50048225 -2.375 38.375 C-2.045 37.385 -1.715 36.395 -1.375 35.375 C-2.80392578 34.70404297 -2.80392578 34.70404297 -4.26171875 34.01953125 C-5.52890985 33.4094022 -6.79582228 32.79869415 -8.0625 32.1875 C-8.68833984 31.89552734 -9.31417969 31.60355469 -9.95898438 31.30273438 C-14.71639249 28.98630006 -18.92847419 26.26805161 -21.375 21.375 C-21.96693905 16.85678166 -22.37094252 12.35621422 -20.28125 8.19921875 C-14.87612378 1.48593698 -8.26558941 -0.15625284 0 0 Z " fill="#474545" transform="translate(368.375,90.625)"/>
<path d="M0 0 C0.71285156 0.42087891 1.42570312 0.84175781 2.16015625 1.27539062 C2.89621094 1.70013672 3.63226563 2.12488281 4.390625 2.5625 C6.19355324 3.60445203 7.99002678 4.65755917 9.78515625 5.71289062 C8.21243883 10.2185135 4.69504564 12.43772656 1.03515625 15.21289062 C0.42671875 15.68597656 -0.18171875 16.1590625 -0.80859375 16.64648438 C-4.51132009 19.50264722 -8.29490736 22.16372954 -12.21484375 24.71289062 C-12.87484375 22.73289062 -13.53484375 20.75289062 -14.21484375 18.71289062 C-14.21484375 20.69289063 -14.21484375 22.67289063 -14.21484375 24.71289062 C-15.63290206 24.42806695 -17.04924754 24.13470919 -18.46484375 23.83789062 C-19.25375 23.67546875 -20.04265625 23.51304688 -20.85546875 23.34570312 C-23.18315519 22.72138987 -25.10516327 21.8645052 -27.21484375 20.71289062 C-26.55484375 19.06289062 -25.89484375 17.41289063 -25.21484375 15.71289062 C-25.89546875 16.35226563 -26.57609375 16.99164063 -27.27734375 17.65039062 C-30.83058849 20.14522204 -33.88043064 20.71289062 -38.21484375 20.71289062 C-38.20324219 21.38835937 -38.19164063 22.06382813 -38.1796875 22.75976562 C-38.17066406 23.65179688 -38.16164063 24.54382813 -38.15234375 25.46289062 C-38.14074219 26.34460938 -38.12914063 27.22632812 -38.1171875 28.13476562 C-38.21484375 30.71289062 -38.21484375 30.71289062 -38.72265625 32.65429688 C-39.33219032 34.83317836 -39.33219032 34.83317836 -39.1796875 37.63085938 C-39.13621066 42.8294469 -39.16432973 46.38381743 -42.46875 50.56445312 C-49.3296255 56.71289062 -49.3296255 56.71289062 -51.21484375 56.71289062 C-51.85616674 49.38348499 -52.2616122 42.19529934 -52.15234375 34.83789062 C-52.08040214 26.66852088 -53.01298004 18.78254699 -54.21484375 10.71289062 C-51.26887809 8.26063349 -48.75225016 7.07595429 -45.06640625 6.06445312 C-43.56762939 5.64292969 -43.56762939 5.64292969 -42.03857422 5.21289062 C-40.45520264 4.77976562 -40.45520264 4.77976562 -38.83984375 4.33789062 C-30.71862375 2.06438624 -22.83573566 -0.35493964 -15.01953125 -3.53710938 C-9.14674042 -5.10754926 -5.00872093 -2.87197301 0 0 Z " fill="#F8F9FA" transform="translate(120.21484375,74.287109375)"/>
<path d="M0 0 C1.04027344 -0.01417969 2.08054687 -0.02835937 3.15234375 -0.04296875 C6.01296613 0.18357718 7.63920151 0.71016381 10.0625 2.1875 C9.58662884 8.21520138 6.86527043 12.95428289 4.0625 18.1875 C3.33804688 18.00832031 2.61359375 17.82914063 1.8671875 17.64453125 C-4.32745778 16.26257515 -4.32745778 16.26257515 -10.5 17.25 C-13.34013607 19.50754405 -13.86147149 20.76483916 -14.9375 24.1875 C-15.29995813 27.27864162 -15.29995813 27.27864162 -15.3515625 30.58203125 C-15.39023437 31.78408203 -15.42890625 32.98613281 -15.46875 34.22460938 C-15.4996875 35.47048828 -15.530625 36.71636719 -15.5625 38 C-15.60117187 39.26521484 -15.63984375 40.53042969 -15.6796875 41.83398438 C-15.7738038 44.95158675 -15.85673441 48.0695232 -15.9375 51.1875 C-21.8775 51.1875 -27.8175 51.1875 -33.9375 51.1875 C-33.9375 34.6875 -33.9375 18.1875 -33.9375 1.1875 C-27.9975 1.1875 -22.0575 1.1875 -15.9375 1.1875 C-15.6075 2.8375 -15.2775 4.4875 -14.9375 6.1875 C-14.009375 5.383125 -13.08125 4.57875 -12.125 3.75 C-8.26159159 0.40171271 -5.04071368 0.03115398 0 0 Z " fill="#474545" transform="translate(580.9375,90.8125)"/>
<path d="M0 0 C0.99 0.99 1.98 1.98 3 3 C-1.95 6.96 -6.9 10.92 -12 15 C-8.21853294 12.47902196 -4.66988372 10.04293869 -1.125 7.25 C0.04675781 6.32960938 0.04675781 6.32960938 1.2421875 5.390625 C1.82226562 4.93171875 2.40234375 4.4728125 3 4 C3 4.99 3 5.98 3 7 C1.04141634 8.75660472 -0.89351468 10.31308264 -3 11.875 C-4.28234213 12.85273594 -5.56354624 13.83196583 -6.84375 14.8125 C-7.85888672 15.5859375 -7.85888672 15.5859375 -8.89453125 16.375 C-12.48196845 19.1437827 -15.98957357 22.00963086 -19.5 24.875 C-20.15742188 25.4097998 -20.81484375 25.94459961 -21.4921875 26.49560547 C-23.33109933 27.99347421 -25.16580519 29.4963617 -27 31 C-27.57322998 31.46519043 -28.14645996 31.93038086 -28.73706055 32.40966797 C-31.03204509 34.28816942 -33.00591647 36.00775261 -34.8125 38.375 C-36.96037463 40.95244955 -38.87646737 42.31569229 -41.625 44.1875 C-44.32321266 46.19251331 -45.76288787 47.27504952 -46.81640625 50.49609375 C-47.06045405 52.22497972 -47.28373734 53.95694652 -47.484375 55.69140625 C-48.08718507 58.39035133 -48.84038649 59.30642194 -50.9375 61.0625 C-54.53644199 63.33938167 -57.10481611 64.11282351 -61.2734375 64.24609375 C-62.0984375 64.27896484 -62.9234375 64.31183594 -63.7734375 64.34570312 C-65.49987586 64.406621 -67.22644494 64.4639464 -68.953125 64.51757812 C-73.46296893 64.70373212 -76.81721945 65.19059493 -81 67 C-81.99 66.67 -82.98 66.34 -84 66 C-83.505 65.505 -83.505 65.505 -83 65 C-82.7891018 62.89980546 -82.63122773 60.79417378 -82.5 58.6875 C-82.26708875 54.97339732 -81.90104746 51.5968042 -81 48 C-80.90962726 46.29354998 -80.869899 44.58383377 -80.875 42.875 C-80.87242188 42.00617188 -80.86984375 41.13734375 -80.8671875 40.2421875 C-80.85462066 37.96280551 -80.85462066 37.96280551 -82 36 C-80.4221875 36.3403125 -80.4221875 36.3403125 -78.8125 36.6875 C-74.53328941 37.03825497 -73.38300293 36.44327989 -70 34 C-68.515 33.505 -68.515 33.505 -67 33 C-67.99 35.475 -67.99 35.475 -69 38 C-68.22914062 38.20496094 -67.45828125 38.40992188 -66.6640625 38.62109375 C-65.66117188 38.89050781 -64.65828125 39.15992188 -63.625 39.4375 C-62.62726563 39.70433594 -61.62953125 39.97117188 -60.6015625 40.24609375 C-58 41 -58 41 -56 42 C-56.33 41.01 -56.66 40.02 -57 39 C-57.0685495 37.10529184 -57.08480372 35.2083166 -57.0625 33.3125 C-57.05347656 32.31863281 -57.04445313 31.32476562 -57.03515625 30.30078125 C-57.02355469 29.54152344 -57.01195313 28.78226563 -57 28 C-56.67 28 -56.34 28 -56 28 C-55.34 32.29 -54.68 36.58 -54 41 C-50.22063565 38.18400303 -46.45115104 35.36352775 -42.75 32.4453125 C-42.1830542 32.00106934 -41.6161084 31.55682617 -41.03198242 31.09912109 C-39.90337505 30.21360578 -38.77839638 29.32344196 -37.6574707 28.42822266 C-35.33850418 26.61491135 -33.24591515 25.09576135 -30.4921875 24.0234375 C-27.06011649 22.61402903 -24.55876706 20.30303187 -21.8125 17.875 C-20.6636966 16.88042803 -19.51394697 15.88694803 -18.36328125 14.89453125 C-17.79689941 14.4042041 -17.23051758 13.91387695 -16.64697266 13.40869141 C-12.85334255 10.16391736 -8.91555988 7.09522251 -5 4 C-3.33264815 2.66752359 -1.66580795 1.33440602 0 0 Z " fill="#646B75" transform="translate(162,57)"/>
<path d="M0 0 C1.54300781 -0.03867188 1.54300781 -0.03867188 3.1171875 -0.078125 C6.125 0.25 6.125 0.25 11.125 3.25 C7.66 10.675 7.66 10.675 4.125 18.25 C1.42317708 17.6640625 -1.27864583 17.078125 -3.98046875 16.4921875 C-7.30963631 16.21363367 -8.9901934 16.58588013 -11.875 18.25 C-14.1912817 21.69831433 -14.18171478 24.90516149 -14.2890625 28.984375 C-14.32773437 30.27988281 -14.36640625 31.57539062 -14.40625 32.91015625 C-14.43770267 34.27343284 -14.46895007 35.63671418 -14.5 37 C-14.53820469 38.37893028 -14.57725787 39.75783734 -14.6171875 41.13671875 C-14.71147758 44.50758922 -14.7943284 47.87877612 -14.875 51.25 C-20.815 51.25 -26.755 51.25 -32.875 51.25 C-32.875 34.75 -32.875 18.25 -32.875 1.25 C-26.935 1.25 -20.995 1.25 -14.875 1.25 C-14.545 2.57 -14.215 3.89 -13.875 5.25 C-13.111875 4.610625 -12.34875 3.97125 -11.5625 3.3125 C-7.67689207 0.33052182 -4.77781573 0.07148851 0 0 Z " fill="#474545" transform="translate(736.875,90.75)"/>
<path d="M0 0 C5.94 0 11.88 0 18 0 C18 16.5 18 33 18 50 C12.06 50 6.12 50 0 50 C0 33.5 0 17 0 0 Z " fill="#474545" transform="translate(819,92)"/>
<path d="M0 0 C5.94 0 11.88 0 18 0 C18 16.5 18 33 18 50 C12.06 50 6.12 50 0 50 C0 33.5 0 17 0 0 Z " fill="#474545" transform="translate(752,92)"/>
<path d="M0 0 C0 0.66 0 1.32 0 2 C-0.99 2.66 -1.98 3.32 -3 4 C-2.855625 4.93457031 -2.71125 5.86914062 -2.5625 6.83203125 C-1.32618906 15.37923 -0.85789614 23.67460528 -0.96875 32.30908203 C-1.03414661 37.95070775 -0.73473943 43.39761181 0 49 C0.43570313 48.566875 0.87140625 48.13375 1.3203125 47.6875 C6.22603762 43.10032846 6.22603762 43.10032846 10.375 42.5625 C13 43 13 43 14 44 C14.07244053 46.01964199 14.08377188 48.04167124 14.0625 50.0625 C14.05347656 51.16722656 14.04445313 52.27195313 14.03515625 53.41015625 C14.02355469 54.26480469 14.01195313 55.11945313 14 56 C14.66 56 15.32 56 16 56 C16.33 53.69 16.66 51.38 17 49 C17.66 49.99 18.32 50.98 19 52 C19.66 52 20.32 52 21 52 C21 54.97 21 57.94 21 61 C26.28 61 31.56 61 37 61 C37.49230769 69.36923077 37.49230769 69.36923077 35 72.5625 C34.34 73.036875 33.68 73.51125 33 74 C30.04590299 72.62845496 27.55991624 71.01136276 25 69 C24.34 69.66 23.68 70.32 23 71 C19.875 71.125 19.875 71.125 17 71 C17 69.02 17 67.04 17 65 C16.34 65 15.68 65 15 65 C14.979375 63.906875 14.95875 62.81375 14.9375 61.6875 C14.4734375 59.8621875 14.4734375 59.8621875 14 58 C10.71613106 55.85436683 10.71613106 55.85436683 7 55 C5.515 55.495 5.515 55.495 4 56 C4.3609375 56.45890625 4.721875 56.9178125 5.09375 57.390625 C5.5578125 58.00421875 6.021875 58.6178125 6.5 59.25 C6.9640625 59.85328125 7.428125 60.4565625 7.90625 61.078125 C9 63 9 63 9 67 C11.97 66.505 11.97 66.505 15 66 C15 66.66 15 67.32 15 68 C11.535 68.495 11.535 68.495 8 69 C6.02 66.03 4.04 63.06 2 60 C0.94039062 60.5053125 -0.11921875 61.010625 -1.2109375 61.53125 C-2.59886314 62.18770131 -3.98688919 62.84394033 -5.375 63.5 C-6.42300781 64.00080078 -6.42300781 64.00080078 -7.4921875 64.51171875 C-12.7734375 67 -12.7734375 67 -15 67 C-14.53125516 62.69153679 -11.9808851 60.87644837 -8.9375 58 C-6.27573636 55.26597336 -4.21138483 52.96708561 -3.375 49.140625 C-3.40272514 46.22232556 -3.40272514 46.22232556 -3.7265625 43.21875 C-4.03257875 39.61650157 -3.69735321 36.34196327 -3.3125 32.75 C-2.76088301 25.60104377 -3.77674828 19.56758487 -5.40625 12.65625 C-6.04258086 8.73779157 -5.95254441 5.84827942 -5 2 C-2 0 -2 0 0 0 Z " fill="#243041" transform="translate(70,81)"/>
<path d="M0 0 C3.18150263 2.26054134 3.88601462 3.58965264 4.9375 7.375 C5.01063139 11.61662038 4.4372021 13.54074541 2 17 C-1.41234859 19.40415469 -3.38189691 20 -7.5625 20 C-11.7332414 18.78669341 -13.3911183 17.45293166 -16 14 C-17.33359091 10.16592613 -17.06728273 8.24810508 -16 4.3125 C-12.02081608 -2.27802337 -6.78157375 -2.9429471 0 0 Z " fill="#474545" transform="translate(834,63)"/>
<path d="M0 0 C2.50198111 4.00316978 2.39921354 7.92399142 1.5625 12.5 C-0.44373379 15.57204549 -1.86001475 16.95581618 -5.33984375 18.15625 C-9.30955139 18.94866765 -11.10919286 18.66415357 -14.8125 16.8125 C-18.28236535 13.75571386 -19.22004448 12.16715896 -19.8125 7.625 C-19.32549634 3.56663615 -18.10063839 1.58363393 -15.4375 -1.5 C-9.77729526 -4.51877586 -5.30413502 -3.26408309 0 0 Z " fill="#474545" transform="translate(769.4375,64.5)"/>
<path d="M0 0 C0.99 0.99 1.98 1.98 3 3 C-4.75452138 9.31229023 -12.50873708 15.62357401 -20.328125 21.85546875 C-23.1229819 24.09870916 -25.90193625 26.36064636 -28.6796875 28.625 C-34.96891167 33.75131102 -41.28196683 38.83896416 -47.69238281 43.81323242 C-50.92137538 46.32881082 -54.08971312 48.89982495 -57.21875 51.5390625 C-57.93160156 52.13525391 -58.64445312 52.73144531 -59.37890625 53.34570312 C-60.75957116 54.5038852 -62.1324511 55.6714328 -63.49609375 56.84960938 C-67.27204815 60.00395983 -69.8988054 61.73234473 -75 62 C-71.05386394 57.88626743 -66.82196748 54.31010937 -62.375 50.75 C-60.94128558 49.59389964 -59.50769219 48.43764916 -58.07421875 47.28125 C-57.37731934 46.72050781 -56.68041992 46.15976563 -55.96240234 45.58203125 C-53.36011974 43.48414729 -50.77270452 41.36889779 -48.1875 39.25 C-46.88425781 38.18265625 -46.88425781 38.18265625 -45.5546875 37.09375 C-44.71164063 36.4028125 -43.86859375 35.711875 -43 35 C-35.99013945 29.25491551 -28.9641371 23.53014477 -21.92773438 17.81762695 C-17.05221901 13.8583119 -12.18755318 9.88616568 -7.33203125 5.90234375 C-4.90058442 3.9189022 -2.45319376 1.95645471 0 0 Z " fill="#EBEEF1" transform="translate(162,57)"/>
<path d="M0 0 C1.875 1.125 1.875 1.125 3 3 C2.84578812 6.87125002 2.45764954 8.53218047 -0.28515625 11.3359375 C-1.20167969 12.00882813 -2.11820312 12.68171875 -3.0625 13.375 C-4.44115234 14.40753906 -4.44115234 14.40753906 -5.84765625 15.4609375 C-6.55792969 15.96882813 -7.26820313 16.47671875 -8 17 C-8.66 16.67 -9.32 16.34 -10 16 C-6.83047153 12.73991357 -3.60062011 9.77762123 0 7 C-0.495 5.02 -0.495 5.02 -1 3 C-6.90923911 3.3581357 -10.53287377 7.46690782 -14.4609375 11.5 C-16.20810285 13.20282105 -18.05849031 14.64745402 -20 16.125 C-23.50317252 18.82323644 -26.95482555 21.57222093 -30.375 24.375 C-31.74785156 25.49841797 -31.74785156 25.49841797 -33.1484375 26.64453125 C-35.1224732 28.27513882 -37.08533837 29.91932903 -39.0390625 31.57421875 C-40.01617187 32.39535156 -40.99328125 33.21648437 -42 34.0625 C-42.886875 34.81660156 -43.77375 35.57070312 -44.6875 36.34765625 C-47 38 -47 38 -50 38 C-50 37.34 -50 36.68 -50 36 C-50.69480469 35.74605469 -51.38960937 35.49210937 -52.10546875 35.23046875 C-55.36104193 33.84652064 -58.26715636 32.11052924 -61.3125 30.3125 C-67.31710128 26.95841587 -67.31710128 26.95841587 -73.8828125 27.21875 C-77.67909937 28.61959386 -81.44780519 30.07852039 -85.203125 31.5859375 C-89.59932679 33.28134434 -94.09322794 34.5947358 -98.625 35.875 C-99.79844971 36.2157959 -99.79844971 36.2157959 -100.99560547 36.56347656 C-106.6358814 38.12137287 -106.6358814 38.12137287 -110 37 C-101.56911888 33.7526989 -92.98027518 31.05299005 -84.35498047 28.37475586 C-82.9533667 27.93595093 -82.9533667 27.93595093 -81.5234375 27.48828125 C-80.67700684 27.22571533 -79.83057617 26.96314941 -78.95849609 26.69262695 C-77.02260433 26.16623265 -77.02260433 26.16623265 -76 25 C-68.76900633 23.26193803 -63.71141798 25.91243456 -57.6875 29.5625 C-57.0061499 29.99933105 -56.3247998 30.43616211 -55.62280273 30.88623047 C-51.78655344 33.33030216 -51.78655344 33.33030216 -47.390625 34.078125 C-44.15263584 32.61785538 -41.68088254 30.53494597 -39.0625 28.1875 C-38.50111328 27.69902588 -37.93972656 27.21055176 -37.36132812 26.70727539 C-36.17131718 25.67128718 -34.98469784 24.63139197 -33.80126953 23.58789062 C-26.31439831 16.98791632 -18.74792983 10.46538941 -10.9375 4.25 C-9.91527344 3.43015625 -8.89304687 2.6103125 -7.83984375 1.765625 C-4.82602298 -0.10816728 -3.46559816 -0.51833294 0 0 Z " fill="#121E30" transform="translate(180,44)"/>
<path d="M0 0 C1.69382812 0.68835938 1.69382812 0.68835938 3.421875 1.390625 C6.25 2.75 6.25 2.75 8.25 4.75 C7.14764064 5.71041171 6.04303376 6.66824407 4.9375 7.625 C4.32261719 8.15867187 3.70773438 8.69234375 3.07421875 9.2421875 C1.25 10.75 1.25 10.75 -1.75 12.75 C-2.99187883 13.77647801 -4.2207022 14.81891134 -5.4375 15.875 C-6.06011719 16.41382812 -6.68273437 16.95265625 -7.32421875 17.5078125 C-7.79472656 17.91773437 -8.26523438 18.32765625 -8.75 18.75 C-10.07 17.76 -11.39 16.77 -12.75 15.75 C-12.87375 16.884375 -12.9975 18.01875 -13.125 19.1875 C-13.33125 20.363125 -13.5375 21.53875 -13.75 22.75 C-14.41 23.08 -15.07 23.41 -15.75 23.75 C-15.83132022 19.60266897 -15.81558455 15.77554164 -14.75 11.75 C-14.42 11.42 -14.09 11.09 -13.75 10.75 C-13.51636119 8.90108054 -13.33696365 7.04511969 -13.1875 5.1875 C-13.10371094 4.17558594 -13.01992187 3.16367188 -12.93359375 2.12109375 C-12.87300781 1.33863281 -12.81242187 0.55617188 -12.75 -0.25 C-7.63840198 -2.51149488 -5.10312022 -2.14001816 0 0 Z " fill="#546277" transform="translate(96.75,97.25)"/>
<path d="M0 0 C1.32 0.99 2.64 1.98 4 3 C5.95647183 2.57609777 7.91408291 2.13722648 9.828125 1.55078125 C13.25724575 0.68116609 16.4776946 0.87420338 20 1 C20.63019694 9.19256018 20.63019694 9.19256018 18 12.5625 C17.34 13.036875 16.68 13.51125 16 14 C12.56404834 12.47291037 9.88087546 10.40072955 7 8 C6.34 8.66 5.68 9.32 5 10 C3.68 10 2.36 10 1 10 C0.67 6.7 0.34 3.4 0 0 Z " fill="#314157" transform="translate(87,141)"/>
<path d="M0 0 C0.99 0.33 1.98 0.66 3 1 C-4.64335911 7.24373102 -12.28969213 13.48016552 -20.0625 19.5625 C-20.62130859 20.00070068 -21.18011719 20.43890137 -21.75585938 20.89038086 C-24.16909928 22.78270569 -26.58277444 24.6744276 -29.00048828 26.56103516 C-31.04640931 28.16015141 -33.0861432 29.76689109 -35.125 31.375 C-36.06678101 32.10698608 -36.06678101 32.10698608 -37.02758789 32.85375977 C-40.53077302 35.62796942 -43.27925179 38.41910493 -46 42 C-47.63356951 43.37368345 -49.2925002 44.71937515 -51 46 C-48.03 46.33 -45.06 46.66 -42 47 C-42 47.33 -42 47.66 -42 48 C-47.94 48 -53.88 48 -60 48 C-60.33 47.34 -60.66 46.68 -61 46 C-59.45505859 45.65775391 -59.45505859 45.65775391 -57.87890625 45.30859375 C-53.8045258 44.13732445 -51.02275547 41.89256923 -47.9375 39.0625 C-46.79882362 38.05898251 -45.65813255 37.05774727 -44.515625 36.05859375 C-43.93490234 35.54796387 -43.35417969 35.03733398 -42.75585938 34.51123047 C-39.97535109 32.11810668 -37.08687336 29.87141701 -34.1875 27.625 C-29.01511212 23.59855981 -23.89702263 19.51188691 -18.8125 15.375 C-18.14154297 14.83101562 -17.47058594 14.28703125 -16.77929688 13.7265625 C-13.70691047 11.23006011 -10.65374051 8.71763167 -7.6484375 6.140625 C-6.67132813 5.31046875 -5.69421875 4.4803125 -4.6875 3.625 C-3.84574219 2.89539063 -3.00398438 2.16578125 -2.13671875 1.4140625 C-1.07904297 0.71410156 -1.07904297 0.71410156 0 0 Z " fill="#212D3F" transform="translate(147,73)"/>
<path d="M0 0 C2.31 4.62 4.62 9.24 7 14 C5 15 5 15 3.21240234 14.56274414 C2.51066895 14.30614014 1.80893555 14.04953613 1.0859375 13.78515625 C-0.05488281 13.37426758 -0.05488281 13.37426758 -1.21875 12.95507812 C-2.40984375 12.51325195 -2.40984375 12.51325195 -3.625 12.0625 C-4.42679688 11.77181641 -5.22859375 11.48113281 -6.0546875 11.18164062 C-8.03892138 10.46117475 -10.01978837 9.73144862 -12 9 C-10.85849612 5.57548836 -9.95548398 4.91203482 -7.125 2.8125 C-6.07699219 2.01779297 -6.07699219 2.01779297 -5.0078125 1.20703125 C-3 0 -3 0 0 0 Z " fill="#2C7DF0" transform="translate(154,76)"/>
<path d="M0 0 C3.5625 1.5625 3.5625 1.5625 6 3 C6 3.66 6 4.32 6 5 C5.35933594 4.77183594 4.71867187 4.54367188 4.05859375 4.30859375 C-1.31105022 2.52404739 -5.39460164 1.35135342 -11 3 C-11.74765625 3.64582031 -12.4953125 4.29164063 -13.265625 4.95703125 C-24.69004121 13.49270222 -49.21409812 12.1823161 -63 12 C-60.23098367 9.23098367 -57.41778063 9.37180419 -53.6875 9 C-52.57580444 8.87709595 -52.57580444 8.87709595 -51.44165039 8.75170898 C-47.12721078 8.28510241 -42.8090571 7.89352602 -38.484375 7.53515625 C-37.56180908 7.45587891 -36.63924316 7.37660156 -35.6887207 7.29492188 C-33.89646754 7.14351314 -32.10330843 7.00236691 -30.30932617 6.87304688 C-23.45150647 6.29643722 -17.64782815 5.02812369 -12.0625 0.75 C-7.79361301 -1.689364 -4.66285636 -1.19688292 0 0 Z " fill="#182334" transform="translate(171,130)"/>
<path d="M0 0 C1.875 1.125 1.875 1.125 3 3 C2.84578812 6.87125002 2.45764954 8.53218047 -0.28515625 11.3359375 C-1.20167969 12.00882813 -2.11820313 12.68171875 -3.0625 13.375 C-3.98160156 14.06335937 -4.90070313 14.75171875 -5.84765625 15.4609375 C-6.91306641 16.22277344 -6.91306641 16.22277344 -8 17 C-8.66 16.67 -9.32 16.34 -10 16 C-6.83047153 12.73991357 -3.60062011 9.77762123 0 7 C-0.495 5.02 -0.495 5.02 -1 3 C-6.90560373 3.35791538 -10.52750609 7.4610412 -14.453125 11.4921875 C-16.24271668 13.23658747 -18.14202192 14.72900606 -20.125 16.25 C-20.91003906 16.85457031 -21.69507813 17.45914063 -22.50390625 18.08203125 C-23.32761719 18.71496094 -24.15132812 19.34789063 -25 20 C-26.68832238 21.31144197 -28.37586121 22.62389348 -30.0625 23.9375 C-30.81660156 24.52402344 -31.57070312 25.11054687 -32.34765625 25.71484375 C-32.89292969 26.13894531 -33.43820313 26.56304687 -34 27 C-34.66 26.67 -35.32 26.34 -36 26 C-31.59842191 21.33607619 -26.94810458 17.20611522 -21.890625 13.265625 C-19.70600857 11.55335807 -17.55889185 9.81676913 -15.421875 8.046875 C-14.17718144 7.03112977 -12.93239037 6.01550401 -11.6875 5 C-11.100896 4.50661133 -10.51429199 4.01322266 -9.90991211 3.50488281 C-6.55285394 0.79700601 -4.36870795 -0.76045005 0 0 Z " fill="#080808" transform="translate(180,44)"/>
<path d="M0 0 C1.65 0.33 3.3 0.66 5 1 C5 4.63 5 8.26 5 12 C3.02 11.01 1.04 10.02 -1 9 C-2.98 10.65 -4.96 12.3 -7 14 C-7.66 13.67 -8.32 13.34 -9 13 C-9.33 13 -9.66 13 -10 13 C-10.99 13 -11.98 13 -13 13 C-11.75078531 9.25235594 -10.16787484 8.32110909 -7.0625 5.9375 C-3.39948212 3.11846923 -3.39948212 3.11846923 0 0 Z " fill="#677487" transform="translate(78,125)"/>
<path d="M0 0 C0.99 0.99 1.98 1.98 3 3 C1.02 3.33 -0.96 3.66 -3 4 C-2.6390625 4.45890625 -2.278125 4.9178125 -1.90625 5.390625 C-1.4421875 6.00421875 -0.978125 6.6178125 -0.5 7.25 C-0.0359375 7.85328125 0.428125 8.4565625 0.90625 9.078125 C2 11 2 11 2 15 C3.98 14.67 5.96 14.34 8 14 C8 14.66 8 15.32 8 16 C5.69 16.33 3.38 16.66 1 17 C0.43732422 16.02546875 0.43732422 16.02546875 -0.13671875 15.03125 C-0.90435547 13.77828125 -0.90435547 13.77828125 -1.6875 12.5 C-2.18636719 11.6646875 -2.68523437 10.829375 -3.19921875 9.96875 C-4.84367004 7.76393923 -4.84367004 7.76393923 -7.4765625 7.58984375 C-10.06823577 8.01109095 -11.51817351 8.62440716 -13.6875 10.0625 C-14.780625 10.701875 -15.87375 11.34125 -17 12 C-17.66 11.67 -18.32 11.34 -19 11 C-14.22100656 4.29540481 -14.22100656 4.29540481 -9.125 3.0625 C-8.09375 3.041875 -7.0625 3.02125 -6 3 C-6 3.66 -6 4.32 -6 5 C-4.02 3.35 -2.04 1.7 0 0 Z " fill="#202C3E" transform="translate(77,133)"/>
<path d="M0 0 C1.86084996 2.09345621 2.91274871 3.63160566 3.5625 6.375 C2.7207881 10.30298888 0.16151652 12.61657692 -3 15 C-3.66 15 -4.32 15 -5 15 C-5 14.34 -5 13.68 -5 13 C-5.66 13 -6.32 13 -7 13 C-6.67 9.37 -6.34 5.74 -6 2 C-4.02 1.34 -2.04 0.68 0 0 Z " fill="#F9FAFB" transform="translate(90,95)"/>
<path d="M0 0 C0.73605469 0.23074219 1.47210938 0.46148437 2.23046875 0.69921875 C2.56046875 2.01921875 2.89046875 3.33921875 3.23046875 4.69921875 C-0.06953125 7.33921875 -3.36953125 9.97921875 -6.76953125 12.69921875 C-8.08953125 12.03921875 -9.40953125 11.37921875 -10.76953125 10.69921875 C-10.76953125 6.69921875 -10.76953125 6.69921875 -9.1953125 4.7421875 C-8.49792969 4.12988281 -7.80054688 3.51757812 -7.08203125 2.88671875 C-6.39753906 2.26152344 -5.71304688 1.63632812 -5.0078125 0.9921875 C-2.76953125 -0.30078125 -2.76953125 -0.30078125 0 0 Z " fill="#F6F6F6" transform="translate(177.76953125,46.30078125)"/>
<path d="M0 0 C0 0.66 0 1.32 0 2 C-0.99 2.66 -1.98 3.32 -3 4 C-2.855625 4.81855469 -2.71125 5.63710937 -2.5625 6.48046875 C-0.42033055 20.59796049 -0.8122998 34.75788625 -1 49 C-1.99 49.495 -1.99 49.495 -3 50 C-2.97643433 48.98969727 -2.97643433 48.98969727 -2.95239258 47.95898438 C-2.70664631 35.78987806 -2.51969454 24.17332975 -5.44140625 12.3046875 C-6.07788224 8.53924216 -5.90154961 5.70586724 -5 2 C-2 0 -2 0 0 0 Z " fill="#303D50" transform="translate(70,81)"/>
<path d="M0 0 C2.64 1.32 5.28 2.64 8 4 C8.125 7.375 8.125 7.375 8 11 C7.34 11.66 6.68 12.32 6 13 C4.68 13 3.36 13 2 13 C1.54625 11.9275 1.0925 10.855 0.625 9.75 C-0.50088537 7.11937683 -1.67920206 4.53999604 -3 2 C-2.01 1.34 -1.02 0.68 0 0 Z " fill="#F9FAFB" transform="translate(77,135)"/>
<path d="M0 0 C0.33 0 0.66 0 1 0 C1.33 2.97 1.66 5.94 2 9 C3.32 9.33 4.64 9.66 6 10 C5.39671875 10.51949219 4.7934375 11.03898438 4.171875 11.57421875 C0.07408883 15.14986765 -3.80685744 18.55736688 -7 23 C-6.401875 22.67 -5.80375 22.34 -5.1875 22 C-3 21 -3 21 0 21 C0.33 20.01 0.66 19.02 1 18 C1.99 18.66 2.98 19.32 4 20 C1.87767021 21.17176518 -0.24757791 22.33754785 -2.375 23.5 C-2.97828125 23.83386719 -3.5815625 24.16773438 -4.203125 24.51171875 C-8.7734375 27 -8.7734375 27 -11 27 C-10.53125516 22.69153679 -7.9808851 20.87644837 -4.9375 18 C-0.89393871 13.73786783 0.68810816 11.2376551 0.625 5.3125 C0.46702996 3.53646539 0.27666765 1.76145068 0 0 Z " fill="#0D1726" transform="translate(66,121)"/>
<path d="M0 0 C1.62723299 0.45034123 3.25173664 0.91055354 4.875 1.375 C5.77992187 1.63023438 6.68484375 1.88546875 7.6171875 2.1484375 C10 3 10 3 12 5 C10.92781799 6.01194706 9.84173622 7.00918057 8.75 8 C7.84507813 8.8353125 7.84507813 8.8353125 6.921875 9.6875 C5 11 5 11 1 11 C1.01160156 10.37351562 1.02320312 9.74703125 1.03515625 9.1015625 C1.04417969 8.28429687 1.05320312 7.46703125 1.0625 6.625 C1.07990234 5.40683594 1.07990234 5.40683594 1.09765625 4.1640625 C1.14466334 1.95062858 1.14466334 1.95062858 0 0 Z " fill="#F0F3F6" transform="translate(93,97)"/>
<path d="M0 0 C3.26954202 0.56371414 4.82575883 1.49962266 7 4 C5.68 5.65 4.36 7.3 3 9 C2.34 8.67 1.68 8.34 1 8 C1 7.34 1 6.68 1 6 C0.32453125 6.54269531 -0.3509375 7.08539063 -1.046875 7.64453125 C-2.38492188 8.71767578 -2.38492188 8.71767578 -3.75 9.8125 C-4.63171875 10.52019531 -5.5134375 11.22789063 -6.421875 11.95703125 C-8.58992929 13.67505002 -10.77728901 15.35373976 -13 17 C-13.66 16.67 -14.32 16.34 -15 16 C-14.08476562 15.22914062 -13.16953125 14.45828125 -12.2265625 13.6640625 C-11.02600156 12.6510892 -9.82548292 11.63806576 -8.625 10.625 C-7.72007812 9.86316406 -7.72007812 9.86316406 -6.796875 9.0859375 C-6.21679688 8.59609375 -5.63671875 8.10625 -5.0390625 7.6015625 C-4.50490723 7.15119629 -3.97075195 6.70083008 -3.42041016 6.23681641 C-2.23658322 5.20600388 -1.10995961 4.10995961 0 3 C0 2.01 0 1.02 0 0 Z " fill="#2A2A2A" transform="translate(164,56)"/>
<path d="M0 0 C0.46707789 4.01686987 0.32150834 5.56501812 -2.125 8.875 C-5.43498188 11.32150834 -6.98313013 11.46707789 -11 11 C-11 10.01 -11 9.02 -11 8 C-8.84765625 5.95703125 -8.84765625 5.95703125 -6.0625 3.8125 C-5.14597656 3.09707031 -4.22945313 2.38164063 -3.28515625 1.64453125 C-1 0 -1 0 0 0 Z " fill="#F3F5F7" transform="translate(113,107)"/>
<path d="M0 0 C-1.5830577 4.2742558 -4.50568404 6.26531794 -8 9 C-5.03 9.33 -2.06 9.66 1 10 C1 10.33 1 10.66 1 11 C-4.94 11 -10.88 11 -17 11 C-17.33 10.34 -17.66 9.68 -18 9 C-17.01 8.814375 -16.02 8.62875 -15 8.4375 C-10.63121079 7.23874686 -7.97734233 4.57779549 -4.796875 1.4609375 C-3 0 -3 0 0 0 Z " fill="#34445B" transform="translate(104,110)"/>
<path d="M0 0 C1.65 0.33 3.3 0.66 5 1 C5 4.63 5 8.26 5 12 C0.125 9.125 0.125 9.125 -1 8 C-1.125 4.5 -1.125 4.5 -1 1 C-0.67 0.67 -0.34 0.34 0 0 Z " fill="#F3F6FA" transform="translate(78,125)"/>
<path d="M0 0 C8.13709505 0.71378027 16.01731928 2.32773882 24 4 C24 4.66 24 5.32 24 6 C16.1418209 5.64281004 8.28373617 5.25277961 1 2 C0.67 1.34 0.34 0.68 0 0 Z " fill="#0B0C0E" transform="translate(158,91)"/>
<path d="M0 0 C2.91517292 1.07401108 4.77810176 1.77810176 7 4 C6.01 4 5.02 4 4 4 C4.020625 5.258125 4.04125 6.51625 4.0625 7.8125 C4.10886083 10.64051087 3.91692961 12.24921116 3 15 C3.66 15 4.32 15 5 15 C4.67 15.66 4.34 16.32 4 17 C3.34 16.67 2.68 16.34 2 16 C2 17.65 2 19.3 2 21 C1.34 20.34 0.68 19.68 0 19 C0.20284288 17.37725697 0.41834121 15.75491579 0.703125 14.14453125 C1.31873814 9.69753637 2.0428324 4.08566481 0 0 Z " fill="#202C3D" transform="translate(80,93)"/>
<path d="M0 0 C3.5625 1.5625 3.5625 1.5625 6 3 C6 3.66 6 4.32 6 5 C5.03900391 4.65775391 5.03900391 4.65775391 4.05859375 4.30859375 C-2.30280405 2.19444813 -7.05704911 1.28127782 -13.4375 4.0625 C-13.953125 4.371875 -14.46875 4.68125 -15 5 C-14 2 -14 2 -12 0.25 C-7.77020067 -1.51241639 -4.4014208 -1.04244177 0 0 Z " fill="#111418" transform="translate(171,130)"/>
<path d="M0 0 C3.465 1.98 3.465 1.98 7 4 C6.67 5.65 6.34 7.3 6 9 C4.35 9.33 2.7 9.66 1 10 C0.67 6.7 0.34 3.4 0 0 Z " fill="#F1F3F6" transform="translate(87,141)"/>
<path d="M0 0 C0.33 0 0.66 0 1 0 C1.33 2.64 1.66 5.28 2 8 C2.185625 6.2984375 2.185625 6.2984375 2.375 4.5625 C2.58125 3.386875 2.7875 2.21125 3 1 C3.66 0.67 4.32 0.34 5 0 C5 1.98 5 3.96 5 6 C5.66 6.33 6.32 6.66 7 7 C6 10 6 10 3.625 11.25 C1 12 1 12 -2 11 C-1.67 10.67 -1.34 10.34 -1 10 C-0.76712992 8.31816052 -0.58735834 6.6287584 -0.4375 4.9375 C-0.35371094 4.01839844 -0.26992187 3.09929687 -0.18359375 2.15234375 C-0.12300781 1.44207031 -0.06242187 0.73179688 0 0 Z " fill="#0C121C" transform="translate(80,112)"/>
<path d="M0 0 C0 0.66 0 1.32 0 2 C0.66 2.33 1.32 2.66 2 3 C-0.31 4.98 -2.62 6.96 -5 9 C-5.99 8.34 -6.98 7.68 -8 7 C-8 6.34 -8 5.68 -8 5 C-2.52380952 0 -2.52380952 0 0 0 Z " fill="#F3F5F7" transform="translate(93,107)"/>
<path d="M0 0 C-1.51908323 3.80199928 -3.77448786 5.77187204 -6.9375 8.3125 C-7.81277344 9.03050781 -8.68804687 9.74851562 -9.58984375 10.48828125 C-10.38519531 10.98714844 -11.18054688 11.48601562 -12 12 C-12.99 11.67 -13.98 11.34 -15 11 C-12.87996003 9.16064138 -10.75442773 7.32843267 -8.625 5.5 C-8.02171875 4.97535156 -7.4184375 4.45070313 -6.796875 3.91015625 C-2.2265625 0 -2.2265625 0 0 0 Z " fill="#0A0C0D" transform="translate(165,64)"/>
<path d="M0 0 C1.98 0 3.96 0 6 0 C5.74438677 2.3431213 5.40729228 4.67843403 5 7 C4.01 7.495 4.01 7.495 3 8 C0 3.375 0 3.375 0 0 Z " fill="#F2F4F7" transform="translate(100,144)"/>
<path d="M0 0 C-1.29278344 3.87835033 -3.67204128 5.81055347 -7 8 C-9.875 8.8125 -9.875 8.8125 -12 9 C-11.67 7.35 -11.34 5.7 -11 4 C-10.01 4.33 -9.02 4.66 -8 5 C-1.71794872 0 -1.71794872 0 0 0 Z " fill="#3A4553" transform="translate(96,110)"/>
<path d="M0 0 C0.99 0 1.98 0 3 0 C3.33 0.99 3.66 1.98 4 3 C0.7 5.64 -2.6 8.28 -6 11 C-6.99 10.01 -7.98 9.02 -9 8 C-7.906875 7.566875 -6.81375 7.13375 -5.6875 6.6875 C-2.90591207 5.50504359 -0.93638061 4.39199957 1 2 C0.67 1.34 0.34 0.68 0 0 Z " fill="#1F2A39" transform="translate(103,100)"/>
<path d="M0 0 C0.33 0 0.66 0 1 0 C1.12117188 0.91523437 1.24234375 1.83046875 1.3671875 2.7734375 C1.53476563 3.96195312 1.70234375 5.15046875 1.875 6.375 C2.03742188 7.55835937 2.19984375 8.74171875 2.3671875 9.9609375 C2.7302585 13.09566659 2.7302585 13.09566659 5 15 C3.02 15.99 3.02 15.99 1 17 C1 16.34 1 15.68 1 15 C-0.32 14.67 -1.64 14.34 -3 14 C-1.68 14 -0.36 14 1 14 C0.67 13.01 0.34 12.02 0 11 C-0.0685495 9.10529184 -0.08480372 7.2083166 -0.0625 5.3125 C-0.05347656 4.31863281 -0.04445313 3.32476562 -0.03515625 2.30078125 C-0.02355469 1.54152344 -0.01195313 0.78226562 0 0 Z " fill="#101620" transform="translate(105,85)"/>
<path d="M0 0 C1 1 1 1 1.09765625 3.28515625 C1.08605469 4.20167969 1.07445313 5.11820313 1.0625 6.0625 C1.05347656 6.98160156 1.04445313 7.90070313 1.03515625 8.84765625 C1.02355469 9.55792969 1.01195313 10.26820313 1 11 C0.67 11 0.34 11 0 11 C-0.33 8.03 -0.66 5.06 -1 2 C-5.40114397 2.50298788 -7.71195019 4.08772731 -11 7 C-11 4 -11 4 -8.875 1.8125 C-5.570843 -0.2705555 -3.83279396 -0.43554477 0 0 Z " fill="#1C2532" transform="translate(83,124)"/>
<path d="M0 0 C-1.5830577 4.2742558 -4.50568404 6.26531794 -8 9 C-8.66 8.67 -9.32 8.34 -10 8 C-8.18341255 3.37595922 -5.13109685 0 0 0 Z " fill="#7D8795" transform="translate(104,110)"/>
<path d="M0 0 C0.33 0.99 0.66 1.98 1 3 C-0.09601169 4.00893131 -1.20213918 5.00688225 -2.3125 6 C-3.23482422 6.8353125 -3.23482422 6.8353125 -4.17578125 7.6875 C-6 9 -6 9 -9 9 C-7.83709195 5.51127585 -6.86032391 4.90023136 -3.9375 2.8125 C-3.20402344 2.28269531 -2.47054687 1.75289062 -1.71484375 1.20703125 C-1.14894531 0.80871094 -0.58304688 0.41039062 0 0 Z " fill="#E9ECF1" transform="translate(74,129)"/>
<path d="M0 0 C1.32 0 2.64 0 4 0 C4.63019694 8.19256018 4.63019694 8.19256018 2 11.5625 C1.34 12.036875 0.68 12.51125 0 13 C-0.99 12.67 -1.98 12.34 -3 12 C-2.34 11.67 -1.68 11.34 -1 11 C-0.34786708 8.97536745 -0.34786708 8.97536745 0 7 C0.33 7.66 0.66 8.32 1 9 C1.66 6.36 2.32 3.72 3 1 C2.01 0.67 1.02 0.34 0 0 Z " fill="#0A1320" transform="translate(103,142)"/>
<path d="M0 0 C-0.33 0.99 -0.66 1.98 -1 3 C-2.60049704 3.39036513 -4.20562371 3.76178619 -5.8125 4.125 C-6.70582031 4.33382812 -7.59914062 4.54265625 -8.51953125 4.7578125 C-11 5 -11 5 -14 3 C-12.0424015 2.49713066 -10.08389623 1.9977901 -8.125 1.5 C-7.03445312 1.2215625 -5.94390625 0.943125 -4.8203125 0.65625 C-2 0 -2 0 0 0 Z " fill="#1E2C3F" transform="translate(156,134)"/>
<path d="M0 0 C0.66 0.33 1.32 0.66 2 1 C1.01 2.485 1.01 2.485 0 4 C1.65 4.33 3.3 4.66 5 5 C5 5.33 5 5.66 5 6 C1.7 6 -1.6 6 -5 6 C-3 2 -3 2 0 0 Z " fill="#3A4554" transform="translate(102,113)"/>
<path d="M0 0 C0.66 0.33 1.32 0.66 2 1 C2 2.32 2 3.64 2 5 C3.98 4.67 5.96 4.34 8 4 C8 4.66 8 5.32 8 6 C5.69 6.33 3.38 6.66 1 7 C-0.0625 5.1875 -0.0625 5.1875 -1 3 C-0.67 2.01 -0.34 1.02 0 0 Z " fill="#162841" transform="translate(77,143)"/>
<path d="M0 0 C1.9375 1.125 1.9375 1.125 4 3 C4.75 6.1875 4.75 6.1875 5 9 C3.0625 8.4375 3.0625 8.4375 1 7 C0.25 3.375 0.25 3.375 0 0 Z " fill="#687991" transform="translate(73,138)"/>
<path d="M0 0 C0.79921875 0.11085938 1.5984375 0.22171875 2.421875 0.3359375 C3.32679688 0.47902344 3.32679688 0.47902344 4.25 0.625 C4.25 1.285 4.25 1.945 4.25 2.625 C-0.04 2.295 -4.33 1.965 -8.75 1.625 C-4.77033543 -0.36483228 -4.07324868 -0.59900716 0 0 Z " fill="#131313" transform="translate(177.75,94.375)"/>
<path d="M0 0 C-1.50223584 4.20626034 -4.28550034 5.73900021 -8 8 C-8 7.01 -8 6.02 -8 5 C-2.65116279 0 -2.65116279 0 0 0 Z " fill="#1C2736" transform="translate(118,92)"/>
<path d="M0 0 C0.66 0.33 1.32 0.66 2 1 C1.375 2.9375 1.375 2.9375 0 5 C-3.125 5.75 -3.125 5.75 -6 6 C-4 4 -2 2 0 0 Z " fill="#E4E9EE" transform="translate(93,113)"/>
<path d="M0 0 C2.46800047 1.15173355 4.04783565 2.04783565 6 4 C6 4.99 6 5.98 6 7 C5.34 7 4.68 7 4 7 C0 2.52941176 0 2.52941176 0 0 Z " fill="#EAEDF1" transform="translate(96,146)"/>
<path d="M0 0 C1.32 0.33 2.64 0.66 4 1 C4 1.66 4 2.32 4 3 C2.03533587 4.06775224 0.03144641 5.06553465 -2 6 C-2.66 5.67 -3.32 5.34 -4 5 C-2.68 3.35 -1.36 1.7 0 0 Z " fill="#DEE2E9" transform="translate(62,139)"/>
<path d="M0 0 C0.33 0 0.66 0 1 0 C1.33 3.63 1.66 7.26 2 11 C0.68 11.33 -0.64 11.66 -2 12 C-1.67 11.34 -1.34 10.68 -1 10 C-0.77377919 8.29636178 -0.59111527 6.58671299 -0.4375 4.875 C-0.35371094 3.96492188 -0.26992187 3.05484375 -0.18359375 2.1171875 C-0.12300781 1.41851562 -0.06242187 0.71984375 0 0 Z " fill="#020509" transform="translate(80,112)"/>
</svg>
